<svg width="87" height="35" viewBox="0 0 87 35" fill="none" xmlns="http://www.w3.org/2000/svg">
<g opacity="0.6">
<path d="M6.5 22L7.95934 26.4914H12.6819L8.86126 29.2672L10.3206 33.7586L6.5 30.9828L2.6794 33.7586L4.13874 29.2672L0.318133 26.4914H5.04066L6.5 22Z" fill="#EA9309"/>
<path d="M23.5 22L24.9593 26.4914H29.6819L25.8613 29.2672L27.3206 33.7586L23.5 30.9828L19.6794 33.7586L21.1387 29.2672L17.3181 26.4914H22.0407L23.5 22Z" fill="#EA9309"/>
<path d="M40.5 22L41.9593 26.4914H46.6819L42.8613 29.2672L44.3206 33.7586L40.5 30.9828L36.6794 33.7586L38.1387 29.2672L34.3181 26.4914H39.0407L40.5 22Z" fill="#EA9309"/>
<path d="M57.5 22L58.9593 26.4914H63.6819L59.8613 29.2672L61.3206 33.7586L57.5 30.9828L53.6794 33.7586L55.1387 29.2672L51.3181 26.4914H56.0407L57.5 22Z" fill="#EA9309"/>
<path d="M74.5 22L75.9593 26.4914H80.6819L76.8613 29.2672L78.3206 33.7586L74.5 30.9828L70.6794 33.7586L72.1387 29.2672L68.3181 26.4914H73.0407L74.5 22Z" fill="#EA9309"/>
<g clip-path="url(#clip0_44_71)">
<path d="M6.09586 1.75H4.12793C2.15993 1.75 0.466604 3.16826 0.466604 5.9161C0.466604 7.55599 1.29035 8.79694 2.70914 9.41742L0.0546567 14.0268C-0.0368544 14.1598 0.0546567 14.2927 0.191997 14.2927H1.42769C1.5192 14.2927 1.61071 14.2484 1.65647 14.1598L4.08217 9.63904H4.95168V14.1598C4.95168 14.2041 4.99751 14.2927 5.08902 14.2927H6.18744C6.27896 14.2927 6.32471 14.2484 6.32471 14.1598V1.92724C6.27896 1.79431 6.2332 1.75 6.09586 1.75ZM4.95168 8.5754H4.21944C1.06157 8.5754 1.29035 2.81372 4.08217 2.81372H4.99751V8.5754H4.95168Z" fill="#EA9309"/>
<path d="M12.6859 5.91622H11.5876C11.496 5.91622 11.4502 5.96053 11.4502 6.04922V9.24023H9.43646V6.04922C9.43646 5.9606 9.3907 5.91622 9.29919 5.91622H8.24652C8.15501 5.91622 8.10925 5.96053 8.10925 6.04922V14.1599C8.10925 14.2485 8.15501 14.2928 8.24652 14.2928H9.34495C9.43646 14.2928 9.48229 14.2485 9.48229 14.1599V10.2596H11.496V14.1599C11.496 14.2485 11.5417 14.2928 11.6333 14.2928H12.7317C12.8232 14.2928 12.869 14.2485 12.869 14.1599V6.04922C12.8233 5.9606 12.7774 5.91622 12.6859 5.91622ZM37.4 13.1849C37.4 13.1405 37.3543 13.1405 37.3085 13.1405C36.8508 13.1405 34.059 14.4259 34.059 10.1711C34.059 8.30965 34.7913 5.69474 36.5304 7.24594C36.5762 7.29025 36.6219 7.29025 36.6677 7.29025C36.7135 7.29025 36.7592 7.24594 36.805 7.15732L37.2627 6.40384C37.3084 6.35953 37.3084 6.31522 37.3084 6.27091C37.3084 6.18229 37.2169 6.13791 37.1254 6.0936C34.1048 4.63103 32.5487 7.33456 32.5487 10.4813C32.5487 14.5588 35.6151 15.135 37.3542 13.894C37.4457 13.8497 37.4457 13.761 37.4457 13.7168L37.4 13.1849ZM29.8943 9.68354L31.9995 6.00498C32.0453 5.9606 31.9995 5.87198 31.9538 5.87198H30.9011C30.5807 5.87198 30.4892 5.9606 30.3976 6.18222C30.3061 6.40384 28.7501 9.55061 28.567 9.68354V6.00491C28.567 5.96053 28.5212 5.87191 28.4755 5.87191H27.3313C27.2855 5.87191 27.2398 5.91622 27.2398 6.00491V14.1599C27.2398 14.2042 27.2855 14.2928 27.3313 14.2928H28.4755C28.567 14.2928 28.567 14.2485 28.567 14.1599V9.9494C28.7043 10.038 30.6265 13.894 30.6723 14.0269C30.7638 14.2041 30.9469 14.2928 31.1757 14.2928H32.3199C32.4114 14.2928 32.4114 14.2485 32.3657 14.1599L29.8943 9.68354ZM19.8713 13.2292H19.6424C19.3679 13.2292 19.3221 13.1406 19.3221 12.9189V6.00491C19.3221 5.91629 19.2763 5.87191 19.2306 5.87191H15.7065C15.615 5.87191 15.5692 5.91622 15.5692 6.00491C15.5692 7.86634 15.615 10.9688 14.3335 13.2292H13.9674C13.8759 13.2292 13.8301 13.2735 13.8301 13.3621V15.7997C13.8301 15.8883 13.9216 15.9327 13.9674 15.9327H14.7912C14.9742 15.9327 15.0658 15.7997 15.0658 15.6668V14.2928H18.7729V15.7997C18.7729 15.8441 18.8187 15.9327 18.9102 15.9327H19.8255C19.9171 15.9327 20.0544 15.8441 20.0544 15.6668V13.3621C20.0086 13.2735 19.9629 13.2292 19.8714 13.2292L19.8713 13.2292ZM17.9491 13.2292H15.3861C16.1184 12.0769 16.8049 10.2155 16.8049 6.9357H17.9491L17.9491 13.2292ZM23.4411 5.69474C21.5647 5.69474 20.6951 7.95503 20.6951 10.4369C20.6951 14.5145 23.6242 15.135 25.6379 13.9383C25.7294 13.894 25.7294 13.8497 25.7294 13.8054L25.5921 13.2292C25.5921 13.1849 25.5464 13.1406 25.4549 13.1406C24.7226 13.1406 22.1597 14.3815 22.1597 10.3484C23.075 10.437 23.075 10.437 25.821 10.437C25.7752 8.39827 25.5465 5.69474 23.4411 5.69474ZM22.2055 9.41747C22.2055 6.18208 24.4023 5.5616 24.4023 9.32885C23.4412 9.32885 23.0293 9.32885 22.2055 9.41747Z" fill="#EA9309"/>
</g>
<path d="M51.296 12L49.416 6.992H49.384C49.3947 7.09867 49.4027 7.23467 49.408 7.4C49.4187 7.56533 49.4267 7.74667 49.432 7.944C49.4373 8.136 49.44 8.33333 49.44 8.536V12H48.776V6.288H49.84L51.6 10.968H51.632L53.424 6.288H54.48V12H53.768V8.488C53.768 8.30133 53.7707 8.11733 53.776 7.936C53.7813 7.74933 53.7893 7.576 53.8 7.416C53.8107 7.25067 53.8187 7.112 53.824 7H53.792L51.888 12H51.296ZM57.4018 7.64C57.9245 7.64 58.3111 7.75467 58.5618 7.984C58.8125 8.21333 58.9378 8.57867 58.9378 9.08V12H58.4258L58.2898 11.392H58.2578C58.1351 11.5467 58.0071 11.6773 57.8738 11.784C57.7458 11.8853 57.5965 11.96 57.4258 12.008C57.2605 12.056 57.0578 12.08 56.8178 12.08C56.5618 12.08 56.3298 12.0347 56.1218 11.944C55.9191 11.8533 55.7591 11.7147 55.6418 11.528C55.5245 11.336 55.4658 11.096 55.4658 10.808C55.4658 10.3813 55.6338 10.0533 55.9698 9.824C56.3058 9.58933 56.8231 9.46133 57.5218 9.44L58.2498 9.416V9.16C58.2498 8.80267 58.1725 8.55467 58.0178 8.416C57.8631 8.27733 57.6445 8.208 57.3618 8.208C57.1378 8.208 56.9245 8.24267 56.7218 8.312C56.5191 8.376 56.3298 8.45067 56.1538 8.536L55.9378 8.008C56.1245 7.90667 56.3458 7.82133 56.6018 7.752C56.8578 7.67733 57.1245 7.64 57.4018 7.64ZM57.6098 9.928C57.0765 9.94933 56.7058 10.0347 56.4978 10.184C56.2951 10.3333 56.1938 10.544 56.1938 10.816C56.1938 11.056 56.2658 11.232 56.4098 11.344C56.5591 11.456 56.7485 11.512 56.9778 11.512C57.3405 11.512 57.6418 11.4133 57.8818 11.216C58.1218 11.0133 58.2418 10.704 58.2418 10.288V9.904L57.6098 9.928ZM62.1422 7.632C62.6702 7.632 63.0942 7.816 63.4142 8.184C63.7395 8.552 63.9022 9.10667 63.9022 9.848C63.9022 10.3333 63.8275 10.744 63.6782 11.08C63.5342 11.4107 63.3289 11.6613 63.0622 11.832C62.8009 11.9973 62.4915 12.08 62.1342 12.08C61.9155 12.08 61.7209 12.0507 61.5502 11.992C61.3795 11.9333 61.2329 11.8587 61.1102 11.768C60.9929 11.672 60.8915 11.568 60.8062 11.456H60.7582C60.7689 11.5467 60.7795 11.6613 60.7902 11.8C60.8009 11.9387 60.8062 12.0587 60.8062 12.16V13.92H60.1022V7.712H60.6782L60.7742 8.296H60.8062C60.8915 8.17333 60.9929 8.06133 61.1102 7.96C61.2329 7.85867 61.3769 7.77867 61.5422 7.72C61.7129 7.66133 61.9129 7.632 62.1422 7.632ZM62.0142 8.224C61.7262 8.224 61.4942 8.28 61.3182 8.392C61.1422 8.49867 61.0142 8.66133 60.9342 8.88C60.8542 9.09867 60.8115 9.376 60.8062 9.712V9.848C60.8062 10.2 60.8435 10.4987 60.9182 10.744C60.9929 10.9893 61.1182 11.176 61.2942 11.304C61.4755 11.432 61.7209 11.496 62.0302 11.496C62.2915 11.496 62.5049 11.424 62.6702 11.28C62.8409 11.136 62.9662 10.9413 63.0462 10.696C63.1315 10.4453 63.1742 10.16 63.1742 9.84C63.1742 9.34933 63.0782 8.95733 62.8862 8.664C62.6995 8.37067 62.4089 8.224 62.0142 8.224ZM67.4001 7.712H68.1681L66.3361 9.776L68.3201 12H67.5041L65.5681 9.824V12H64.8641V7.712H65.5681V9.792L67.4001 7.712ZM70.4382 7.632C70.8062 7.632 71.1209 7.712 71.3822 7.872C71.6489 8.032 71.8515 8.25867 71.9902 8.552C72.1342 8.84 72.2062 9.17867 72.2062 9.568V9.992H69.2702C69.2809 10.4773 69.4035 10.848 69.6382 11.104C69.8782 11.3547 70.2115 11.48 70.6382 11.48C70.9102 11.48 71.1502 11.456 71.3582 11.408C71.5715 11.3547 71.7902 11.28 72.0142 11.184V11.8C71.7955 11.896 71.5795 11.9653 71.3662 12.008C71.1529 12.056 70.8995 12.08 70.6062 12.08C70.2009 12.08 69.8409 11.9973 69.5262 11.832C69.2169 11.6667 68.9742 11.4213 68.7982 11.096C68.6275 10.7653 68.5422 10.3627 68.5422 9.888C68.5422 9.41867 68.6195 9.016 68.7742 8.68C68.9342 8.344 69.1555 8.08533 69.4382 7.904C69.7262 7.72267 70.0595 7.632 70.4382 7.632ZM70.4302 8.208C70.0942 8.208 69.8275 8.31733 69.6302 8.536C69.4382 8.74933 69.3235 9.048 69.2862 9.432H71.4702C71.4702 9.18667 71.4329 8.97333 71.3582 8.792C71.2835 8.61067 71.1689 8.46933 71.0142 8.368C70.8649 8.26133 70.6702 8.208 70.4302 8.208ZM76.0978 8.304H74.6978V12H74.0018V8.304H72.6178V7.712H76.0978V8.304Z" fill="#EA9309"/>
<path d="M43.5 0.5H81.257L86.4152 9.10283L81.2604 17.5H43.5V0.5Z" stroke="#EA9309"/>
</g>
<defs>
<clipPath id="clip0_44_71">
<rect width="37.5" height="14.25" fill="white" transform="translate(0 1.75)"/>
</clipPath>
</defs>
</svg>
