<svg width="98" height="28" viewBox="0 0 98 28" fill="none" xmlns="http://www.w3.org/2000/svg">
<g opacity="0.6">
<path d="M48.5 17L49.7348 20.8004H53.7308L50.498 23.1492L51.7328 26.9496L48.5 24.6008L45.2672 26.9496L46.502 23.1492L43.2692 20.8004H47.2652L48.5 17Z" fill="#EA9309"/>
<path d="M59.5 17L60.7348 20.8004H64.7308L61.498 23.1492L62.7328 26.9496L59.5 24.6008L56.2672 26.9496L57.502 23.1492L54.2692 20.8004H58.2652L59.5 17Z" fill="#EA9309"/>
<path d="M70.5 17L71.7348 20.8004H75.7308L72.498 23.1492L73.7328 26.9496L70.5 24.6008L67.2672 26.9496L68.502 23.1492L65.2692 20.8004H69.2652L70.5 17Z" fill="#EA9309"/>
<path d="M81.5 17L82.7348 20.8004H86.7308L83.498 23.1492L84.7328 26.9496L81.5 24.6008L78.2672 26.9496L79.502 23.1492L76.2692 20.8004H80.2652L81.5 17Z" fill="#EA9309"/>
<path d="M92.5 17L93.7348 20.8004H97.7308L94.498 23.1492L95.7328 26.9496L92.5 24.6008L89.2672 26.9496L90.502 23.1492L87.2692 20.8004H91.2652L92.5 17Z" fill="#EA9309"/>
<path d="M52.574 6.574C53.414 6.574 54.026 6.739 54.41 7.069C54.794 7.399 54.986 7.864 54.986 8.464C54.986 8.728 54.941 8.983 54.851 9.229C54.767 9.469 54.626 9.685 54.428 9.877C54.23 10.069 53.966 10.222 53.636 10.336C53.306 10.444 52.901 10.498 52.421 10.498H51.683V13H50.873V6.574H52.574ZM52.502 7.267H51.683V9.805H52.331C52.739 9.805 53.078 9.763 53.348 9.679C53.618 9.589 53.819 9.448 53.951 9.256C54.083 9.064 54.149 8.812 54.149 8.5C54.149 8.086 54.017 7.777 53.753 7.573C53.489 7.369 53.072 7.267 52.502 7.267ZM58.6172 8.086C59.0312 8.086 59.3852 8.176 59.6792 8.356C59.9792 8.536 60.2072 8.791 60.3632 9.121C60.5252 9.445 60.6062 9.826 60.6062 10.264V10.741H57.3032C57.3152 11.287 57.4532 11.704 57.7172 11.992C57.9872 12.274 58.3622 12.415 58.8422 12.415C59.1482 12.415 59.4182 12.388 59.6522 12.334C59.8922 12.274 60.1382 12.19 60.3902 12.082V12.775C60.1442 12.883 59.9012 12.961 59.6612 13.009C59.4212 13.063 59.1362 13.09 58.8062 13.09C58.3502 13.09 57.9452 12.997 57.5912 12.811C57.2432 12.625 56.9702 12.349 56.7722 11.983C56.5802 11.611 56.4842 11.158 56.4842 10.624C56.4842 10.096 56.5712 9.643 56.7452 9.265C56.9252 8.887 57.1742 8.596 57.4922 8.392C57.8162 8.188 58.1912 8.086 58.6172 8.086ZM58.6082 8.734C58.2302 8.734 57.9302 8.857 57.7082 9.103C57.4922 9.343 57.3632 9.679 57.3212 10.111H59.7782C59.7782 9.835 59.7362 9.595 59.6522 9.391C59.5682 9.187 59.4392 9.028 59.2652 8.914C59.0972 8.794 58.8782 8.734 58.6082 8.734ZM66.2803 6.178C66.2563 6.478 66.1813 6.73 66.0553 6.934C65.9353 7.138 65.7553 7.291 65.5153 7.393C65.2753 7.495 64.9633 7.546 64.5793 7.546C64.1893 7.546 63.8743 7.495 63.6343 7.393C63.4003 7.291 63.2293 7.141 63.1213 6.943C63.0133 6.739 62.9473 6.484 62.9233 6.178H63.6613C63.6913 6.502 63.7753 6.721 63.9133 6.835C64.0573 6.943 64.2853 6.997 64.5973 6.997C64.8733 6.997 65.0893 6.94 65.2453 6.826C65.4073 6.706 65.5033 6.49 65.5333 6.178H66.2803ZM63.1213 11.119C63.1213 11.173 63.1183 11.251 63.1123 11.353C63.1123 11.449 63.1093 11.554 63.1033 11.668C63.0973 11.776 63.0913 11.881 63.0853 11.983C63.0793 12.079 63.0733 12.157 63.0673 12.217L65.6503 8.176H66.6223V13H65.8843V10.156C65.8843 10.06 65.8843 9.934 65.8843 9.778C65.8903 9.622 65.8963 9.469 65.9023 9.319C65.9083 9.163 65.9143 9.046 65.9203 8.968L63.3553 13H62.3743V8.176H63.1213V11.119ZM72.0275 8.842H70.4525V13H69.6695V8.842H68.1125V8.176H72.0275V8.842ZM74.2648 11.119C74.2648 11.173 74.2618 11.251 74.2558 11.353C74.2558 11.449 74.2528 11.554 74.2468 11.668C74.2408 11.776 74.2348 11.881 74.2288 11.983C74.2228 12.079 74.2168 12.157 74.2108 12.217L76.7938 8.176H77.7658V13H77.0278V10.156C77.0278 10.06 77.0278 9.934 77.0278 9.778C77.0338 9.622 77.0398 9.469 77.0458 9.319C77.0518 9.163 77.0578 9.046 77.0638 8.968L74.4988 13H73.5178V8.176H74.2648V11.119ZM80.633 8.176V10.183H83.252V8.176H84.044V13H83.252V10.849H80.633V13H79.841V8.176H80.633ZM89.0544 8.176V8.842H86.9034V13H86.1114V8.176H89.0544Z" fill="#EA9309"/>
<g clip-path="url(#clip0_44_72)">
<path d="M6.01433 10H4.07264C2.13088 10 0.460131 11.3934 0.460131 14.093C0.460131 15.7041 1.2729 16.9233 2.67277 17.5329L0.0536773 22.0614C-0.0366137 22.1921 0.0536773 22.3226 0.189186 22.3226H1.4084C1.4987 22.3226 1.58899 22.2791 1.63413 22.192L4.02749 17.7506H4.8854V22.192C4.8854 22.2356 4.93062 22.3226 5.02091 22.3226H6.10469C6.19499 22.3226 6.24013 22.2791 6.24013 22.192V10.1741C6.19499 10.0435 6.14984 10 6.01433 10ZM4.8854 16.7057H4.16293C1.04717 16.7057 1.2729 11.0451 4.02749 11.0451H4.93062V16.7057H4.8854Z" fill="#EA9309"/>
<path d="M12.5167 14.0931H11.433C11.3427 14.0931 11.2975 14.1366 11.2975 14.2237V17.3588H9.31061V14.2237C9.31061 14.1367 9.26546 14.0931 9.17517 14.0931H8.13654C8.04624 14.0931 8.0011 14.1366 8.0011 14.2237V22.1921C8.0011 22.2792 8.04624 22.3227 8.13654 22.3227H9.22032C9.31061 22.3227 9.35583 22.2792 9.35583 22.1921V18.3603H11.3427V22.1921C11.3427 22.2792 11.3878 22.3227 11.4782 22.3227H12.5619C12.6522 22.3227 12.6974 22.2792 12.6974 22.1921V14.2237C12.6522 14.1367 12.607 14.0931 12.5167 14.0931ZM36.9013 21.2342C36.9013 21.1907 36.8562 21.1907 36.811 21.1907C36.3594 21.1907 33.6049 22.4535 33.6049 18.2733C33.6049 16.4445 34.3274 13.8755 36.0433 15.3995C36.0885 15.443 36.1336 15.443 36.1788 15.443C36.2239 15.443 36.2691 15.3995 36.3143 15.3124L36.7658 14.5721C36.8109 14.5286 36.8109 14.4851 36.8109 14.4416C36.8109 14.3545 36.7207 14.3109 36.6304 14.2674C33.65 12.8304 32.1147 15.4865 32.1147 18.5781C32.1147 22.584 35.1402 23.1501 36.8561 21.9309C36.9464 21.8874 36.9464 21.8003 36.9464 21.7568L36.9013 21.2342ZM29.4956 17.7943L31.5728 14.1803C31.618 14.1367 31.5728 14.0496 31.5277 14.0496H30.4891C30.173 14.0496 30.0827 14.1367 29.9923 14.3544C29.902 14.5721 28.3667 17.6637 28.1861 17.7943V14.1802C28.1861 14.1366 28.1409 14.0496 28.0958 14.0496H26.9668C26.9217 14.0496 26.8766 14.0931 26.8766 14.1802V22.1921C26.8766 22.2357 26.9217 22.3227 26.9668 22.3227H28.0958C28.1861 22.3227 28.1861 22.2792 28.1861 22.1921V18.0555C28.3216 18.1426 30.2181 21.9309 30.2633 22.0615C30.3535 22.2356 30.5342 22.3227 30.76 22.3227H31.8889C31.9792 22.3227 31.9792 22.2792 31.9341 22.1921L29.4956 17.7943ZM19.6063 21.2778H19.3805C19.1096 21.2778 19.0644 21.1907 19.0644 20.9729V14.1802C19.0644 14.0932 19.0193 14.0496 18.9741 14.0496H15.4971C15.4068 14.0496 15.3616 14.0931 15.3616 14.1802C15.3616 16.009 15.4068 19.057 14.1423 21.2777H13.7812C13.6909 21.2777 13.6457 21.3213 13.6457 21.4083V23.8032C13.6457 23.8902 13.736 23.9338 13.7812 23.9338H14.5939C14.7745 23.9338 14.8649 23.8032 14.8649 23.6726V22.3227H18.5226V23.8032C18.5226 23.8468 18.5678 23.9338 18.658 23.9338H19.5612C19.6515 23.9338 19.787 23.8468 19.787 23.6726V21.4083C19.7418 21.3213 19.6967 21.2777 19.6064 21.2777L19.6063 21.2778ZM17.7098 21.2778H15.1809C15.9034 20.1457 16.5808 18.3169 16.5808 15.0947H17.7097L17.7098 21.2778ZM23.1285 13.8755C21.2771 13.8755 20.4192 16.0961 20.4192 18.5345C20.4192 22.5405 23.3092 23.1501 25.296 21.9745C25.3863 21.9309 25.3863 21.8874 25.3863 21.8439L25.2509 21.2778C25.2509 21.2342 25.2057 21.1907 25.1154 21.1907C24.3929 21.1907 21.8642 22.4098 21.8642 18.4475C22.7673 18.5346 22.7673 18.5346 25.4767 18.5346C25.4315 16.5316 25.2058 13.8755 23.1285 13.8755ZM21.9094 17.5329C21.9094 14.3543 24.0769 13.7447 24.0769 17.4458C23.1286 17.4458 22.7222 17.4458 21.9094 17.5329Z" fill="#EA9309"/>
</g>
</g>
<defs>
<clipPath id="clip0_44_72">
<rect width="37" height="14" fill="white" transform="translate(0 10)"/>
</clipPath>
</defs>
</svg>
