<svg width="8" height="8" viewBox="0 0 8 8" fill="none" xmlns="http://www.w3.org/2000/svg">
<path d="M0.646447 6.30318C0.451184 6.49845 0.451184 6.81503 0.646447 7.01029C0.841709 7.20555 1.15829 7.20555 1.35355 7.01029L0.646447 6.30318ZM7.15685 0.999884C7.15685 0.723742 6.933 0.499884 6.65685 0.499884L2.15685 0.499884C1.88071 0.499884 1.65685 0.723742 1.65685 0.999884C1.65685 1.27603 1.88071 1.49988 2.15685 1.49988L6.15685 1.49988L6.15685 5.49988C6.15685 5.77603 6.38071 5.99988 6.65685 5.99988C6.933 5.99988 7.15685 5.77603 7.15685 5.49988L7.15685 0.999884ZM1.35355 7.01029L7.01041 1.35344L6.3033 0.646331L0.646447 6.30318L1.35355 7.01029Z" fill="#B9201F"/>
</svg>
