<svg width="18" height="18" viewBox="0 0 18 18" fill="none" xmlns="http://www.w3.org/2000/svg">
<path d="M6.60001 13.8C6.27 13.8 6 14.07 6 14.4001C6 14.7301 6.27 15.0001 6.60001 15.0001C6.93002 15.0001 7.20002 14.7301 7.20002 14.4001C7.20002 14.07 6.93002 13.8 6.60001 13.8Z" fill="#666666"/>
<path d="M14.4008 13.8C14.0708 13.8 13.8008 14.07 13.8008 14.4001C13.8008 14.7301 14.0708 15.0001 14.4008 15.0001C14.7308 15.0001 15.0008 14.7301 15.0008 14.4001C15.0008 14.07 14.7308 13.8 14.4008 13.8Z" fill="#666666"/>
<path d="M13.5016 11.7H12.9016C12.7216 11.7 12.6016 11.8199 12.6016 11.9999C12.6016 12.1799 12.7216 12.2999 12.9016 12.2999H13.5016C13.6816 12.2999 13.8016 12.1799 13.8016 11.9999C13.8016 11.8199 13.6816 11.7 13.5016 11.7Z" fill="#666666"/>
<path d="M9 8.69995H4.79999C4.61999 8.69995 4.5 8.81994 4.5 8.99994C4.5 9.17994 4.61999 9.29993 4.79999 9.29993H9C9.18 9.29993 9.29999 9.17994 9.29999 8.99994C9.29999 8.81994 9.18 8.69995 9 8.69995Z" fill="#666666"/>
<path d="M17.61 11.07L16.44 10.5901L15.69 7.59007C15.6 7.17006 15.24 6.90006 14.82 6.90006H12V6.00006C12 5.67005 11.73 5.40005 11.4 5.40005H6.58645C6.59524 5.30126 6.59999 5.20124 6.59999 5.10006C6.59999 3.27007 5.13 1.80005 3.29998 1.80005C1.46999 1.80005 0 3.27004 0 5.10006C0 6.82887 1.312 8.23614 2.99999 8.3865V10.5001V14.1001C2.99999 14.4301 3.26999 14.7001 3.6 14.7001H4.82565C4.96962 15.5485 5.71219 16.2001 6.59999 16.2001C7.48779 16.2001 8.23036 15.5485 8.37432 14.7001H12.6257C12.7696 15.5485 13.5122 16.2001 14.4 16.2001C15.2878 16.2001 16.0304 15.5485 16.1743 14.7001H17.4C17.73 14.7001 18 14.4301 18 14.1001V11.6401C18 11.37 17.85 11.16 17.61 11.07ZM11.4 7.20005V7.50004C11.4 9.00005 10.2 10.2 8.70001 10.2H3.6V8.40004C3.85784 8.37138 4.10906 8.31408 4.34939 8.23122C4.81075 8.07787 5.22601 7.82594 5.57054 7.50004H9.60001C9.78001 7.50004 9.9 7.38005 9.9 7.20005C9.9 7.02005 9.78001 6.90006 9.60001 6.90006H6.07479C6.25282 6.62767 6.39116 6.32582 6.48 6.00006H11.4V7.20005ZM0.600012 5.10006C0.600012 3.60005 1.8 2.40006 3.30001 2.40006C4.80002 2.40006 6.00001 3.60005 6.00001 5.10006C6.00001 5.2654 5.98461 5.4268 5.95666 5.58367C5.94967 5.60139 5.94397 5.62016 5.94 5.64006C5.87584 5.97689 5.74903 6.2876 5.57371 6.56267C5.56376 6.57821 5.5542 6.59399 5.54393 6.60928C5.53855 6.61733 5.53278 6.6251 5.52734 6.63312C5.50842 6.66065 5.4893 6.68803 5.4694 6.71479C5.46546 6.7201 5.46135 6.7253 5.45734 6.73057C5.43558 6.75944 5.41336 6.78791 5.39047 6.81583C5.38678 6.82036 5.38298 6.82483 5.37922 6.82933C5.35581 6.85752 5.33183 6.88526 5.30729 6.91244C5.30343 6.91672 5.29952 6.92101 5.29559 6.9253C5.29481 6.92615 5.294 6.92692 5.29327 6.92776C5.23107 6.95554 5.18386 7.00317 5.15661 7.06579C5.14684 7.075 5.13735 7.08453 5.12743 7.0936C5.12343 7.09725 5.11952 7.10105 5.11552 7.10467C5.08665 7.13079 5.05716 7.15624 5.02717 7.1811C5.02471 7.1831 5.02239 7.18525 5.01993 7.18725C4.98797 7.21355 4.95534 7.23911 4.92216 7.26393C4.91045 7.27265 4.89839 7.28087 4.88654 7.28942C4.8665 7.3039 4.84643 7.31842 4.82597 7.33238C4.80593 7.34598 4.7855 7.35906 4.76508 7.37214C4.7526 7.38015 4.74019 7.38828 4.72757 7.39612C4.70408 7.41063 4.68028 7.42466 4.65634 7.43844C4.64678 7.44396 4.63721 7.44948 4.62758 7.4549C4.60132 7.46959 4.57481 7.4839 4.54802 7.49775C4.54106 7.50137 4.53407 7.50489 4.52704 7.50844C4.49775 7.52324 4.46822 7.53769 4.43834 7.55147C4.43528 7.55288 4.43218 7.55421 4.42912 7.55562C4.26361 7.6311 4.0893 7.69013 3.9086 7.73137C3.89897 7.73354 3.88937 7.7359 3.87967 7.73797C3.8526 7.74385 3.82528 7.74908 3.79793 7.75415C3.78281 7.75692 3.76766 7.75967 3.75247 7.7622C3.72825 7.76624 3.70396 7.76997 3.67956 7.77338C3.65998 7.77608 3.64029 7.77851 3.62057 7.7808C3.59926 7.78329 3.57796 7.78579 3.55651 7.78779C3.5312 7.79015 3.50571 7.79187 3.48022 7.79352C3.46345 7.79461 3.44675 7.79602 3.42988 7.79683C3.38681 7.79883 3.34354 7.80006 3.29994 7.80006C1.8 7.80006 0.600012 6.60004 0.600012 5.10006ZM6.59999 15.6C5.94 15.6 5.4 15.06 5.4 14.4C5.4 13.7401 5.94 13.2001 6.59999 13.2001C7.25998 13.2001 7.79998 13.7401 7.79998 14.4C7.80001 15.06 7.26001 15.6 6.59999 15.6ZM14.4 15.6C13.74 15.6 13.2 15.06 13.2 14.4C13.2 13.7401 13.74 13.2001 14.4 13.2001C15.06 13.2001 15.6 13.7401 15.6 14.4C15.6 15.06 15.06 15.6 14.4 15.6ZM17.4 14.1001H16.1743C16.0731 13.5031 15.6754 13.004 15.1392 12.7604C15.1273 12.7549 15.1155 12.7494 15.1034 12.7442C15.0959 12.7409 15.0883 12.738 15.0807 12.7349C15.0612 12.7268 15.0417 12.7189 15.0219 12.7116C15.0165 12.7096 15.0111 12.7078 15.0057 12.7059C14.9838 12.6979 14.9616 12.6903 14.9392 12.6832C14.9343 12.6817 14.9295 12.6802 14.9246 12.6788C14.9018 12.6718 14.8788 12.6652 14.8556 12.6591C14.8505 12.6577 14.8454 12.6564 14.8402 12.6551C14.8174 12.6493 14.7945 12.644 14.7713 12.6391C14.7654 12.6379 14.7596 12.6366 14.7538 12.6355C14.7315 12.631 14.7089 12.6269 14.6862 12.6233C14.6795 12.6222 14.6728 12.621 14.6661 12.62C14.6443 12.6167 14.6222 12.614 14.6001 12.6116C14.5926 12.6107 14.5852 12.6098 14.5776 12.609C14.5555 12.6068 14.5332 12.6052 14.5109 12.6038C14.5035 12.6034 14.4962 12.6027 14.4888 12.6023C14.4594 12.6009 14.4297 12.6 14.3999 12.6C14.37 12.6 14.3404 12.6009 14.311 12.6023C14.3036 12.6027 14.2963 12.6034 14.2889 12.6038C14.2665 12.6052 14.2443 12.6068 14.2221 12.609C14.2146 12.6097 14.2072 12.6107 14.1997 12.6116C14.1776 12.614 14.1555 12.6168 14.1337 12.62C14.1269 12.621 14.1203 12.6222 14.1135 12.6233C14.0908 12.6269 14.0683 12.631 14.046 12.6354C14.0401 12.6366 14.0343 12.6378 14.0285 12.6391C14.0053 12.644 13.9824 12.6493 13.9596 12.6551C13.9545 12.6564 13.9493 12.6577 13.9442 12.659C13.921 12.6652 13.898 12.6717 13.8752 12.6788C13.8703 12.6802 13.8655 12.6817 13.8606 12.6832C13.8382 12.6903 13.8161 12.6979 13.794 12.7059C13.7887 12.7078 13.7833 12.7096 13.778 12.7116C13.7582 12.719 13.7386 12.7269 13.7191 12.7349C13.7115 12.7381 13.7039 12.741 13.6964 12.7442C13.6844 12.7494 13.6725 12.755 13.6606 12.7605C13.1245 13.0041 12.7268 13.5032 12.6256 14.1001H8.37432C8.27304 13.5032 7.87546 13.0041 7.33936 12.7605C7.32741 12.755 7.31556 12.7494 7.30346 12.7442C7.29598 12.741 7.28835 12.7381 7.28079 12.7349C7.26131 12.7269 7.24173 12.719 7.2219 12.7116C7.21659 12.7096 7.21118 12.7078 7.20584 12.7059C7.18383 12.6979 7.16164 12.6903 7.13925 12.6832C7.13443 12.6817 7.12955 12.6803 7.1247 12.6788C7.10191 12.6718 7.07892 12.6652 7.05572 12.659C7.05059 12.6577 7.04545 12.6564 7.04029 12.6551C7.0175 12.6493 6.99455 12.644 6.97138 12.6391C6.96554 12.6378 6.95974 12.6366 6.95391 12.6354C6.93155 12.6309 6.90901 12.6269 6.88634 12.6233C6.87962 12.6222 6.87294 12.621 6.86619 12.62C6.84436 12.6167 6.82232 12.614 6.8002 12.6115C6.79271 12.6107 6.78526 12.6097 6.77774 12.6089C6.75563 12.6068 6.73334 12.6052 6.71098 12.6038C6.70359 12.6034 6.69632 12.6026 6.6889 12.6023C6.65947 12.6009 6.62984 12.6 6.59999 12.6C6.57014 12.6 6.5405 12.6009 6.51108 12.6023C6.5037 12.6026 6.49638 12.6034 6.489 12.6038C6.46664 12.6052 6.44435 12.6068 6.42224 12.6089C6.41471 12.6097 6.40726 12.6107 6.39977 12.6115C6.37766 12.614 6.35562 12.6167 6.33379 12.62C6.32703 12.621 6.32036 12.6222 6.31364 12.6233C6.29096 12.6269 6.26843 12.6309 6.24607 12.6354C6.24023 12.6366 6.2344 12.6378 6.2286 12.6391C6.20543 12.644 6.18247 12.6493 6.15969 12.6551C6.15456 12.6564 6.14939 12.6577 6.14426 12.659C6.12105 12.6652 6.0981 12.6717 6.07528 12.6787C6.07043 12.6802 6.06554 12.6816 6.06069 12.6832C6.0383 12.6903 6.01615 12.6979 5.99414 12.7058C5.98876 12.7078 5.98335 12.7096 5.978 12.7116C5.95821 12.7189 5.93866 12.7268 5.91922 12.7348C5.91163 12.738 5.90396 12.7409 5.89644 12.7441C5.88442 12.7493 5.87261 12.7549 5.86069 12.7604C5.32448 13.004 4.92683 13.5031 4.82555 14.1H3.6V10.8H8.70001C10.53 10.8 12 9.33006 12 7.50004H14.82C14.97 7.50004 15.09 7.62003 15.12 7.74005L15.8034 10.5001H13.59C13.38 10.5001 13.2 10.3201 13.2 10.1101V8.70006C13.2 8.52006 13.08 8.40007 12.9 8.40007C12.72 8.40007 12.6 8.52006 12.6 8.70006V10.1101C12.6 10.6501 13.05 11.1001 13.59 11.1001H16.08L17.4001 11.6101V14.1001H17.4Z" fill="#666666"/>
<path d="M4.19999 5.39998C4.37999 5.39998 4.49998 5.27999 4.49998 5.09999C4.49998 4.91999 4.37999 4.8 4.19999 4.8H3.59998V3.29999C3.59998 3.11999 3.47999 3 3.29999 3C3.11999 3 3 3.11999 3 3.29999V5.09999C3 5.27999 3.11999 5.39998 3.29999 5.39998H4.19999Z" fill="#666666"/>
</svg>
