<svg width="22" height="21" viewBox="0 0 22 21" fill="none" xmlns="http://www.w3.org/2000/svg">
<g clip-path="url(#clip0_135_18799)">
<path d="M21.9996 20.0334H0V21.0001H21.9996V20.0334Z" fill="#666666"/>
<path d="M4.11662 13.75H0.733328C0.46641 13.75 0.25 13.9664 0.25 14.2333V18.5833C0.25 18.8502 0.46641 19.0666 0.733328 19.0666H4.11662C4.38354 19.0666 4.59995 18.8502 4.59995 18.5833V14.2333C4.59995 13.9664 4.38354 13.75 4.11662 13.75ZM3.63329 18.0999H1.21666V14.7167H3.63329V18.0999Z" fill="#666666"/>
<path d="M9.43302 11.3335H6.04973C5.78282 11.3335 5.56641 11.5499 5.56641 11.8168V18.5834C5.56641 18.8503 5.78282 19.0667 6.04973 19.0667H9.43302C9.69994 19.0667 9.91635 18.8503 9.91635 18.5834V11.8168C9.91635 11.5499 9.69994 11.3335 9.43302 11.3335ZM8.9497 18.1001H6.53306V12.3002H8.9497V18.1001Z" fill="#666666"/>
<path d="M14.7494 7.9502H11.3661C11.0992 7.9502 10.8828 8.16661 10.8828 8.43352V18.5834C10.8828 18.8503 11.0992 19.0667 11.3661 19.0667H14.7494C15.0163 19.0667 15.2328 18.8503 15.2328 18.5834V8.43352C15.2328 8.16661 15.0163 7.9502 14.7494 7.9502ZM14.2661 18.1001H11.8495V8.91685H14.2661V18.1001Z" fill="#666666"/>
<path d="M20.0658 1.18359H16.6825C16.4156 1.18359 16.1992 1.4 16.1992 1.66692V18.5834C16.1992 18.8503 16.4156 19.0667 16.6825 19.0667H20.0658C20.3328 19.0667 20.5492 18.8503 20.5492 18.5834V1.66692C20.5492 1.4 20.3328 1.18359 20.0658 1.18359ZM19.5825 18.1H17.1659V2.15025H19.5825V18.1Z" fill="#666666"/>
</g>
<defs>
<clipPath id="clip0_135_18799">
<rect width="22" height="21" fill="white"/>
</clipPath>
</defs>
</svg>
