<svg width="45" height="45" viewBox="0 0 45 45" fill="none" xmlns="http://www.w3.org/2000/svg">
<path d="M1.65 25.6057C1.55188 25.8064 1.50059 26.0267 1.5 26.25V27.75C1.5 28.1478 1.65804 28.5294 1.93934 28.8107C2.22064 29.092 2.60218 29.25 3 29.25H4.5195C4.02315 29.8953 3.75276 30.6859 3.75 31.5C3.74773 32.2885 3.99482 33.0576 4.45594 33.6972C4.91707 34.3368 5.56862 34.8143 6.31745 35.0613C7.06628 35.3083 7.87404 35.3123 8.62524 35.0726C9.37645 34.8329 10.0326 34.3618 10.5 33.7268C10.929 34.3102 11.5182 34.7565 12.1961 35.0114C12.874 35.2662 13.6113 35.3186 14.3184 35.1621C15.0255 35.0057 15.6719 34.6472 16.1791 34.1302C16.6862 33.6132 17.0322 32.96 17.175 32.25H21.8888C22.0433 32.6871 22.329 33.0657 22.7069 33.3342C23.0848 33.6027 23.5364 33.7479 24 33.75H30C30.4637 33.7481 30.9155 33.6029 31.2935 33.3344C31.6716 33.0659 31.9574 32.6872 32.112 32.25H33.825C33.9971 33.0977 34.457 33.8599 35.1268 34.4073C35.7966 34.9547 36.635 35.2538 37.5 35.2538C38.365 35.2538 39.2034 34.9547 39.8732 34.4073C40.543 33.8599 41.0029 33.0977 41.175 32.25H43.5C43.8978 32.25 44.2794 32.092 44.5607 31.8107C44.842 31.5294 45 31.1478 45 30.75V29.25C44.9992 28.9879 44.9295 28.7306 44.7979 28.5039C44.6662 28.2772 44.4773 28.0891 44.25 27.9585V22.98C44.2486 22.4604 44.0679 21.9573 43.7384 21.5556C43.409 21.1538 42.951 20.8781 42.4417 20.775L36.5918 19.6058L35.5282 15.8835C35.3929 15.4145 35.1093 15.0019 34.7199 14.7075C34.3306 14.413 33.8564 14.2526 33.3683 14.25H26.25C25.6533 14.25 25.081 14.4871 24.659 14.909C24.2371 15.331 24 15.9033 24 16.5V24.75H21.7305C22.2269 24.1047 22.4972 23.3141 22.5 22.5V16.5C22.4988 15.5058 22.1033 14.5527 21.4003 13.8497C20.6973 13.1467 19.7442 12.7512 18.75 12.75V12C18.75 11.4033 18.5129 10.831 18.091 10.409C17.669 9.98705 17.0967 9.75 16.5 9.75H15C14.4033 9.75 13.831 9.98705 13.409 10.409C12.9871 10.831 12.75 11.4033 12.75 12V12.75H9.75V12C9.75 11.4033 9.51295 10.831 9.09099 10.409C8.66903 9.98705 8.09674 9.75 7.5 9.75H6C5.40326 9.75 4.83097 9.98705 4.40901 10.409C3.98705 10.831 3.75 11.4033 3.75 12V12.75C2.7558 12.7512 1.80267 13.1467 1.09966 13.8497C0.396661 14.5527 0.00119089 15.5058 0 16.5L0 22.5C0.000179421 23.1131 0.150689 23.7168 0.438347 24.2583C0.726005 24.7997 1.14204 25.2624 1.65 25.6057ZM7.5 33.75C7.05499 33.75 6.61998 33.618 6.24997 33.3708C5.87996 33.1236 5.59157 32.7722 5.42127 32.361C5.25097 31.9499 5.20642 31.4975 5.29323 31.061C5.38005 30.6246 5.59434 30.2237 5.90901 29.909C6.22368 29.5943 6.62459 29.38 7.06105 29.2932C7.4975 29.2064 7.9499 29.251 8.36104 29.4213C8.77217 29.5916 9.12357 29.88 9.37081 30.25C9.61804 30.62 9.75 31.055 9.75 31.5C9.75 32.0967 9.51295 32.669 9.09099 33.091C8.66903 33.5129 8.09674 33.75 7.5 33.75ZM13.5 33.75C13.055 33.75 12.62 33.618 12.25 33.3708C11.88 33.1236 11.5916 32.7722 11.4213 32.361C11.251 31.9499 11.2064 31.4975 11.2932 31.061C11.38 30.6246 11.5943 30.2237 11.909 29.909C12.2237 29.5943 12.6246 29.38 13.061 29.2932C13.4975 29.2064 13.9499 29.251 14.361 29.4213C14.7722 29.5916 15.1236 29.88 15.3708 30.25C15.618 30.62 15.75 31.055 15.75 31.5C15.75 32.0967 15.5129 32.669 15.091 33.091C14.669 33.5129 14.0967 33.75 13.5 33.75ZM21.75 30.75H17.175C17.0593 30.2043 16.8222 29.6916 16.4813 29.25H21.8888C21.7997 29.4901 21.7527 29.7439 21.75 30V30.75ZM23.25 31.5V30C23.25 29.8011 23.329 29.6103 23.4697 29.4697C23.6103 29.329 23.8011 29.25 24 29.25H26.25V32.25H24C23.8011 32.25 23.6103 32.171 23.4697 32.0303C23.329 31.8897 23.25 31.6989 23.25 31.5ZM30.75 31.5C30.75 31.6989 30.671 31.8897 30.5303 32.0303C30.3897 32.171 30.1989 32.25 30 32.25H27.75V29.25H30C30.1989 29.25 30.3897 29.329 30.5303 29.4697C30.671 29.6103 30.75 29.8011 30.75 30V31.5ZM37.5 33.75C37.055 33.75 36.62 33.618 36.25 33.3708C35.88 33.1236 35.5916 32.7722 35.4213 32.361C35.251 31.9499 35.2064 31.4975 35.2932 31.061C35.3801 30.6246 35.5943 30.2237 35.909 29.909C36.2237 29.5943 36.6246 29.38 37.061 29.2932C37.4975 29.2064 37.9499 29.251 38.361 29.4213C38.7722 29.5916 39.1236 29.88 39.3708 30.25C39.618 30.62 39.75 31.055 39.75 31.5C39.75 32.0967 39.5129 32.669 39.091 33.091C38.669 33.5129 38.0967 33.75 37.5 33.75ZM43.5 30.75H41.175C41.0593 30.2043 40.8222 29.6916 40.4812 29.25H43.5V30.75ZM42.75 22.98V24H41.25C41.0511 24 40.8603 23.921 40.7197 23.7803C40.579 23.6397 40.5 23.4489 40.5 23.25V21.915L42.15 22.2443C42.3195 22.2789 42.4719 22.371 42.5812 22.5051C42.6906 22.6392 42.7502 22.807 42.75 22.98ZM34.089 16.2938L35.0055 19.5H30.75C30.5511 19.5 30.3603 19.421 30.2197 19.2803C30.079 19.1397 30 18.9489 30 18.75V15.75H33.3683C33.5311 15.7501 33.6896 15.8032 33.8196 15.9013C33.9496 15.9994 34.0442 16.1371 34.089 16.2938ZM26.25 15.75H28.5V18.75C28.5 19.3467 28.7371 19.919 29.159 20.341C29.581 20.7629 30.1533 21 30.75 21H35.925L39 21.615V23.25C39 23.8467 39.2371 24.419 39.659 24.841C40.081 25.2629 40.6533 25.5 41.25 25.5H42.75V27.75H37.5C36.6358 27.7511 35.7985 28.0501 35.1291 28.5965C34.4596 29.143 33.9991 29.9036 33.825 30.75H32.25V30C32.25 29.4033 32.0129 28.831 31.591 28.409C31.169 27.9871 30.5967 27.75 30 27.75H25.5V16.5C25.5 16.3011 25.579 16.1103 25.7197 15.9697C25.8603 15.829 26.0511 15.75 26.25 15.75ZM24 27.75H13.5C12.9157 27.7516 12.3399 27.8903 11.8188 28.1549C11.2978 28.4194 10.8461 28.8025 10.5 29.2732C10.1539 28.8025 9.70217 28.4194 9.18115 28.1549C8.66013 27.8903 8.08433 27.7516 7.5 27.75H3V26.25H24V27.75ZM14.25 12C14.25 11.8011 14.329 11.6103 14.4697 11.4697C14.6103 11.329 14.8011 11.25 15 11.25H16.5C16.6989 11.25 16.8897 11.329 17.0303 11.4697C17.171 11.6103 17.25 11.8011 17.25 12V12.75H14.25V12ZM5.25 12C5.25 11.8011 5.32902 11.6103 5.46967 11.4697C5.61032 11.329 5.80109 11.25 6 11.25H7.5C7.69891 11.25 7.88968 11.329 8.03033 11.4697C8.17098 11.6103 8.25 11.8011 8.25 12V12.75H5.25V12ZM1.5 16.5C1.5 15.9033 1.73705 15.331 2.15901 14.909C2.58097 14.4871 3.15326 14.25 3.75 14.25H18.75C19.3467 14.25 19.919 14.4871 20.341 14.909C20.7629 15.331 21 15.9033 21 16.5V22.5C21 23.0967 20.7629 23.669 20.341 24.091C19.919 24.5129 19.3467 24.75 18.75 24.75H3.75C3.15326 24.75 2.58097 24.5129 2.15901 24.091C1.73705 23.669 1.5 23.0967 1.5 22.5V16.5Z" fill="#666666"/>
<path d="M3.75 22.5C3.94891 22.5 4.13968 22.421 4.28033 22.2803C4.42098 22.1397 4.5 21.9489 4.5 21.75V17.25C4.5 17.0511 4.42098 16.8603 4.28033 16.7197C4.13968 16.579 3.94891 16.5 3.75 16.5C3.55109 16.5 3.36032 16.579 3.21967 16.7197C3.07902 16.8603 3 17.0511 3 17.25V21.75C3 21.9489 3.07902 22.1397 3.21967 22.2803C3.36032 22.421 3.55109 22.5 3.75 22.5Z" fill="#666666"/>
<path d="M18.75 22.5C18.9489 22.5 19.1397 22.421 19.2803 22.2803C19.421 22.1397 19.5 21.9489 19.5 21.75V17.25C19.5 17.0511 19.421 16.8603 19.2803 16.7197C19.1397 16.579 18.9489 16.5 18.75 16.5C18.5511 16.5 18.3603 16.579 18.2197 16.7197C18.079 16.8603 18 17.0511 18 17.25V21.75C18 21.9489 18.079 22.1397 18.2197 22.2803C18.3603 22.421 18.5511 22.5 18.75 22.5Z" fill="#666666"/>
</svg>
