<svg width="17" height="17" viewBox="0 0 17 17" fill="none" xmlns="http://www.w3.org/2000/svg">
<g clip-path="url(#clip0_47_243)">
<path d="M12.2216 0.269531C10.7706 0.269531 9.40439 0.930307 8.5 2.0534C7.59561 0.930307 6.22934 0.269531 4.77843 0.269531C2.14359 0.269531 0 2.41313 0 5.05012C0.00863281 6.07311 0.213529 7.0702 0.609012 8.0137C1.00449 8.9572 1.5718 9.80235 2.29517 10.5258L8.5 16.7306L14.7048 10.5257C15.4282 9.80238 15.9955 8.9572 16.391 8.01366C16.7865 7.0702 16.9914 6.07311 17 5.04793C17 2.41313 14.8564 0.269531 12.2216 0.269531ZM14.338 10.1589L8.5 15.997L2.66203 10.1589C1.29618 8.79314 0.535035 6.97723 0.518766 5.04793C0.518766 2.69914 2.42964 0.78823 4.77846 0.78823C6.17814 0.78823 7.48956 1.47829 8.28647 2.63413L8.5 2.94384L8.71356 2.63416C9.51054 1.47832 10.822 0.788264 12.2216 0.788264C14.5704 0.788264 16.4813 2.69914 16.4813 5.04573C16.465 6.97723 15.7038 8.79314 14.338 10.1589Z" fill="#333333"/>
</g>
<defs>
<clipPath id="clip0_47_243">
<rect width="17" height="17" fill="white"/>
</clipPath>
</defs>
</svg>
