<svg width="16" height="16" viewBox="0 0 16 16" fill="none" xmlns="http://www.w3.org/2000/svg">
<g clip-path="url(#clip0_138_18911)">
<path d="M8 0C3.58881 0 0 3.58881 0 8C0 12.4112 3.58881 16 8 16C12.4112 16 16 12.4112 16 8C16 3.58881 12.4112 0 8 0ZM8 15.4667C3.88281 15.4667 0.533344 12.1172 0.533344 8C0.533344 3.88281 3.88281 0.533344 8 0.533344C12.1172 0.533344 15.4667 3.88281 15.4667 8C15.4667 12.1172 12.1172 15.4667 8 15.4667Z" fill="#666666"/>
<path d="M7.99844 5.60137C8.88072 5.60137 9.59844 4.88365 9.59844 4.00137C9.59844 3.11909 8.88072 2.40137 7.99844 2.40137C7.11616 2.40137 6.39844 3.11909 6.39844 4.00137C6.39844 4.88365 7.11616 5.60137 7.99844 5.60137ZM7.99844 2.93468C8.58659 2.93468 9.06509 3.41321 9.06509 4.00134C9.06509 4.58946 8.58659 5.06802 7.99844 5.06802C7.41028 5.06802 6.93178 4.58949 6.93178 4.00137C6.93178 3.41324 7.41028 2.93468 7.99844 2.93468Z" fill="#666666"/>
<path d="M9.59947 11.9974H9.06613V6.39996C9.06613 6.25268 8.94672 6.1333 8.79947 6.1333H6.39947C6.25219 6.1333 6.13281 6.25271 6.13281 6.39996V7.46661C6.13281 7.61389 6.25222 7.73327 6.39947 7.73327H6.93281V11.9973H6.39947C6.25219 11.9973 6.13281 12.1167 6.13281 12.264V13.3306C6.13281 13.4779 6.25222 13.5973 6.39947 13.5973H9.59947C9.74675 13.5973 9.86613 13.4779 9.86613 13.3306V12.264C9.86613 12.1168 9.74675 11.9974 9.59947 11.9974ZM9.33281 13.064H6.66616V12.5307H7.19947C7.34675 12.5307 7.46613 12.4113 7.46613 12.264C7.46613 12.2639 7.46613 12.2638 7.46613 12.2638C7.46613 12.2636 7.46613 12.2635 7.46613 12.2634V7.46661C7.46613 7.31933 7.34672 7.19996 7.19947 7.19996H6.66612V6.66661H8.53278V12.264C8.53278 12.4113 8.65219 12.5307 8.79944 12.5307H9.33278V13.064H9.33281Z" fill="#666666"/>
</g>
<defs>
<clipPath id="clip0_138_18911">
<rect width="16" height="16" fill="white"/>
</clipPath>
</defs>
</svg>
