<svg width="20" height="20" viewBox="0 0 20 20" fill="none" xmlns="http://www.w3.org/2000/svg">
<path d="M15.7737 2.53473C14.1391 0.900195 11.9658 0 9.65418 0C7.34254 0 5.16926 0.900195 3.53465 2.53473C1.90016 4.1693 1 6.34254 1 8.65422C1 10.9659 1.90016 13.1391 3.53469 14.7737L8.1327 19.3716C8.53781 19.7768 9.07816 20 9.65418 20C10.2302 20 10.7705 19.7768 11.1757 19.3716L15.7737 14.7737C17.4082 13.1391 18.3084 10.9659 18.3084 8.65422C18.3084 6.34254 17.4082 4.16926 15.7737 2.53473ZM14.945 13.9451L10.3471 18.543C10.1632 18.7269 9.91715 18.8281 9.65418 18.8281C9.39125 18.8281 9.1452 18.7269 8.96137 18.543L4.36332 13.9451C1.44602 11.0277 1.44602 6.28074 4.36332 3.36332C5.77652 1.95016 7.65555 1.17188 9.65418 1.17188C11.6528 1.17188 13.5318 1.95016 14.945 3.36336C17.8623 6.28074 17.8623 11.0277 14.945 13.9451Z" fill="#EA9309"/>
<path d="M9.6541 5.04248C7.66277 5.04248 6.04265 6.66268 6.04257 8.6542C6.04265 10.6455 7.66285 12.2657 9.65421 12.2658C11.6456 12.2658 13.2657 10.6456 13.2657 8.6542C13.2657 6.66287 11.6455 5.04268 9.6541 5.04248ZM9.65425 11.0939C8.30902 11.0938 7.21449 9.99936 7.21445 8.6542C7.21449 7.30889 8.30894 6.21436 9.65406 6.21436C10.9993 6.21447 12.0938 7.309 12.0939 8.65424C12.0939 9.99943 10.9994 11.0939 9.65425 11.0939Z" fill="#EA9309"/>
</svg>
