<svg width="24" height="24" viewBox="0 0 24 24" fill="none" xmlns="http://www.w3.org/2000/svg">
<path d="M21.2053 3.1875H2.94445C1.40327 3.1875 0.149414 4.44919 0.149414 6V18C0.149414 19.5508 1.40327 20.8125 2.94445 20.8125H21.2053C22.7465 20.8125 24.0003 19.5508 24.0003 18V6C24.0003 4.44919 22.7465 3.1875 21.2053 3.1875ZM22.5004 18C22.5004 18.5169 21.719 19.5 21.2053 19.5H2.50037C1.98664 19.5 1.50037 18.5169 1.50037 18V6C1.50037 5.48306 2.43072 4.5 2.94445 4.5H21.2053C21.719 4.5 22.5004 5.48306 22.5004 6V18Z" fill="#666666"/>
<path d="M22 4.5L12.0745 12.5L2 4.5L1.5 5.5L12.0745 14.1059L22.5 5.5L22 4.5Z" fill="#666666"/>
</svg>
