<svg width="20" height="20" viewBox="0 0 20 20" fill="none" xmlns="http://www.w3.org/2000/svg">
<g opacity="0.7" clip-path="url(#clip0_159_195)">
<path d="M18.765 2.0791C17.5276 0.841686 15.5818 -0.162892 13.3399 2.0791L4.25091 11.1674C4.18093 11.2302 3.34444 12.0157 3.31501 13.155C3.2967 13.8587 3.58512 14.5147 4.17374 15.1033C4.67603 15.6056 5.27708 15.8665 5.91017 15.8587C7.05732 15.845 7.91279 14.9803 8.00566 14.8822L14.8435 8.04509C15.0992 7.78936 15.0998 7.37602 14.8435 7.1203C14.5877 6.86458 14.1744 6.86458 13.9187 7.1203L7.0704 13.9686C6.90755 14.136 6.39742 14.5467 5.88859 14.5506C5.60997 14.5526 5.35163 14.4303 5.09853 14.1779C4.77152 13.8508 4.61586 13.5304 4.6224 13.1962C4.63352 12.603 5.14889 12.119 5.15412 12.1131L14.2646 3.00388C15.1489 2.1203 16.2653 1.42834 17.8402 3.00388C18.417 3.58073 18.7028 4.17851 18.6917 4.78152C18.6728 5.77236 17.8696 6.52579 17.8611 6.53364L7.64594 16.6344C7.62371 16.6566 6.36079 17.9333 4.82318 17.9437C4.01416 17.9489 3.24568 17.5932 2.53934 16.8875C-0.130381 14.2177 2.36798 11.5533 2.47524 11.4414L10.332 3.584C10.5877 3.32828 10.5877 2.91494 10.332 2.65856C10.0756 2.40284 9.66229 2.40349 9.40723 2.65856L1.54065 10.5251C0.312392 11.8044 -1.23829 14.9594 1.6139 17.8123C2.58054 18.7782 3.66687 19.2622 4.8428 19.2511C6.93437 19.2328 8.51056 17.6219 8.57662 17.5533L18.7624 7.48132C18.7911 7.45581 19.9605 6.37864 19.9991 4.82337C20.0233 3.84496 19.608 2.92148 18.765 2.0791Z" fill="#333333"/>
</g>
<defs>
<clipPath id="clip0_159_195">
<rect width="20" height="20" fill="white"/>
</clipPath>
</defs>
</svg>
