<svg width="25" height="24" viewBox="0 0 25 24" fill="none" xmlns="http://www.w3.org/2000/svg">
<path d="M19.8551 22.9591L19.8551 22.9591L19.8493 22.965C19.4772 23.348 18.9697 23.4979 18.4153 23.5C15.7257 23.4166 13.1449 22.0872 10.9615 20.6641C7.38584 18.0515 4.135 14.8338 2.10018 10.9717C1.29311 9.29449 0.422989 7.2924 0.505378 5.58832L0.505823 5.57912L0.505929 5.56991C0.513124 4.94205 0.682392 4.41957 1.0286 4.10153L1.0367 4.09409L1.04446 4.08631L4.40058 0.719452C4.65932 0.503578 4.8471 0.483728 4.96841 0.508542C5.10357 0.536189 5.27982 0.644589 5.45485 0.909701L8.15015 6.03964C8.33185 6.43916 8.23143 6.86933 7.93831 7.1714L6.69842 8.41525L6.67101 8.44274L6.64818 8.47413C6.52511 8.64334 6.42826 8.86224 6.42583 9.11953L6.4252 9.18524L6.44159 9.24889C6.95451 11.2417 8.48505 13.0285 9.78089 14.2218C9.978 14.4033 10.1861 14.6037 10.4026 14.8122C10.8484 15.2416 11.33 15.7055 11.826 16.1105C12.5733 16.7207 13.4288 17.266 14.4241 17.4803C14.5624 17.5178 14.7341 17.5484 14.9123 17.5402C15.0961 17.5318 15.3345 17.479 15.5302 17.2964L15.5384 17.2887L15.5463 17.2807L16.964 15.8336C17.3746 15.5341 17.8529 15.4715 18.1312 15.6337L18.2479 15.7017H18.2712L23.0391 18.527C23.4899 18.8142 23.5056 19.3106 23.2227 19.6062L19.8551 22.9591Z" stroke="#666666"/>
<path d="M24.3247 1.58017C24.534 1.40008 24.5584 1.08385 24.379 0.873862C24.1997 0.663871 23.8846 0.639635 23.6753 0.819729L24.3247 1.58017ZM16.2404 7.40927C16.2192 7.6851 16.4248 7.92585 16.6996 7.94699L21.1782 8.29149C21.453 8.31263 21.693 8.10616 21.7142 7.83033C21.7354 7.5545 21.5298 7.31375 21.255 7.29261L17.2741 6.98639L17.5814 2.99089C17.6026 2.71506 17.397 2.47432 17.1222 2.45318C16.8474 2.43203 16.6074 2.6385 16.5862 2.91433L16.2404 7.40927ZM23.6753 0.819729L16.4133 7.06733L17.0627 7.82777L24.3247 1.58017L23.6753 0.819729Z" fill="#666666"/>
</svg>
