<svg width="16" height="16" viewBox="0 0 16 16" fill="none" xmlns="http://www.w3.org/2000/svg">
<path fill-rule="evenodd" clip-rule="evenodd" d="M8.5 0.501465C8.5 0.225322 8.27614 0.00146486 8 0.00146484C7.72386 0.00146483 7.5 0.225322 7.5 0.501465V7.49968L0.5 7.49968C0.223858 7.49968 0 7.72354 0 7.99968C0 8.27582 0.223858 8.49968 0.5 8.49968H7.5V15.4985C7.5 15.7747 7.72386 15.9985 8 15.9985C8.27614 15.9985 8.5 15.7747 8.5 15.4985V8.49968H15.5C15.7761 8.49968 16 8.27582 16 7.99968C16 7.72354 15.7761 7.49968 15.5 7.49968L8.5 7.49968V0.501465Z" fill="#666666"/>
</svg>
