<svg width="27" height="27" viewBox="0 0 27 27" fill="none" xmlns="http://www.w3.org/2000/svg">
<g clip-path="url(#clip0_131_18570)">
<path d="M17.7188 12.9727C18.0098 12.9727 18.2461 12.7364 18.2461 12.4453C18.2461 12.1542 18.0098 11.918 17.7188 11.918C17.4277 11.918 17.1914 12.1542 17.1914 12.4453C17.1914 12.7364 17.4277 12.9727 17.7188 12.9727Z" fill="#666666"/>
<path d="M15.6094 12.9727C15.9004 12.9727 16.1367 12.7364 16.1367 12.4453C16.1367 12.1542 15.9004 11.918 15.6094 11.918C15.3183 11.918 15.082 12.1542 15.082 12.4453C15.082 12.7364 15.3183 12.9727 15.6094 12.9727Z" fill="#666666"/>
<path d="M25.418 8.75391H21.4102V3.69141C21.4102 3.55669 21.3566 3.41991 21.2565 3.31918C21.2561 3.31897 21.2559 3.31876 21.2557 3.31856L18.0916 0.154495C18.0914 0.154289 18.0912 0.154083 18.091 0.153877C17.9886 0.0519104 17.8522 0 17.7188 0H6.11719C5.82591 0 5.58984 0.236069 5.58984 0.527344V8.75391H1.58203C0.709648 8.75391 0 9.46355 0 10.3359V19.8281C0 20.7005 0.709648 21.4102 1.58203 21.4102H5.58984V26.4727C5.58984 26.7639 5.82591 27 6.11719 27H20.8828C21.1741 27 21.4102 26.7639 21.4102 26.4727V21.4102H25.418C26.2904 21.4102 27 20.7005 27 19.8281V10.3359C27 9.46355 26.2904 8.75391 25.418 8.75391ZM18.2461 1.80059L19.6096 3.16406H18.2461V1.80059ZM6.64453 1.05469H17.1914V3.69141C17.1914 3.98268 17.4275 4.21875 17.7188 4.21875H20.3555V8.75391H6.64453V1.05469ZM1.58203 9.80859H25.418C25.7088 9.80859 25.9453 10.0451 25.9453 10.3359V14.0273H1.05469V10.3359C1.05469 10.0451 1.29117 9.80859 1.58203 9.80859ZM5.58984 20.2648C4.97598 20.0471 4.53516 19.4608 4.53516 18.7734C4.53516 18.0708 4.98937 17.4932 5.58984 17.2812V20.2648ZM20.3555 25.9453H6.64453V17.1914H20.3555V25.9453ZM22.4648 18.7734C22.4648 19.4761 22.0106 20.0537 21.4102 20.2657V17.282C22.024 17.4998 22.4648 18.086 22.4648 18.7734ZM25.418 20.3555H22.992C23.3341 19.9015 23.5195 19.3517 23.5195 18.7734C23.5195 17.3195 22.3367 16.1367 20.8828 16.1367H6.11719C4.6604 16.1367 3.48047 17.3169 3.48047 18.7734C3.48047 19.3665 3.6774 19.9144 4.00925 20.3555H1.58203C1.29117 20.3555 1.05469 20.119 1.05469 19.8281V15.082H25.9453V19.8281C25.9453 20.119 25.7088 20.3555 25.418 20.3555Z" fill="#666666"/>
<path d="M17.7188 19.3008H9.28125C8.98997 19.3008 8.75391 19.5368 8.75391 19.8281C8.75391 20.1194 8.98997 20.3555 9.28125 20.3555H17.7188C18.01 20.3555 18.2461 20.1194 18.2461 19.8281C18.2461 19.5368 18.01 19.3008 17.7188 19.3008Z" fill="#666666"/>
<path d="M17.7188 22.4648H9.28125C8.98997 22.4648 8.75391 22.7009 8.75391 22.9922C8.75391 23.2835 8.98997 23.5195 9.28125 23.5195H17.7188C18.01 23.5195 18.2461 23.2835 18.2461 22.9922C18.2461 22.7009 18.01 22.4648 17.7188 22.4648Z" fill="#666666"/>
<path d="M19.8281 12.9727H22.9922C23.2835 12.9727 23.5195 12.7366 23.5195 12.4453C23.5195 12.154 23.2835 11.918 22.9922 11.918H19.8281C19.5368 11.918 19.3008 12.154 19.3008 12.4453C19.3008 12.7366 19.5368 12.9727 19.8281 12.9727Z" fill="#666666"/>
</g>
<defs>
<clipPath id="clip0_131_18570">
<rect width="27" height="27" fill="white"/>
</clipPath>
</defs>
</svg>
