<svg width="16" height="16" viewBox="0 0 16 16" fill="none" xmlns="http://www.w3.org/2000/svg">
<path d="M12.7804 4.45903C11.5035 3.18216 9.80578 2.47894 8 2.47894H7.00885L8.59969 0.884188L7.71332 0L4.615 3.10591L7.67288 6.21491L8.56547 5.337L6.98575 3.73088H8C11.0374 3.73088 13.5086 6.202 13.5086 9.23947C13.5086 12.2769 11.0374 14.7481 8 14.7481C4.96257 14.7481 2.49141 12.2769 2.49141 9.23934V8.61337L1.23947 8.6135V9.23947C1.23947 11.0453 1.94269 12.743 3.2196 14.0199C4.49647 15.2968 6.19422 16 8 16C9.80578 16 11.5035 15.2968 12.7804 14.0199C14.0573 12.743 14.7605 11.0452 14.7605 9.23947C14.7605 7.43369 14.0573 5.73594 12.7804 4.45903Z" fill="#B9201F"/>
</svg>
