<svg width="22" height="22" viewBox="0 0 22 22" fill="none" xmlns="http://www.w3.org/2000/svg">
<path d="M10.1368 5.62932V3.74076C10.1369 3.58855 10.0929 3.43956 10.0101 3.31182C9.92736 3.18408 9.80936 3.08306 9.67039 3.02095C9.53142 2.95885 9.37744 2.93833 9.22706 2.96188C9.07667 2.98542 8.93633 3.05203 8.823 3.15364L4.11225 7.35632C4.02784 7.43268 3.96088 7.52633 3.91594 7.6309C3.87099 7.73547 3.84911 7.84849 3.85178 7.96228C3.85446 8.07607 3.88163 8.18794 3.93144 8.29028C3.98125 8.39262 4.05253 8.48302 4.14044 8.55532L6.39956 10.5807L8.82437 12.7443C8.93908 12.8438 9.07999 12.9082 9.2303 12.9299C9.38061 12.9516 9.53399 12.9297 9.67216 12.8666C9.81033 12.8036 9.92747 12.7022 10.0096 12.5744C10.0917 12.4467 10.1354 12.298 10.1354 12.1461V10.3717C13.8431 10.9904 16.6165 14.5015 16.6495 18.7083C16.6503 18.787 16.678 18.863 16.728 18.9237C16.7781 18.9844 16.8474 19.026 16.9245 19.0418C16.947 19.047 16.9701 19.0495 16.9932 19.0493C17.0601 19.0493 17.1255 19.0298 17.1814 18.9931C17.2374 18.9565 17.2814 18.9043 17.3081 18.8431C17.8672 17.5722 18.1545 16.1986 18.1517 14.8102C18.1517 9.87051 14.587 5.82801 10.1368 5.62932ZM17.1926 17.0618C16.5175 13.1265 13.5709 10.0534 9.83637 9.63676C9.78773 9.63058 9.73833 9.63488 9.69149 9.64937C9.64465 9.66385 9.60145 9.68819 9.56479 9.72075C9.52813 9.75331 9.49886 9.79333 9.47894 9.83813C9.45902 9.88294 9.44892 9.93148 9.44931 9.98051V12.1509C9.45003 12.1714 9.4444 12.1916 9.4332 12.2087C9.422 12.2258 9.40577 12.239 9.38675 12.2465C9.36992 12.2554 9.35079 12.259 9.33189 12.2567C9.31299 12.2545 9.29521 12.2467 9.28087 12.2341L4.57425 8.02457C4.56313 8.01434 4.55427 8.0019 4.54823 7.98805C4.5422 7.9742 4.53911 7.95925 4.53919 7.94414C4.53897 7.9295 4.54179 7.91498 4.54747 7.90149C4.55315 7.888 4.56157 7.87583 4.57219 7.86576L9.28294 3.66445C9.2966 3.65091 9.31419 3.64203 9.3332 3.63907C9.35221 3.6361 9.37167 3.63921 9.38881 3.64795C9.40723 3.6553 9.42292 3.66816 9.43375 3.68478C9.44458 3.70139 9.45002 3.72094 9.44931 3.74076V5.96551C9.44931 6.05668 9.48553 6.14411 9.54999 6.20858C9.61446 6.27305 9.70189 6.30926 9.79306 6.30926C14.0226 6.30926 17.4635 10.1228 17.4635 14.8102C17.4646 15.5689 17.3736 16.325 17.1926 17.0618Z" fill="#666666"/>
</svg>
