<svg width="15" height="15" viewBox="0 0 15 15" fill="none" xmlns="http://www.w3.org/2000/svg">
<g clip-path="url(#clip0_138_18980)">
<path d="M13.2982 0V4.63893H12.062V2.16481H7.42306V0.927786H2.62874V4.63893H1.5471V0H0V15H1.54707V12.2166H13.2982V15H15V0H13.2982ZM0.464698 14.5353V0.464698H1.08238V14.5353H0.464698ZM7.42306 2.62951H11.5973V4.6389H7.42306V2.62951ZM4.6397 1.39248H5.41206V2.78336H4.6397V1.39248ZM3.09344 1.39248H4.17504V3.24806H5.87679V1.39248H6.95839V4.63893H3.09344V1.39248ZM13.2982 11.7519H1.5471V11.2889H13.2982V11.7519ZM3.40268 10.8242V8.81477H7.57691V10.8242H3.40268ZM10.8249 9.43328V7.57771H11.9065V10.8242H8.0416V7.57771H9.12321V9.43328H10.8249ZM9.58794 8.96859V7.57771H10.3603V8.96859H9.58794ZM13.2982 10.8242H12.3713V7.11301H7.57691V8.35007H2.93798V10.8242H1.5471V6.03141H13.2982V10.8242ZM13.2982 5.56672H1.5471V5.10363H13.2982V5.56672ZM14.5353 14.5353H13.7629V0.464698H14.5353V14.5353Z" fill="#666666"/>
<path d="M11.0567 3.40186H10.1289V3.86655H11.0567V3.40186Z" fill="#666666"/>
<path d="M9.81583 3.40186H8.26953V3.86655H9.81583V3.40186Z" fill="#666666"/>
<path d="M7.03325 9.58716H6.10547V10.0519H7.03325V9.58716Z" fill="#666666"/>
<path d="M5.7963 9.58716H4.25V10.0519H5.7963V9.58716Z" fill="#666666"/>
</g>
<defs>
<clipPath id="clip0_138_18980">
<rect width="15" height="15" fill="white"/>
</clipPath>
</defs>
</svg>
