<svg width="20" height="20" viewBox="0 0 20 20" fill="none" xmlns="http://www.w3.org/2000/svg">
<path d="M17.0312 2.42188H13.5538L13.1694 1.21004C13.1685 1.20734 13.1676 1.20461 13.1668 1.20191C12.9271 0.483008 12.2569 0 11.4991 0H8.5009C7.74312 0 7.07293 0.483008 6.83328 1.20191C6.83242 1.20461 6.83152 1.20734 6.83066 1.21004L6.44617 2.42188H2.96875C1.99949 2.42188 1.21094 3.21043 1.21094 4.17969V5.35156C1.21094 5.67516 1.47328 5.9375 1.79688 5.9375H2.42926L3.45977 18.3966C3.45992 18.3982 3.46004 18.3998 3.4602 18.4014C3.54309 19.3127 4.2957 20 5.21078 20H14.7892C15.7043 20 16.4569 19.3127 16.5398 18.4014C16.5399 18.3998 16.54 18.3982 16.5402 18.3966L17.5707 5.9375H18.2031C18.5267 5.9375 18.7891 5.67516 18.7891 5.35156V4.17969C18.7891 3.21043 18.0005 2.42188 17.0312 2.42188ZM7.94613 1.56918C8.02699 1.33137 8.24949 1.17188 8.5009 1.17188H11.4991C11.7505 1.17188 11.973 1.33137 12.0539 1.56918L12.3244 2.42188H7.67562L7.94613 1.56918ZM15.3725 18.2971C15.3441 18.6 15.0936 18.8281 14.7892 18.8281H5.21078C4.90641 18.8281 4.65594 18.6 4.62742 18.2971L3.60516 5.9375H16.3948L15.3725 18.2971ZM17.6172 4.76562H2.38281V4.17969C2.38281 3.8566 2.64566 3.59375 2.96875 3.59375H6.86941C6.87125 3.59375 6.87305 3.59375 6.87488 3.59375H13.121C13.1223 3.59375 13.1236 3.59391 13.1248 3.59391C13.1262 3.59391 13.1275 3.59375 13.1289 3.59375H17.0312C17.3543 3.59375 17.6172 3.8566 17.6172 4.17969V4.76562Z" fill="#666666"/>
<path d="M6.48438 7.10938C6.16078 7.10938 5.89844 7.37172 5.89844 7.69531V17.0703C5.89844 17.3939 6.16078 17.6562 6.48438 17.6562C6.80797 17.6562 7.07031 17.3939 7.07031 17.0703V7.69531C7.07031 7.37172 6.80797 7.10938 6.48438 7.10938Z" fill="#666666"/>
<path d="M10 7.10938C9.67641 7.10938 9.41406 7.37172 9.41406 7.69531V17.0703C9.41406 17.3939 9.67641 17.6562 10 17.6562C10.3236 17.6562 10.5859 17.3939 10.5859 17.0703V7.69531C10.5859 7.37172 10.3236 7.10938 10 7.10938Z" fill="#666666"/>
<path d="M13.5156 7.10938C13.192 7.10938 12.9297 7.37172 12.9297 7.69531V17.0703C12.9297 17.3939 13.192 17.6562 13.5156 17.6562C13.8392 17.6562 14.1016 17.3939 14.1016 17.0703V7.69531C14.1016 7.37172 13.8392 7.10938 13.5156 7.10938Z" fill="#666666"/>
</svg>
