<svg width="36" height="36" viewBox="0 0 36 36" fill="none" xmlns="http://www.w3.org/2000/svg">
<path d="M33.9844 15.988H33.128V10.842C33.128 8.73782 31.4151 7.03232 29.3183 7.03232H28.5283L28.5357 5.1201C28.5357 3.70254 27.3839 2.55078 25.9664 2.55078H3.12305C1.41756 2.55078 0.0221493 3.92404 0 5.62953C0 5.6443 0 5.65907 0 5.67383V30.8797C0 32.2973 1.15176 33.4491 2.56932 33.4491H29.3257C31.4299 33.4491 33.1354 31.7362 33.1354 29.6394V24.486H33.9918C35.0993 24.486 36 23.5852 36 22.4778V17.9962C35.9926 16.8888 35.0919 15.988 33.9844 15.988ZM3.12305 4.32273H25.9664C26.402 4.32273 26.7637 4.67711 26.7637 5.11272L26.7564 7.03232H3.12305C2.37736 7.03232 1.77194 6.42691 1.77194 5.68122C1.77194 4.93552 2.37736 4.32273 3.12305 4.32273ZM31.356 29.632C31.356 30.7542 30.4405 31.6697 29.3183 31.6697H2.56194C2.12633 31.6697 1.76456 31.3153 1.76456 30.8724V8.49418C2.17801 8.69352 2.63577 8.80427 3.12305 8.80427H29.3183C30.4405 8.80427 31.356 9.71977 31.356 10.842V15.988H25.3093C24.2018 15.988 23.3011 16.8888 23.3011 17.9962V22.4778C23.3011 23.5852 24.2018 24.486 25.3093 24.486H31.356V29.632ZM34.2207 22.4778C34.2207 22.6107 34.1173 22.714 33.9844 22.714H25.3167C25.1838 22.714 25.0804 22.6107 25.0804 22.4778V17.9962C25.0804 17.8707 25.1838 17.76 25.3167 17.76H33.9844C34.1099 17.76 34.2207 17.8633 34.2207 17.9962V22.4778Z" fill="#666666"/>
</svg>
