<svg width="18" height="18" viewBox="0 0 18 18" fill="none" xmlns="http://www.w3.org/2000/svg">
<path d="M16.9922 7.99401H16.564V5.421C16.564 4.36891 15.7075 3.51616 14.6591 3.51616H14.2642L14.2678 2.56005C14.2678 1.85127 13.692 1.27539 12.9832 1.27539H1.56153C0.708778 1.27539 0.0110747 1.96202 0 2.81477C0 2.82215 0 2.82953 0 2.83692V15.4399C0 16.1486 0.575882 16.7245 1.28466 16.7245H14.6628C15.7149 16.7245 16.5677 15.8681 16.5677 14.8197V12.243H16.9959C17.5496 12.243 18 11.7926 18 11.2389V8.99811C17.9963 8.44438 17.5459 7.99401 16.9922 7.99401ZM1.56153 2.16136H12.9832C13.201 2.16136 13.3819 2.33856 13.3819 2.55636L13.3782 3.51616H1.56153C1.18868 3.51616 0.885972 3.21345 0.885972 2.84061C0.885972 2.46776 1.18868 2.16136 1.56153 2.16136ZM15.678 14.816C15.678 15.3771 15.2203 15.8349 14.6591 15.8349H1.28097C1.06317 15.8349 0.882281 15.6577 0.882281 15.4362V4.24709C1.08901 4.34676 1.31788 4.40213 1.56153 4.40213H14.6591C15.2203 4.40213 15.678 4.85989 15.678 5.421V7.99401H12.6546C12.1009 7.99401 11.6505 8.44438 11.6505 8.99811V11.2389C11.6505 11.7926 12.1009 12.243 12.6546 12.243H15.678V14.816ZM17.1103 11.2389C17.1103 11.3053 17.0587 11.357 16.9922 11.357H12.6583C12.5919 11.357 12.5402 11.3053 12.5402 11.2389V8.99811C12.5402 8.93536 12.5919 8.87998 12.6583 8.87998H16.9922C17.055 8.87998 17.1103 8.93167 17.1103 8.99811V11.2389Z" fill="#666666"/>
</svg>
