<svg width="30" height="30" viewBox="0 0 30 30" fill="none" xmlns="http://www.w3.org/2000/svg">
<path d="M21.9637 11.395H20.6976C20.4548 11.395 20.2581 11.5917 20.2581 11.8345C20.2581 12.0772 20.4549 12.2739 20.6976 12.2739H21.9637C22.2064 12.2739 22.4031 12.0772 22.4031 11.8345C22.4031 11.5917 22.2064 11.395 21.9637 11.395Z" fill="#666666"/>
<path d="M24.3024 11.8346C24.3024 8.94762 22.0681 6.57281 19.2378 6.34811V0.439453C19.2378 0.196699 19.0411 0 18.7983 0H11.2016C10.9588 0 10.7621 0.196699 10.7621 0.439453V6.34834C7.9319 6.57299 5.69766 8.94768 5.69766 11.8346V11.8348L5.69772 24.4958C5.69772 25.985 6.79893 27.2217 8.22979 27.4348V29.5605C8.22979 29.8033 8.42649 30 8.66925 30H21.3307C21.5734 30 21.7701 29.8033 21.7701 29.5605V27.4348C23.2003 27.2218 24.3011 25.9863 24.3022 24.498C24.3022 24.4973 24.3024 24.4965 24.3024 24.4958C24.3024 24.4954 24.3023 24.495 24.3023 24.4946L24.3024 11.8346ZM11.641 0.878906H18.3589V6.33059L16.3891 6.33064V4.23791C16.3891 3.99516 16.1924 3.79846 15.9496 3.79846H14.0504C13.8076 3.79846 13.6109 3.99516 13.6109 4.23791V6.3307L11.641 6.33076V0.878906ZM15.5102 4.67736V6.33059H14.4898V4.67736H15.5102ZM20.8912 29.1211H9.1087V27.4675H20.8912V29.1211ZM23.4233 24.0562H11.3501C11.1073 24.0562 10.9106 24.2529 10.9106 24.4957C10.9106 24.7385 11.1073 24.9352 11.3501 24.9352H23.3766C23.1741 25.8789 22.3338 26.5886 21.3306 26.5886H8.66942C7.51547 26.5886 6.57663 25.6498 6.57663 24.4957L6.57657 12.2742H18.6499C18.8926 12.2742 19.0893 12.0775 19.0893 11.8347C19.0893 11.592 18.8926 11.3953 18.6499 11.3953H6.59801C6.82008 9.05039 8.79956 7.20961 11.2016 7.20961H18.7983C18.7991 7.20961 18.7998 7.20949 18.8006 7.20949C21.3498 7.21072 23.4234 9.285 23.4234 11.8346L23.4233 24.0562Z" fill="#B9201F"/>
<path d="M9.30241 24.0564H8.03625C7.7935 24.0564 7.5968 24.2531 7.5968 24.4958C7.5968 24.7386 7.7935 24.9353 8.03625 24.9353H9.30241C9.54516 24.9353 9.74186 24.7386 9.74186 24.4958C9.74186 24.2531 9.5451 24.0564 9.30241 24.0564Z" fill="#666666"/>
<path d="M17.9448 19.0861C17.9399 19.0373 17.9357 18.9963 17.9344 18.9773V18.9774C17.724 15.6104 15.3367 14.0601 15.2353 13.9957C15.103 13.912 14.9362 13.9049 14.7974 13.9769C14.6585 14.0491 14.5685 14.1896 14.561 14.346C14.5251 15.0981 14.216 15.6964 13.9802 16.049L13.7566 15.8255C13.6641 15.7329 13.5346 15.6864 13.405 15.6986C13.2748 15.7108 13.1568 15.7803 13.083 15.8883C12.5299 16.6983 12.176 17.629 12.0595 18.5798C12.0223 18.883 12.0096 19.1802 12.0217 19.4632C12.029 19.6338 12.0396 19.744 12.0536 19.8198C12.2464 21.2935 13.5104 22.4031 15 22.4031C16.6386 22.4031 17.9718 21.0699 17.9718 19.4313C17.9718 19.3617 17.961 19.2494 17.9448 19.0861ZM15 21.5241C13.9475 21.5241 13.0549 20.738 12.9237 19.6956C12.923 19.6908 12.9221 19.6842 12.9213 19.6794C12.919 19.6647 12.7185 18.3285 13.5291 16.8409L13.7087 17.0205C13.7912 17.103 13.9029 17.1493 14.0195 17.1493C14.0197 17.1493 14.0199 17.1493 14.0201 17.1493C14.1369 17.1491 14.2487 17.1025 14.3311 17.0197C14.3656 16.9851 15.0336 16.3019 15.3175 15.1923C15.9568 15.8066 16.9337 17.0559 17.0572 19.0322V19.0323C17.0586 19.0557 17.0638 19.1094 17.0702 19.1734C17.0773 19.2449 17.0922 19.3936 17.0929 19.4313C17.0929 20.5853 16.1541 21.5241 15 21.5241Z" fill="#EA9309"/>
</svg>
