<svg width="20" height="27" viewBox="0 0 20 27" fill="none" xmlns="http://www.w3.org/2000/svg">
<path d="M17.7777 0H2.22223C0.997182 0 0 1.00907 0 2.25002V22.5C0 23.7409 0.997182 24.75 2.22223 24.75V26.4375C2.22223 26.7485 2.47072 27.0001 2.7778 27.0001H4.99997C5.30706 27.0001 5.55554 26.7485 5.55554 26.4375V24.75H14.4444V26.4375C14.4444 26.7485 14.6929 27.0001 15 27.0001H17.2222C17.5293 27.0001 17.7778 26.7485 17.7778 26.4375V24.75C19.0028 24.75 20 23.741 20 22.5V2.25002C19.9999 1.00907 19.0027 0 17.7777 0ZM4.4444 25.875H3.33332V24.75H4.4444V25.875ZM9.44438 23.625H2.22223C1.60916 23.625 1.11114 23.1202 1.11114 22.5V2.25002C1.11114 1.62986 1.60921 1.12504 2.22223 1.12504H9.44443V23.625H9.44438ZM16.6666 25.875H15.5555V24.75H16.6666V25.875ZM18.8888 22.5C18.8888 23.1202 18.3907 23.625 17.7777 23.625H10.5555V1.12498H17.7777C18.3908 1.12498 18.8888 1.62981 18.8888 2.24996V22.5Z" fill="#666666"/>
<path d="M11.6666 12.375C11.3595 12.375 11.1111 12.6266 11.1111 12.9375V14.0625C11.1111 14.3734 11.3595 14.625 11.6666 14.625C11.9737 14.625 12.2222 14.3734 12.2222 14.0625V12.9375C12.2222 12.6266 11.9737 12.375 11.6666 12.375Z" fill="#666666"/>
<path d="M8.33331 14.625C8.64039 14.625 8.88888 14.3734 8.88888 14.0625V12.9375C8.88888 12.6266 8.64039 12.375 8.33331 12.375C8.02623 12.375 7.77774 12.6266 7.77774 12.9375V14.0625C7.77774 14.3735 8.02623 14.625 8.33331 14.625Z" fill="#666666"/>
</svg>
