<svg width="30" height="30" viewBox="0 0 30 30" fill="none" xmlns="http://www.w3.org/2000/svg">
<path d="M16.4765 2H13.4765C12.9243 2 12.4766 2.44769 12.4766 2.99998V3.99997C12.4766 4.55226 12.9243 4.99995 13.4765 4.99995H16.4765C17.0288 4.99995 17.4765 4.55226 17.4765 3.99997V2.99998C17.4765 2.44769 17.0288 2 16.4765 2ZM13.4765 3.99997V2.99998H16.4765V3.99997H13.4765Z" fill="#666666"/>
<path d="M17.9766 0H11.9765C11.1481 0 10.4766 0.671539 10.4766 1.50009V6.09558C7.87148 6.57967 5.98091 8.8504 5.97656 11.4999V22.5C5.97862 24.3585 6.91887 26.0902 8.47664 27.104V28C8.47664 29.1046 9.37202 30 10.4766 30H19.4765C20.5811 30 21.4767 29.1046 21.4767 28V27.104C23.0342 26.0902 23.9747 24.3585 23.9765 22.5V11.4999C23.9724 8.8504 22.0816 6.57967 19.4765 6.09558V1.50009C19.4765 0.671539 18.8049 0 17.9766 0ZM11.4766 1.50009C11.4766 1.22383 11.7004 0.999985 11.9765 0.999985H17.9766C18.2526 0.999985 18.4765 1.22383 18.4765 1.50009V5.99991H11.4766V1.50009ZM20.4765 27.6244V28C20.4765 28.5523 20.0288 29 19.4765 29H10.4766C9.92432 29 9.47662 28.5523 9.47662 28V27.6244C9.54849 27.6526 9.62311 27.6746 9.69658 27.6986C9.77005 27.7224 9.82956 27.746 9.89662 27.7666C9.99664 27.7954 10.093 27.8165 10.1921 27.8426C10.266 27.8604 10.3386 27.8801 10.413 27.8925C10.5196 27.9135 10.6277 27.927 10.735 27.9426C10.803 27.952 10.8701 27.9646 10.9389 27.9714C11.117 27.9886 11.296 27.9984 11.4754 27.9984H18.4765C18.6562 27.9984 18.8351 27.9886 19.013 27.9714C19.0821 27.9646 19.1492 27.952 19.2171 27.9426C19.3245 27.9279 19.4325 27.9144 19.539 27.8925C19.6136 27.8776 19.6861 27.8579 19.7601 27.8426C19.8601 27.819 19.9601 27.7954 20.0555 27.7666C20.1235 27.746 20.1901 27.7215 20.2556 27.6986C20.321 27.6755 20.4046 27.6526 20.4765 27.6244ZM22.9765 11.4999V22.5C22.9669 24.3089 21.8841 25.9394 20.2206 26.6501C20.1821 26.6661 20.1416 26.678 20.1031 26.6929C19.975 26.743 19.8457 26.7874 19.7136 26.825C19.6587 26.8405 19.603 26.854 19.547 26.868C19.422 26.8984 19.2957 26.9236 19.1675 26.9435C19.1176 26.9511 19.0675 26.9604 19.0141 26.9671C18.8356 26.9886 18.6562 26.9996 18.4765 27H11.4766C11.2969 26.9989 11.1175 26.9872 10.9389 26.965C10.8891 26.9584 10.8366 26.949 10.7856 26.9415C10.6577 26.9215 10.5311 26.8964 10.4061 26.8659C10.35 26.852 10.2946 26.8385 10.2395 26.8229C10.1077 26.7856 9.9781 26.7405 9.85016 26.6911C9.81148 26.6759 9.77097 26.664 9.73251 26.648C8.06969 25.9378 6.98708 24.3082 6.97655 22.5V11.4999C6.97952 9.01588 8.99254 7.0031 11.4766 6.99989H18.4765C20.9605 7.0031 22.9736 9.01588 22.9765 11.4999Z" fill="#666666"/>
<path d="M16.5541 15.2395C15.6542 14.5166 14.8766 13.8895 14.8766 13.1395C14.9158 12.876 15.0735 12.6446 15.3047 12.5121C15.5132 12.3674 15.5958 12.099 15.5045 11.8621C15.4129 11.6222 15.1701 11.4755 14.9151 11.5059C13.1152 11.7211 12.2745 13.8531 12.2745 15.2259C12.3139 15.8906 12.5375 16.5313 12.9202 17.076C13.095 17.315 13.2159 17.5889 13.2745 17.8791C13.2745 18.3291 13.1291 18.3291 12.9746 18.3291C12.7515 18.3291 12.6391 18.2824 12.6075 18.2385C12.5526 18.0604 12.5663 17.8682 12.646 17.6995C12.7242 17.4713 12.6373 17.2191 12.4352 17.0874C12.2305 16.9648 11.9705 16.9858 11.7886 17.1401C10.9948 17.8714 10.5231 18.8874 10.4766 19.9656C10.4766 22.1785 12.1587 23.5 14.9767 23.5C17.7947 23.5 19.4765 22.1785 19.4765 19.9656C19.4765 17.5885 17.856 16.2861 16.5541 15.2395ZM14.9767 22.5C13.6695 22.5 11.4766 22.1705 11.4766 19.9656C11.4819 19.5562 11.5846 19.154 11.7767 18.7926C11.7826 18.8015 11.7881 18.81 11.7945 18.818C12.077 19.1769 12.5217 19.3685 12.9765 19.3275C13.605 19.3275 14.2765 18.9476 14.2765 17.8775C14.2326 17.4035 14.0618 16.9501 13.7821 16.5651C13.4965 16.1715 13.3221 15.7082 13.2765 15.2241C13.2907 14.5331 13.5004 13.8602 13.881 13.2834C13.9561 14.4336 14.9146 15.2056 15.9277 16.019C17.1806 17.0266 18.4776 18.0691 18.4776 19.9656C18.4765 22.1705 16.2836 22.5 14.9767 22.5Z" fill="#0088CC"/>
</svg>
