<svg width="27" height="27" viewBox="0 0 27 27" fill="none" xmlns="http://www.w3.org/2000/svg">
<g clip-path="url(#clip0_38_16650)">
<path d="M26.2822 16.207C26.1286 16.1182 25.9442 16.0993 25.7759 16.1551L22.0408 17.3955L19.7642 16.0809L22.3427 15.1727C22.4827 15.1237 22.6002 15.0262 22.6745 14.8974L22.6991 14.8548C22.8707 14.5577 22.769 14.1778 22.4719 14.0065C22.3185 13.9179 22.134 13.899 21.9656 13.9548L18.2307 15.1949L16.1936 14.0194V12.9806L18.2303 11.8046L21.9652 13.0447C22.1335 13.1005 22.3181 13.0821 22.4715 12.9931C22.7685 12.8217 22.8703 12.4418 22.6986 12.1447L22.6745 12.1017C22.6002 11.9734 22.4827 11.8758 22.3427 11.8261L19.7642 10.9183L22.0408 9.60365L25.7759 10.844C25.9442 10.8998 26.1286 10.8813 26.2822 10.7921C26.579 10.6207 26.6808 10.2408 26.5094 9.944L26.4845 9.90115C26.4103 9.77284 26.2929 9.67528 26.153 9.62584L23.5745 8.71773L24.855 7.97836C25.2857 7.73007 25.4329 7.17923 25.1846 6.74901C24.9361 6.31835 24.3857 6.17114 23.955 6.41964L22.6745 7.15901L23.1774 4.47202C23.2049 4.32612 23.179 4.17539 23.1051 4.0473L23.0803 4.00445C22.9089 3.70738 22.529 3.60587 22.2322 3.77726C22.0786 3.8658 21.9703 4.0161 21.9342 4.1899L21.1403 8.04449L18.8638 9.35888L19.3669 6.67211C19.3944 6.52621 19.3683 6.37548 19.2944 6.24716L19.2698 6.20454C19.0982 5.90747 18.7185 5.80574 18.4214 5.97734C18.2681 6.06589 18.1595 6.21618 18.1235 6.38998L17.3298 10.2446L15.87 11.0874L14.3936 10.3498V8.54986L17.3351 5.93537C17.4674 5.8176 17.5436 5.6482 17.5436 5.4711C17.5436 5.12811 17.2655 4.84994 16.9225 4.84994H16.8735C16.7254 4.84994 16.5819 4.90312 16.4694 4.99936L14.3936 6.77867V4.15035L17.3351 1.53586C17.4674 1.41743 17.5436 1.24869 17.5436 1.07093C17.5436 0.728162 17.2655 0.449993 16.9225 0.449993H16.8735C16.7254 0.449993 16.5819 0.503165 16.4694 0.599404L14.3936 2.37872V0.899985C14.3936 0.402752 13.9909 0 13.4936 0C12.9962 0 12.5936 0.402752 12.5936 0.899985V2.37872L10.5181 0.599844C10.4056 0.503605 10.2621 0.450432 10.114 0.450432H10.0646C9.7216 0.450432 9.44364 0.728601 9.44364 1.07137C9.44364 1.24869 9.51967 1.41787 9.65194 1.53586L12.5936 4.15035V6.77867L10.5181 4.99979C10.4056 4.90356 10.2621 4.85038 10.114 4.85038H10.0646C9.7216 4.85038 9.44364 5.12855 9.44364 5.47154C9.44364 5.64886 9.51967 5.81804 9.65194 5.93581L12.5936 8.54986V10.3498L11.1166 11.0883L9.65678 10.2455L8.86312 6.39086C8.82753 6.21706 8.71898 6.06677 8.56518 5.97822C8.26811 5.80662 7.88842 5.90835 7.71681 6.20541L7.6922 6.24804C7.61793 6.37636 7.59223 6.52709 7.61969 6.67298L8.12287 9.35976L5.84628 8.04537L5.05241 4.19077C5.01681 4.01697 4.90849 3.86668 4.75446 3.77814C4.45761 3.60675 4.0777 3.70848 3.90631 4.00533L3.88148 4.04817C3.80722 4.17627 3.78173 4.32722 3.80919 4.4729L4.31215 7.15989L3.03158 6.42052C2.60092 6.17202 2.0505 6.31923 1.80199 6.74989C1.5537 7.18054 1.70092 7.73095 2.13158 7.97924L3.41215 8.71861L0.833657 9.62672C0.693691 9.67572 0.576357 9.77349 0.50209 9.90203L0.477261 9.94488C0.305874 10.2417 0.407607 10.6216 0.704458 10.793C0.858047 10.8818 1.0424 10.9007 1.21071 10.8449L4.94584 9.60475L7.22243 10.9191L4.64394 11.8272C4.50397 11.8762 4.38642 11.9738 4.31215 12.1026L4.28754 12.1454C4.11593 12.4422 4.21767 12.8222 4.51474 12.9935C4.66811 13.0821 4.85268 13.101 5.02099 13.0454L8.7559 11.8051L10.7936 12.9806V14.0194L8.75678 15.1954L5.02186 13.9553C4.85355 13.8995 4.66898 13.9179 4.51561 14.0069C4.21854 14.1783 4.11681 14.5582 4.28842 14.8552L4.31303 14.8979C4.38729 15.0262 4.50485 15.1237 4.64481 15.1734L7.22331 16.0813L4.94672 17.3959L1.21159 16.1556C1.04328 16.0998 0.858926 16.1182 0.705337 16.2074C0.408486 16.3788 0.306753 16.7587 0.478139 17.0556L0.502969 17.0984C0.577236 17.2267 0.69457 17.3243 0.834536 17.3737L3.41303 18.2818L2.13246 19.0212C1.7018 19.2695 1.55458 19.8199 1.80309 20.2505C2.05138 20.6812 2.6018 20.8284 3.03246 20.5799L4.31303 19.8405L3.81007 22.5275C3.78261 22.6734 3.80853 22.8242 3.88236 22.9523L3.90719 22.9951C4.07858 23.2922 4.45849 23.3937 4.75534 23.2223C4.90893 23.1337 5.01725 22.9835 5.05329 22.8097L5.84716 18.9551L8.12374 17.6407L7.62057 20.3274C7.5931 20.4733 7.61925 20.6241 7.69308 20.7524L7.71769 20.795C7.8893 21.0921 8.26898 21.1938 8.56605 21.0222C8.71942 20.9337 8.82797 20.7834 8.864 20.6096L9.65766 16.755L11.1175 15.9121L12.5936 16.6497V18.4497L9.65194 21.0642C9.51967 21.1826 9.44364 21.3514 9.44364 21.5285C9.44364 21.8714 9.7216 22.1496 10.0646 22.1496H10.1136C10.2617 22.1496 10.4052 22.0964 10.5177 22.0002L12.5936 20.2213V22.8496L9.65194 25.4641C9.51967 25.5821 9.44364 25.7513 9.44364 25.9286C9.44364 26.2714 9.7216 26.5496 10.0646 26.5496H10.1136C10.2617 26.5496 10.4052 26.4964 10.5177 26.4001L12.5936 24.6213V26.1C12.5936 26.5972 12.9962 27 13.4936 27C13.9909 27 14.3936 26.5972 14.3936 26.1V24.6213L16.469 26.4001C16.5815 26.4964 16.7249 26.5496 16.873 26.5496H16.922C17.265 26.5496 17.543 26.2714 17.543 25.9286C17.543 25.7513 17.467 25.5821 17.3347 25.4641L14.3936 22.8496V20.2213L16.469 22.0002C16.5815 22.0964 16.7249 22.1496 16.873 22.1496H16.922C17.265 22.1496 17.543 21.8714 17.543 21.5285C17.543 21.3514 17.467 21.1819 17.3347 21.0642L14.3936 18.4497V16.6497L15.8704 15.9112L17.3303 16.7541L18.1239 20.6087C18.1595 20.7825 18.2681 20.9328 18.4219 21.0213C18.719 21.1929 19.0986 21.0912 19.2703 20.7941L19.2949 20.7515C19.3691 20.6232 19.3948 20.4725 19.3674 20.3266L18.8642 17.6398L21.1408 18.9542L21.9347 22.8088C21.9703 22.9826 22.0786 23.1329 22.2326 23.2214C22.5295 23.3928 22.9094 23.2911 23.0808 22.9942L23.1056 22.9514C23.1798 22.8233 23.2053 22.6723 23.1781 22.5267L22.6749 19.8397L23.9555 20.579C24.3861 20.8275 24.9366 20.6799 25.1851 20.2497C25.4334 19.819 25.2861 19.2686 24.8555 19.0203L23.5749 18.2809L26.1534 17.3728C26.2934 17.3238 26.4107 17.2261 26.485 17.0975L26.5098 17.0547C26.6812 16.7583 26.5795 16.3784 26.2822 16.207ZM14.3936 14.3998L13.4936 14.8498L12.5936 14.3998V12.5998L13.4936 12.1498L14.3936 12.5998V14.3998Z" fill="#0088CC"/>
</g>
<defs>
<clipPath id="clip0_38_16650">
<rect width="27" height="27" fill="white"/>
</clipPath>
</defs>
</svg>
