<svg width="30" height="30" viewBox="0 0 30 30" fill="none" xmlns="http://www.w3.org/2000/svg">
<path d="M1.1 17.0705C1.03459 17.2043 1.00039 17.3511 1 17.5V18.5C1 18.7652 1.10536 19.0196 1.29289 19.2071C1.48043 19.3946 1.73478 19.5 2 19.5H3.013C2.6821 19.9302 2.50184 20.4573 2.5 21C2.49848 21.5257 2.66321 22.0384 2.97063 22.4648C3.27805 22.8912 3.71242 23.2095 4.21163 23.3742C4.71085 23.5389 5.24936 23.5415 5.75016 23.3817C6.25097 23.2219 6.68843 22.9079 7 22.4845C7.28597 22.8735 7.6788 23.171 8.13073 23.3409C8.58265 23.5108 9.07421 23.5457 9.54561 23.4414C10.017 23.3371 10.448 23.0981 10.786 22.7535C11.1241 22.4088 11.3548 21.9733 11.45 21.5H14.5925C14.6955 21.7914 14.886 22.0438 15.1379 22.2228C15.3899 22.4018 15.691 22.4986 16 22.5H20C20.3091 22.4987 20.6103 22.402 20.8624 22.223C21.1144 22.044 21.305 21.7915 21.408 21.5H22.55C22.6648 22.0651 22.9714 22.5732 23.4179 22.9382C23.8644 23.3031 24.4233 23.5025 25 23.5025C25.5767 23.5025 26.1356 23.3031 26.5821 22.9382C27.0286 22.5732 27.3352 22.0651 27.45 21.5H29C29.2652 21.5 29.5196 21.3946 29.7071 21.2071C29.8946 21.0196 30 20.7652 30 20.5V19.5C29.9995 19.3252 29.953 19.1537 29.8652 19.0026C29.7775 18.8515 29.6515 18.7261 29.5 18.639V15.32C29.4991 14.9736 29.3786 14.6382 29.159 14.3704C28.9393 14.1026 28.634 13.9187 28.2945 13.85L24.3945 13.0705L23.6855 10.589C23.5952 10.2763 23.4062 10.0013 23.1466 9.80499C22.8871 9.6087 22.5709 9.5017 22.2455 9.5H17.5C17.1022 9.5 16.7206 9.65804 16.4393 9.93934C16.158 10.2206 16 10.6022 16 11V16.5H14.487C14.8179 16.0698 14.9982 15.5427 15 15V11C14.9992 10.3372 14.7356 9.70178 14.2669 9.23311C13.7982 8.76444 13.1628 8.50079 12.5 8.5V8C12.5 7.60218 12.342 7.22064 12.0607 6.93934C11.7794 6.65804 11.3978 6.5 11 6.5H10C9.60218 6.5 9.22064 6.65804 8.93934 6.93934C8.65804 7.22064 8.5 7.60218 8.5 8V8.5H6.5V8C6.5 7.60218 6.34196 7.22064 6.06066 6.93934C5.77936 6.65804 5.39782 6.5 5 6.5H4C3.60218 6.5 3.22064 6.65804 2.93934 6.93934C2.65804 7.22064 2.5 7.60218 2.5 8V8.5C1.8372 8.50079 1.20178 8.76444 0.73311 9.23311C0.264441 9.70178 0.000793929 10.3372 0 11L0 15C0.000119614 15.4087 0.100459 15.8112 0.292231 16.1722C0.484003 16.5332 0.761357 16.8416 1.1 17.0705ZM5 22.5C4.70333 22.5 4.41332 22.412 4.16664 22.2472C3.91997 22.0824 3.72771 21.8481 3.61418 21.574C3.50065 21.2999 3.47094 20.9983 3.52882 20.7074C3.5867 20.4164 3.72956 20.1491 3.93934 19.9393C4.14912 19.7296 4.41639 19.5867 4.70736 19.5288C4.99834 19.4709 5.29994 19.5007 5.57403 19.6142C5.84811 19.7277 6.08238 19.92 6.2472 20.1666C6.41203 20.4133 6.5 20.7033 6.5 21C6.5 21.3978 6.34196 21.7794 6.06066 22.0607C5.77936 22.342 5.39782 22.5 5 22.5ZM9 22.5C8.70333 22.5 8.41332 22.412 8.16665 22.2472C7.91997 22.0824 7.72771 21.8481 7.61418 21.574C7.50065 21.2999 7.47094 20.9983 7.52882 20.7074C7.5867 20.4164 7.72956 20.1491 7.93934 19.9393C8.14912 19.7296 8.41639 19.5867 8.70736 19.5288C8.99834 19.4709 9.29994 19.5007 9.57403 19.6142C9.84811 19.7277 10.0824 19.92 10.2472 20.1666C10.412 20.4133 10.5 20.7033 10.5 21C10.5 21.3978 10.342 21.7794 10.0607 22.0607C9.77936 22.342 9.39782 22.5 9 22.5ZM14.5 20.5H11.45C11.3729 20.1362 11.2148 19.7944 10.9875 19.5H14.5925C14.5331 19.6601 14.5018 19.8293 14.5 20V20.5ZM15.5 21V20C15.5 19.8674 15.5527 19.7402 15.6464 19.6464C15.7402 19.5527 15.8674 19.5 16 19.5H17.5V21.5H16C15.8674 21.5 15.7402 21.4473 15.6464 21.3536C15.5527 21.2598 15.5 21.1326 15.5 21ZM20.5 21C20.5 21.1326 20.4473 21.2598 20.3536 21.3536C20.2598 21.4473 20.1326 21.5 20 21.5H18.5V19.5H20C20.1326 19.5 20.2598 19.5527 20.3536 19.6464C20.4473 19.7402 20.5 19.8674 20.5 20V21ZM25 22.5C24.7033 22.5 24.4133 22.412 24.1666 22.2472C23.92 22.0824 23.7277 21.8481 23.6142 21.574C23.5007 21.2999 23.4709 20.9983 23.5288 20.7074C23.5867 20.4164 23.7296 20.1491 23.9393 19.9393C24.1491 19.7296 24.4164 19.5867 24.7074 19.5288C24.9983 19.4709 25.2999 19.5007 25.574 19.6142C25.8481 19.7277 26.0824 19.92 26.2472 20.1666C26.412 20.4133 26.5 20.7033 26.5 21C26.5 21.3978 26.342 21.7794 26.0607 22.0607C25.7794 22.342 25.3978 22.5 25 22.5ZM29 20.5H27.45C27.3729 20.1362 27.2148 19.7944 26.9875 19.5H29V20.5ZM28.5 15.32V16H27.5C27.3674 16 27.2402 15.9473 27.1464 15.8536C27.0527 15.7598 27 15.6326 27 15.5V14.61L28.1 14.8295C28.213 14.8526 28.3146 14.914 28.3875 15.0034C28.4604 15.0928 28.5001 15.2046 28.5 15.32ZM22.726 10.8625L23.337 13H20.5C20.3674 13 20.2402 12.9473 20.1464 12.8536C20.0527 12.7598 20 12.6326 20 12.5V10.5H22.2455C22.3541 10.5 22.4597 10.5354 22.5464 10.6008C22.6331 10.6662 22.6961 10.7581 22.726 10.8625ZM17.5 10.5H19V12.5C19 12.8978 19.158 13.2794 19.4393 13.5607C19.7206 13.842 20.1022 14 20.5 14H23.95L26 14.41V15.5C26 15.8978 26.158 16.2794 26.4393 16.5607C26.7206 16.842 27.1022 17 27.5 17H28.5V18.5H25C24.4239 18.5007 23.8657 18.7 23.4194 19.0644C22.9731 19.4287 22.666 19.9357 22.55 20.5H21.5V20C21.5 19.6022 21.342 19.2206 21.0607 18.9393C20.7794 18.658 20.3978 18.5 20 18.5H17V11C17 10.8674 17.0527 10.7402 17.1464 10.6464C17.2402 10.5527 17.3674 10.5 17.5 10.5ZM16 18.5H9C8.61045 18.5011 8.22658 18.5935 7.87923 18.7699C7.53189 18.9463 7.23074 19.2016 7 19.5155C6.76926 19.2016 6.46811 18.9463 6.12077 18.7699C5.77342 18.5935 5.38955 18.5011 5 18.5H2V17.5H16V18.5ZM9.5 8C9.5 7.86739 9.55268 7.74021 9.64645 7.64645C9.74021 7.55268 9.86739 7.5 10 7.5H11C11.1326 7.5 11.2598 7.55268 11.3536 7.64645C11.4473 7.74021 11.5 7.86739 11.5 8V8.5H9.5V8ZM3.5 8C3.5 7.86739 3.55268 7.74021 3.64645 7.64645C3.74021 7.55268 3.86739 7.5 4 7.5H5C5.13261 7.5 5.25979 7.55268 5.35355 7.64645C5.44732 7.74021 5.5 7.86739 5.5 8V8.5H3.5V8ZM1 11C1 10.6022 1.15804 10.2206 1.43934 9.93934C1.72064 9.65804 2.10218 9.5 2.5 9.5H12.5C12.8978 9.5 13.2794 9.65804 13.5607 9.93934C13.842 10.2206 14 10.6022 14 11V15C14 15.3978 13.842 15.7794 13.5607 16.0607C13.2794 16.342 12.8978 16.5 12.5 16.5H2.5C2.10218 16.5 1.72064 16.342 1.43934 16.0607C1.15804 15.7794 1 15.3978 1 15V11Z" fill="#EA9309"/>
<path d="M2.5 15C2.63261 15 2.75979 14.9473 2.85355 14.8536C2.94732 14.7598 3 14.6326 3 14.5V11.5C3 11.3674 2.94732 11.2402 2.85355 11.1464C2.75979 11.0527 2.63261 11 2.5 11C2.36739 11 2.24021 11.0527 2.14645 11.1464C2.05268 11.2402 2 11.3674 2 11.5V14.5C2 14.6326 2.05268 14.7598 2.14645 14.8536C2.24021 14.9473 2.36739 15 2.5 15Z" fill="#EA9309"/>
<path d="M12.5 15C12.6326 15 12.7598 14.9473 12.8536 14.8536C12.9473 14.7598 13 14.6326 13 14.5V11.5C13 11.3674 12.9473 11.2402 12.8536 11.1464C12.7598 11.0527 12.6326 11 12.5 11C12.3674 11 12.2402 11.0527 12.1464 11.1464C12.0527 11.2402 12 11.3674 12 11.5V14.5C12 14.6326 12.0527 14.7598 12.1464 14.8536C12.2402 14.9473 12.3674 15 12.5 15Z" fill="#EA9309"/>
</svg>
