<svg width="20" height="20" viewBox="0 0 20 20" fill="none" xmlns="http://www.w3.org/2000/svg">
<path d="M18.3334 9.78521C18.3334 14.2691 14.6706 17.9039 10.1515 17.9039C8.71687 17.9039 7.36909 17.5372 6.1965 16.8937L1.66669 18.3332L3.14354 13.9772C2.39854 12.7539 1.96946 11.3191 1.96946 9.78521C1.96946 5.30132 5.63261 1.6665 10.1515 1.6665C14.6709 1.6665 18.3334 5.30132 18.3334 9.78521ZM10.1515 2.95947C6.35817 2.95947 3.27261 6.0215 3.27261 9.78521C3.27261 11.2787 3.75946 12.6619 4.58298 13.7871L3.72354 16.3221L6.36706 15.4819C7.45317 16.195 8.75428 16.6109 10.1517 16.6109C13.9445 16.6109 17.0306 13.5493 17.0306 9.78558C17.0306 6.02187 13.9447 2.95947 10.1515 2.95947ZM14.2832 11.655C14.2326 11.5722 14.0991 11.5222 13.8987 11.4228C13.698 11.3234 12.7117 10.8417 12.5284 10.7756C12.3445 10.7093 12.2104 10.6759 12.0769 10.875C11.9434 11.0743 11.5589 11.5222 11.4417 11.655C11.3247 11.7882 11.2078 11.8048 11.0071 11.7052C10.8067 11.6058 10.1606 11.3954 9.39446 10.7176C8.79835 10.1902 8.39576 9.5391 8.27872 9.33965C8.16187 9.14058 8.2665 9.03299 8.36669 8.93391C8.45706 8.84465 8.56743 8.7015 8.66761 8.58539C8.76817 8.4691 8.8015 8.38632 8.86798 8.25336C8.93521 8.12058 8.90169 8.00447 8.85132 7.90465C8.80132 7.80521 8.39984 6.82595 8.2328 6.42743C8.06576 6.02928 7.89891 6.09558 7.78169 6.09558C7.66484 6.09558 7.53095 6.07891 7.39724 6.07891C7.26354 6.07891 7.04613 6.12873 6.86224 6.3278C6.67854 6.52706 6.16058 7.00854 6.16058 7.98762C6.16058 8.96687 6.87891 9.91299 6.97947 10.0456C7.07965 10.1782 8.3665 12.253 10.4054 13.0498C12.4445 13.8463 12.4445 13.5806 12.8122 13.5472C13.1797 13.5141 13.9985 13.0659 14.1663 12.6015C14.333 12.1363 14.333 11.738 14.2832 11.655Z" fill="#43D854"/>
</svg>
