<svg width="20" height="20" viewBox="0 0 20 20" fill="none" xmlns="http://www.w3.org/2000/svg">
<path d="M18.3333 9.78545C18.3333 14.2693 14.6705 17.9042 10.1515 17.9042C8.71684 17.9042 7.36906 17.5375 6.19647 16.894L1.66666 18.3334L3.14351 13.9775C2.39851 12.7542 1.96943 11.3193 1.96943 9.78545C1.96943 5.30156 5.63258 1.66675 10.1515 1.66675C14.6709 1.66675 18.3333 5.30156 18.3333 9.78545ZM10.1515 2.95971C6.35814 2.95971 3.27258 6.02175 3.27258 9.78545C3.27258 11.279 3.75943 12.6621 4.58295 13.7873L3.72351 16.3223L6.36703 15.4821C7.45314 16.1953 8.75425 16.6112 10.1517 16.6112C13.9444 16.6112 17.0305 13.5495 17.0305 9.78582C17.0305 6.02212 13.9446 2.95971 10.1515 2.95971ZM14.2831 11.6553C14.2326 11.5725 14.0991 11.5225 13.8987 11.423C13.698 11.3236 12.7117 10.8419 12.5283 10.7758C12.3444 10.7095 12.2104 10.6762 12.0768 10.8753C11.9433 11.0745 11.5589 11.5225 11.4417 11.6553C11.3246 11.7884 11.2078 11.8051 11.007 11.7055C10.8067 11.606 10.1605 11.3956 9.39443 10.7179C8.79832 10.1905 8.39573 9.53934 8.27869 9.3399C8.16184 9.14082 8.26647 9.03323 8.36666 8.93416C8.45703 8.8449 8.5674 8.70175 8.66758 8.58564C8.76814 8.46934 8.80147 8.38656 8.86795 8.2536C8.93518 8.12082 8.90166 8.00471 8.85129 7.9049C8.80129 7.80545 8.39981 6.82619 8.23277 6.42767C8.06573 6.02953 7.89888 6.09582 7.78166 6.09582C7.6648 6.09582 7.53092 6.07916 7.39721 6.07916C7.26351 6.07916 7.0461 6.12897 6.86221 6.32804C6.67851 6.5273 6.16055 7.00879 6.16055 7.98786C6.16055 8.96712 6.87888 9.91323 6.97943 10.0458C7.07962 10.1784 8.36647 12.2532 10.4054 13.0501C12.4444 13.8466 12.4444 13.5808 12.8122 13.5475C13.1796 13.5143 13.9985 13.0662 14.1663 12.6017C14.333 12.1366 14.333 11.7382 14.2831 11.6553Z" fill="white"/>
</svg>
