<svg width="189" height="85" viewBox="0 0 189 85" fill="none" xmlns="http://www.w3.org/2000/svg">
<g clip-path="url(#clip0_34_9000)">
<path fill-rule="evenodd" clip-rule="evenodd" d="M-0.0761719 0C62.9238 0 125.924 0 188.924 0C188.924 28.3333 188.924 56.6667 188.924 85C125.924 85 62.9238 85 -0.0761719 85C-0.0761719 56.6667 -0.0761719 28.3333 -0.0761719 0Z" fill="#333333"/>
<path fill-rule="evenodd" clip-rule="evenodd" d="M26.0151 57.1839C21.3174 57.1839 16.6197 57.1839 11.922 57.1839C11.922 62.6821 11.922 68.1803 11.922 73.6785C11.8459 68.1681 11.8204 62.6439 11.8458 57.1076C16.5818 57.0824 21.3049 57.1076 26.0151 57.1839Z" fill="#D1504D"/>
<path fill-rule="evenodd" clip-rule="evenodd" d="M26.0152 57.1833C26.0152 58.2776 26.0152 59.3727 26.0152 60.467C22.6379 60.467 19.2606 60.467 15.8834 60.467C15.8834 64.8709 15.8834 69.274 15.8834 73.6779C14.563 73.6779 13.2425 73.6779 11.9221 73.6779C11.9221 68.1797 11.9221 62.6815 11.9221 57.1833C16.6198 57.1833 21.3174 57.1833 26.0152 57.1833Z" fill="#BC0401"/>
<path fill-rule="evenodd" clip-rule="evenodd" d="M138.074 73.6784C138.099 71.1576 138.074 68.6376 137.998 66.1184C137.952 66.1275 137.927 66.1535 137.922 66.1947C137.127 66.6857 136.264 67.0034 135.332 67.1493C133.173 67.3005 131.015 67.3005 128.857 67.1493C126.135 66.6094 124.726 64.9416 124.629 62.1474C124.591 60.4934 124.578 58.8386 124.591 57.1838C125.911 57.1838 127.232 57.1838 128.552 57.1838C128.527 58.6225 128.552 60.0482 128.628 61.4602C128.62 62.9149 129.331 63.7419 130.761 63.942C132.26 63.9932 133.757 63.9932 135.256 63.942C136.382 63.9313 137.283 63.4861 137.96 62.6056C137.985 60.7981 138.011 58.9913 138.036 57.1838C139.338 57.0952 140.646 57.083 141.959 57.1456C142.036 62.6514 142.061 68.1618 142.036 73.6784C140.715 73.6784 139.395 73.6784 138.074 73.6784Z" fill="#BC0602"/>
<path fill-rule="evenodd" clip-rule="evenodd" d="M124.591 57.1839C125.923 57.1076 127.269 57.0824 128.628 57.1076C128.628 58.5585 128.628 60.0094 128.628 61.4603C128.552 60.0483 128.527 58.6226 128.552 57.1839C127.232 57.1839 125.911 57.1839 124.591 57.1839Z" fill="#E7A1A1"/>
<path fill-rule="evenodd" clip-rule="evenodd" d="M109.126 61.7655C108.954 61.696 108.789 61.6708 108.631 61.6891C107.316 61.7395 106.008 61.7907 104.708 61.8418C104.423 61.2966 104.118 60.762 103.794 60.2382C103.488 60.7491 103.184 61.2584 102.88 61.7655C101.345 61.7708 99.8463 61.7708 98.3852 61.7655C99.1965 60.2405 100.009 58.7132 100.823 57.1836C102.778 57.0943 104.733 57.0821 106.689 57.1455C107.531 58.6697 108.344 60.2092 109.126 61.7655Z" fill="#EA9309"/>
<path fill-rule="evenodd" clip-rule="evenodd" d="M90.3102 62.1474C90.3102 62.0198 90.3102 61.8931 90.3102 61.7656C89.0152 61.7656 87.7201 61.7656 86.4251 61.7656C86.3527 60.9676 85.9208 60.4964 85.1301 60.3528C82.4128 60.3017 79.6962 60.3017 76.9789 60.3528C76.2308 60.5567 75.8755 61.0531 75.9124 61.8419C74.5665 61.8419 73.2208 61.8419 71.8749 61.8419C71.7811 60.3009 72.3143 59.0409 73.4747 58.0619C74.4391 57.5083 75.4802 57.2028 76.598 57.1456C79.5179 57.0944 82.4387 57.0944 85.3586 57.1456C86.1836 57.2326 86.9964 57.3853 87.7963 57.6037C89.0479 58.0688 89.8478 58.947 90.196 60.2383C90.3727 60.8797 90.4108 61.5158 90.3102 62.1474Z" fill="#EA940A"/>
<path fill-rule="evenodd" clip-rule="evenodd" d="M86.425 61.7654C87.7201 61.7654 89.0151 61.7654 90.3102 61.7654C90.3102 61.8929 90.3102 62.0197 90.3102 62.1472C90.3147 63.6561 89.6291 64.713 88.2533 65.3163C88.3569 65.3873 88.4582 65.4515 88.558 65.5072C84.6478 65.5072 80.7367 65.5072 76.8265 65.5072C76.8265 64.9727 76.8265 64.4381 76.8265 63.9036C79.5941 63.9165 82.3624 63.9036 85.13 63.8654C86.1089 63.521 86.5408 62.8207 86.425 61.7654Z" fill="#E98C05"/>
<path fill-rule="evenodd" clip-rule="evenodd" d="M98.3852 61.7654C99.8463 61.7707 101.345 61.7707 102.88 61.7654C102.277 63.0498 101.617 64.2968 100.899 65.5072C99.3885 65.511 97.89 65.511 96.4045 65.5072C97.0841 64.2724 97.7445 63.0246 98.3852 61.7654Z" fill="#E98D05"/>
<path fill-rule="evenodd" clip-rule="evenodd" d="M109.126 61.7652C109.806 63 110.466 64.2478 111.107 65.5071C109.591 65.5071 108.093 65.5071 106.612 65.5071C105.942 64.3166 105.308 63.0947 104.708 61.8416C106.008 61.7904 107.316 61.7393 108.631 61.6889C108.789 61.6706 108.954 61.6958 109.126 61.7652Z" fill="#E98D05"/>
<path fill-rule="evenodd" clip-rule="evenodd" d="M44.1457 65.8125C44.1457 68.434 44.1457 71.0564 44.1457 73.6779C42.8253 73.6779 41.5048 73.6779 40.1844 73.6779C40.1971 73.2701 40.1844 72.8624 40.1463 72.4561C39.8216 72.9341 39.4026 73.3037 38.8894 73.5634C37.5722 73.6497 36.2517 73.6878 34.9281 73.6779C33.5795 73.6871 32.2336 73.6489 30.8906 73.5634C29.6121 73.2747 28.8122 72.4981 28.491 71.2343C28.4264 70.2645 28.4517 69.2969 28.5671 68.3325C28.7702 67.5054 29.2653 66.9327 30.0526 66.6143C30.6899 66.3653 31.3501 66.2126 32.0333 66.1561C34.2171 66.1049 36.4009 66.1049 38.5847 66.1561C39.2576 66.2325 39.7782 66.5501 40.1463 67.1106C40.2159 66.4173 40.1905 65.73 40.0702 65.0488C39.8355 64.7334 39.5181 64.5425 39.1179 64.4761C37.1651 64.3539 35.2098 64.3287 33.2521 64.3997C32.5652 64.3623 32.2605 64.6808 32.338 65.3543C31.0938 65.3543 29.8495 65.3543 28.6052 65.3543C28.5741 63.7239 29.3359 62.6678 30.8906 62.1852C31.3124 62.0531 31.7441 61.9767 32.1856 61.9561C34.8011 61.9049 37.4166 61.9049 40.0321 61.9561C41.5587 61.9889 42.7649 62.6128 43.6506 63.827C44.0043 64.4417 44.1694 65.103 44.1457 65.8125Z" fill="#BC0301"/>
<path fill-rule="evenodd" clip-rule="evenodd" d="M52.4493 68.7143C52.4493 67.9758 52.4493 67.2382 52.4493 66.4997C53.8084 66.5249 55.1542 66.4997 56.4868 66.4234C57.337 66.2004 57.6036 65.6658 57.2866 64.8197C57.0866 64.6113 56.8453 64.4715 56.5629 64.3997C54.8616 64.3486 53.1603 64.3486 51.4589 64.3997C51.0543 64.4814 50.7115 64.6724 50.4305 64.9725C50.3927 65.1748 50.3799 65.378 50.3924 65.5834C49.1989 65.5834 48.0055 65.5834 46.812 65.5834C46.6379 63.3757 47.6537 62.1669 49.8592 61.9561C52.4746 61.9049 55.0902 61.9049 57.7056 61.9561C60.4593 62.2677 61.4878 63.782 60.7909 66.4997C60.5242 67.0725 60.1053 67.4925 59.5339 67.7597C60.4748 68.0415 61.0461 68.6646 61.2479 69.6306C61.552 72.1774 60.4219 73.5137 57.858 73.6397C55.1155 73.6909 52.3731 73.6909 49.6307 73.6397C47.4653 73.3648 46.3988 72.1308 46.4311 69.9361C47.6246 69.9361 48.8181 69.9361 50.0115 69.9361C49.9553 70.6264 50.26 71.0464 50.9257 71.1961C52.8048 71.2473 54.6838 71.2473 56.5629 71.1961C57.7126 70.9151 58.0299 70.2408 57.5152 69.1725C57.2962 68.9464 57.0295 68.8059 56.7153 68.7525C55.2935 68.7143 53.8715 68.7013 52.4493 68.7143Z" fill="#BC0201"/>
<path fill-rule="evenodd" clip-rule="evenodd" d="M148.435 65.2782C147.191 65.2782 145.946 65.2782 144.702 65.2782C144.702 65.1255 144.702 64.9728 144.702 64.82C145.01 63.1752 146 62.2458 147.673 62.0328C150.464 61.9098 153.258 61.8839 156.053 61.9564C157.485 61.9763 158.666 62.523 159.595 63.5982C159.883 64.074 160.086 64.5826 160.204 65.1255C160.242 67.9762 160.255 70.8276 160.242 73.6782C158.922 73.6782 157.601 73.6782 156.281 73.6782C156.294 73.2704 156.281 72.8627 156.243 72.4564C155.874 73.0559 155.353 73.4507 154.681 73.64C152.269 73.6912 149.857 73.6912 147.444 73.64C146.285 73.5247 145.409 72.9772 144.816 71.9982C144.728 71.7218 144.652 71.4415 144.588 71.1582C144.521 70.1876 144.547 69.2201 144.664 68.2564C144.924 67.4111 145.469 66.8383 146.302 66.5382C146.897 66.3458 147.506 66.2183 148.13 66.1564C150.314 66.1052 152.497 66.1052 154.681 66.1564C155.355 66.2328 155.875 66.5504 156.243 67.1109C156.294 66.5 156.294 65.8891 156.243 65.2782C156.046 64.778 155.678 64.5108 155.138 64.4764C153.211 64.3535 151.281 64.3283 149.349 64.4C148.7 64.3512 148.395 64.6436 148.435 65.2782Z" fill="#BC0301"/>
<path fill-rule="evenodd" clip-rule="evenodd" d="M177.916 65.507C177.916 65.6597 177.916 65.8125 177.916 65.9652C176.672 65.9652 175.427 65.9652 174.183 65.9652C174.195 65.2 173.814 64.78 173.04 64.7052C171.259 64.6326 169.482 64.6586 167.708 64.7816C167.034 65.0244 166.615 65.4956 166.451 66.1943C166.4 67.2634 166.4 68.3325 166.451 69.4016C166.624 70.1354 167.068 70.6318 167.784 70.8906C169.612 70.9418 171.44 70.9418 173.269 70.8906C173.663 70.8273 173.93 70.6112 174.069 70.2416C174.101 69.9598 174.139 69.6795 174.183 69.4016C175.427 69.4016 176.672 69.4016 177.916 69.4016C178.132 72.1499 176.863 73.5626 174.107 73.6397C171.492 73.6909 168.876 73.6909 166.26 73.6397C164.191 73.3213 162.934 72.1377 162.489 70.0888C162.438 68.5616 162.438 67.0343 162.489 65.507C162.95 63.391 164.258 62.2073 166.413 61.9561C168.901 61.9049 171.389 61.9049 173.878 61.9561C174.786 62.021 175.65 62.2501 176.468 62.6434C177.483 63.3161 177.965 64.2707 177.916 65.507Z" fill="#BC0301"/>
<path fill-rule="evenodd" clip-rule="evenodd" d="M144.702 64.8201C144.702 64.9728 144.702 65.1255 144.702 65.2783C145.946 65.2783 147.191 65.2783 148.435 65.2783C147.179 65.3546 145.909 65.3798 144.626 65.3546C144.603 65.1591 144.628 64.9812 144.702 64.8201Z" fill="#CE4542"/>
<path fill-rule="evenodd" clip-rule="evenodd" d="M111.107 65.5076C111.793 66.8332 112.479 68.1566 113.164 69.4785C111.769 69.5251 110.36 69.5755 108.936 69.6312C108.86 69.58 108.784 69.5296 108.707 69.4785C108.677 69.496 108.664 69.5212 108.669 69.5548C105.362 69.5296 102.061 69.5556 98.766 69.6312C97.4656 69.58 96.1576 69.5289 94.8428 69.4785C94.7917 69.5296 94.7414 69.58 94.6904 69.6312C94.5609 69.5617 94.4215 69.5365 94.2714 69.5548C95.002 68.2177 95.7127 66.8684 96.4044 65.5076C97.8899 65.5114 99.3884 65.5114 100.899 65.5076C100.792 65.7993 100.664 66.0788 100.518 66.3476C101.528 66.3987 102.595 66.4247 103.718 66.4239C104.809 66.3987 105.902 66.3728 106.993 66.3476C106.984 66.301 106.958 66.2758 106.917 66.2712C106.816 66.0169 106.714 65.7619 106.612 65.5076C108.093 65.5076 109.591 65.5076 111.107 65.5076Z" fill="#E98603"/>
<path fill-rule="evenodd" clip-rule="evenodd" d="M76.8265 65.5076C80.7367 65.5076 84.6478 65.5076 88.558 65.5076C89.7213 65.9535 90.4191 66.7935 90.653 68.0276C90.7154 68.5507 90.7025 69.0592 90.6149 69.5548C90.5387 69.548 90.4755 69.5739 90.4244 69.6312C90.3993 69.58 90.3734 69.5296 90.3482 69.4785C89.1842 69.577 88.0415 69.577 86.9202 69.4785C86.8082 69.5373 86.6939 69.5877 86.5774 69.6312C87.0977 67.9871 86.5134 67.0578 84.8253 66.8439C82.159 66.8058 79.4927 66.7928 76.8265 66.8058C76.8265 66.3728 76.8265 65.9406 76.8265 65.5076Z" fill="#E98703"/>
<path fill-rule="evenodd" clip-rule="evenodd" d="M177.916 65.5076C177.99 65.6687 178.015 65.8466 177.992 66.0421C176.709 66.0673 175.439 66.0421 174.183 65.9658C175.427 65.9658 176.672 65.9658 177.916 65.9658C177.916 65.813 177.916 65.6603 177.916 65.5076Z" fill="#CD4341"/>
<path fill-rule="evenodd" clip-rule="evenodd" d="M137.922 66.1943C137.927 66.153 137.952 66.1271 137.998 66.1179C138.074 68.6372 138.1 71.1572 138.074 73.6779C138.023 71.1831 137.973 68.6891 137.922 66.1943Z" fill="#DB7877"/>
<path fill-rule="evenodd" clip-rule="evenodd" d="M106.917 66.2712C106.958 66.2758 106.984 66.301 106.993 66.3476C105.902 66.3728 104.809 66.3988 103.718 66.424C102.595 66.4247 101.528 66.3988 100.518 66.3476C102.664 66.3728 104.797 66.3476 106.917 66.2712Z" fill="#F8E0BE"/>
<path fill-rule="evenodd" clip-rule="evenodd" d="M56.4867 66.4236C55.1542 66.4999 53.8083 66.5251 52.4492 66.4999C52.4492 67.2384 52.4492 67.9761 52.4492 68.7145C52.3735 67.9646 52.3481 67.201 52.373 66.4236C53.7442 66.4236 55.1155 66.4236 56.4867 66.4236Z" fill="#E39292"/>
<path fill-rule="evenodd" clip-rule="evenodd" d="M33.3283 68.6381C35.3637 68.603 37.3951 68.6412 39.4226 68.7527C39.7833 68.8344 40.0246 69.0505 40.1463 69.4017C40.4204 70.4189 40.0522 71.0168 39.0417 71.1963C37.0838 71.2681 35.1285 71.2429 33.176 71.1199C32.5886 70.9489 32.3094 70.5541 32.338 69.9363C32.3237 69.2223 32.6538 68.7901 33.3283 68.6381Z" fill="#333333"/>
<path fill-rule="evenodd" clip-rule="evenodd" d="M149.349 68.6379C151.33 68.625 153.31 68.6379 155.291 68.6761C156.168 68.919 156.485 69.4917 156.243 70.3943C156.164 70.5661 156.075 70.7311 155.976 70.8907C155.642 71.0632 155.287 71.1656 154.91 71.1961C153.002 71.2687 151.098 71.2435 149.197 71.1198C148.53 70.7723 148.289 70.2255 148.473 69.4779C148.606 69.0259 148.899 68.7456 149.349 68.6379Z" fill="#333333"/>
<path fill-rule="evenodd" clip-rule="evenodd" d="M86.5774 69.6312C86.6939 69.5876 86.8082 69.5372 86.9202 69.4784C88.0415 69.577 89.1842 69.577 90.3482 69.4784C90.3734 69.5296 90.3993 69.58 90.4244 69.6312C90.4755 69.5739 90.5387 69.5479 90.6149 69.5548C90.3795 72.1451 88.958 73.5066 86.3488 73.6403C82.7684 73.6914 79.188 73.6914 75.6076 73.6403C72.8153 73.3738 71.4696 71.8335 71.5701 69.0203C72.916 69.0203 74.2618 69.0203 75.6076 69.0203C75.7576 69.7946 76.2148 70.291 76.9788 70.5094C79.62 70.5605 82.2603 70.5605 84.9014 70.5094C85.6061 70.4742 86.1652 70.1818 86.5774 69.6312Z" fill="#E88002"/>
<path fill-rule="evenodd" clip-rule="evenodd" d="M98.7661 69.631C98.0995 70.9926 97.4139 72.3419 96.7092 73.6783C95.1727 73.7035 93.6491 73.6783 92.1385 73.6019C92.8492 72.2526 93.5608 70.904 94.2715 69.5546C94.4216 69.5363 94.561 69.5615 94.6905 69.631C94.7415 69.5798 94.7918 69.5294 94.8428 69.4783C96.1577 69.5287 97.4657 69.5798 98.7661 69.631Z" fill="#E88002"/>
<path fill-rule="evenodd" clip-rule="evenodd" d="M113.164 69.4783C113.908 70.8551 114.644 72.2419 115.373 73.6401C113.824 73.6913 112.275 73.6913 110.726 73.6401C109.989 72.3037 109.304 70.9422 108.669 69.5546C108.664 69.521 108.677 69.4958 108.707 69.4783C108.784 69.5294 108.86 69.5798 108.936 69.631C110.36 69.5753 111.769 69.5249 113.164 69.4783Z" fill="#E88002"/>
<path fill-rule="evenodd" clip-rule="evenodd" d="M44.1457 65.8123C44.2217 68.4468 44.2472 71.0936 44.2219 73.7541C42.8628 73.7793 41.5169 73.7541 40.1844 73.6777C41.5048 73.6777 42.8253 73.6777 44.1457 73.6777C44.1457 71.0561 44.1457 68.4338 44.1457 65.8123Z" fill="#E7A0A0"/>
<path fill-rule="evenodd" clip-rule="evenodd" d="M92.1385 73.6016C93.6491 73.6779 95.1727 73.7031 96.7092 73.6779C95.1727 73.7795 93.624 73.7795 92.0623 73.6779C92.0715 73.6313 92.0974 73.6061 92.1385 73.6016Z" fill="#F9DEBE"/>
<path fill-rule="evenodd" clip-rule="evenodd" d="M20.9111 79.4814C22.8878 79.4906 23.7893 80.4833 23.6155 82.4596C23.448 83.4676 22.8766 84.1167 21.9015 84.4069C19.8041 84.5696 18.8519 83.5898 19.0448 81.4669C19.2421 80.3909 19.8642 79.7296 20.9111 79.4814Z" fill="white"/>
<path fill-rule="evenodd" clip-rule="evenodd" d="M28.3767 79.4821C28.9286 79.4385 29.4618 79.5149 29.9764 79.7112C30.0416 79.9128 30.029 80.1166 29.9383 80.3221C29.9068 80.3572 29.8687 80.3824 29.8241 80.3984C28.7373 79.9548 27.912 80.235 27.3482 81.2384C27.0563 82.1158 27.2468 82.8665 27.9196 83.4912C28.5686 83.8279 29.2287 83.8401 29.9002 83.5293C30.0224 83.7691 30.0477 84.0104 29.9764 84.2548C29.3271 84.435 28.6669 84.4862 27.9958 84.4075C26.8915 83.9776 26.3329 83.1628 26.3198 81.9639C26.4412 80.6588 27.1268 79.8318 28.3767 79.4821Z" fill="white"/>
<path fill-rule="evenodd" clip-rule="evenodd" d="M36.3755 79.6344C35.1312 79.6344 33.8869 79.6344 32.6427 79.6344C32.6427 79.8383 32.6427 80.0414 32.6427 80.2453C33.1395 80.2209 33.622 80.2461 34.0901 80.3217C33.5822 80.3217 33.0744 80.3217 32.5665 80.3217C32.5665 80.0674 32.5665 79.8123 32.5665 79.558C33.8495 79.5328 35.1191 79.558 36.3755 79.6344Z" fill="#8B8B8B"/>
<path fill-rule="evenodd" clip-rule="evenodd" d="M40.1082 79.482C40.8545 79.3881 41.502 79.5912 42.0508 80.0929C42.127 80.2456 42.2032 80.3983 42.2793 80.5511C42.3682 81.821 42.4317 83.094 42.4698 84.3693C42.1904 84.3693 41.9112 84.3693 41.6318 84.3693C41.6443 84.1638 41.6316 83.9607 41.5937 83.7583C41.0617 84.3861 40.3888 84.6022 39.575 84.4074C38.6673 83.892 38.4514 83.1665 38.9275 82.2311C39.6333 81.5415 40.484 81.2361 41.4795 81.3147C41.533 80.503 41.1521 80.1211 40.3368 80.1693C39.9508 80.1624 39.5953 80.2639 39.2703 80.4747C39.1063 80.2891 39.0555 80.0853 39.1179 79.8638C39.4398 79.6889 39.7699 79.5614 40.1082 79.482Z" fill="white"/>
<path fill-rule="evenodd" clip-rule="evenodd" d="M45.974 79.5581C46.6094 79.5451 47.2442 79.5581 47.8785 79.5963C48.2873 79.6413 48.6682 79.7689 49.0212 79.9781C49.438 80.531 49.4127 81.0655 48.945 81.5817C48.7761 81.6795 48.5983 81.7558 48.4117 81.8108C49.4723 82.0659 49.7897 82.6898 49.364 83.6817C49.1915 83.9055 48.9756 84.0712 48.7165 84.1781C47.7391 84.4377 46.7488 84.5019 45.7455 84.369C45.7455 82.7906 45.7455 81.2129 45.7455 79.6345C45.8438 79.6528 45.92 79.6268 45.974 79.5581Z" fill="white"/>
<path fill-rule="evenodd" clip-rule="evenodd" d="M55.4202 79.6344C55.7642 79.5343 56.1197 79.5343 56.4867 79.6344C56.4773 79.6809 56.4519 79.7061 56.4106 79.7107C56.0956 79.6359 55.7655 79.6099 55.4202 79.6344Z" fill="#9A9A9A"/>
<path fill-rule="evenodd" clip-rule="evenodd" d="M60.3718 79.4818C61.1709 79.3574 61.8439 79.5865 62.3906 80.1691C62.4414 80.2707 62.4921 80.373 62.5429 80.4746C62.633 81.7697 62.6964 83.0679 62.7334 84.3691C62.4745 84.3935 62.2205 84.3683 61.9716 84.2927C61.9191 84.1446 61.881 83.9919 61.8573 83.8346C61.2969 84.3951 60.6239 84.586 59.8386 84.4073C59.0863 84.0056 58.8197 83.3817 59.0387 82.5364C59.3013 82.0034 59.7203 81.6597 60.2956 81.5055C60.7943 81.3673 61.3022 81.3031 61.8192 81.3146C61.8655 80.8801 61.7131 80.5364 61.3621 80.2837C60.7247 80.0889 60.1152 80.1523 59.5338 80.4746C59.443 80.3035 59.3669 80.1256 59.3053 79.94C59.6368 79.7109 59.9923 79.5582 60.3718 79.4818Z" fill="white"/>
<path fill-rule="evenodd" clip-rule="evenodd" d="M77.2073 79.4816C79.0013 79.448 79.8393 80.3384 79.7212 82.1544C78.6037 82.1544 77.4869 82.1544 76.3694 82.1544C76.3831 83.2632 76.9422 83.7977 78.0453 83.758C78.4635 83.7893 78.8574 83.7129 79.2261 83.5289C79.3441 83.7435 79.4074 83.9726 79.4165 84.2162C78.6692 84.4277 77.9074 84.4911 77.1312 84.4071C76.0184 83.997 75.4852 83.1952 75.5314 82.0016C75.5029 80.7584 76.0615 79.9184 77.2073 79.4816Z" fill="white"/>
<path fill-rule="evenodd" clip-rule="evenodd" d="M85.3585 79.6344C85.6769 79.5343 86.0076 79.5343 86.3488 79.6344C86.3397 79.6809 86.3138 79.7061 86.2727 79.7107C85.9832 79.6359 85.6785 79.6099 85.3585 79.6344Z" fill="#9B9B9B"/>
<path fill-rule="evenodd" clip-rule="evenodd" d="M112.173 79.4818C113.437 79.3374 114.236 79.872 114.573 81.0854C114.611 81.4405 114.624 81.7971 114.611 82.1545C113.494 82.1545 112.377 82.1545 111.259 82.1545C111.323 83.2114 111.882 83.7459 112.935 83.7581C113.36 83.7787 113.766 83.7024 114.154 83.529C114.278 83.7406 114.329 83.9696 114.307 84.2163C113.481 84.4706 112.643 84.5088 111.793 84.3308C110.839 83.8589 110.382 83.0823 110.421 82.0018C110.45 80.754 111.034 79.914 112.173 79.4818Z" fill="white"/>
<path fill-rule="evenodd" clip-rule="evenodd" d="M119.411 79.4823C119.96 79.4533 120.493 79.5297 121.01 79.7114C120.992 79.9626 120.916 80.1917 120.782 80.3987C118.782 79.9466 117.957 80.7354 118.306 82.7659C118.909 83.793 119.76 84.0473 120.858 83.5296C120.883 83.6059 120.909 83.6823 120.934 83.7587C120.99 83.9198 120.99 84.0725 120.934 84.2169C120.293 84.4391 119.632 84.5025 118.953 84.4078C117.671 83.887 117.125 82.9324 117.316 81.5441C117.553 80.3765 118.252 79.6893 119.411 79.4823Z" fill="white"/>
<path fill-rule="evenodd" clip-rule="evenodd" d="M126.8 79.6344C127.144 79.5343 127.499 79.5343 127.866 79.6344C127.857 79.6809 127.831 79.7061 127.79 79.7107C127.476 79.6359 127.145 79.6099 126.8 79.6344Z" fill="#979797"/>
<path fill-rule="evenodd" clip-rule="evenodd" d="M138.455 79.6344C138.135 79.6099 137.831 79.6359 137.541 79.7107C137.5 79.7061 137.474 79.6809 137.465 79.6344C137.806 79.5343 138.137 79.5343 138.455 79.6344Z" fill="#989898"/>
<path fill-rule="evenodd" clip-rule="evenodd" d="M151.406 80.322C151.406 80.0929 151.406 79.8638 151.406 79.6347C150.466 79.6347 149.526 79.6347 148.587 79.6347C148.587 81.2131 148.587 82.7908 148.587 84.3693C148.511 82.7786 148.486 81.175 148.511 79.5583C149.501 79.5583 150.492 79.5583 151.482 79.5583C151.505 79.8287 151.48 80.0837 151.406 80.322Z" fill="#818181"/>
<path fill-rule="evenodd" clip-rule="evenodd" d="M155.062 79.4819C155.821 79.3582 156.494 79.5361 157.081 80.0164C157.202 80.1821 157.303 80.3601 157.386 80.551C157.47 81.8125 157.534 83.0725 157.576 84.331C157.298 84.3692 157.019 84.3821 156.738 84.3692C156.762 84.1844 156.736 84.0057 156.662 83.8346C156.111 84.3799 155.451 84.5708 154.681 84.4073C153.858 83.9973 153.591 83.3482 153.882 82.4601C154.221 81.9011 154.716 81.5575 155.367 81.4292C155.77 81.3543 156.177 81.3161 156.586 81.3146C156.642 80.5059 156.261 80.1241 155.443 80.1692C155.055 80.1631 154.699 80.2654 154.377 80.4746C154.213 80.2891 154.162 80.0852 154.224 79.8637C154.505 79.7247 154.784 79.5972 155.062 79.4819Z" fill="white"/>
<path fill-rule="evenodd" clip-rule="evenodd" d="M161.614 79.4818C162.405 79.3856 163.079 79.6147 163.632 80.1691C163.926 80.9946 163.659 81.5413 162.833 81.8109C163.875 82.1064 164.192 82.7555 163.785 83.7582C163.475 84.1239 163.081 84.34 162.604 84.4072C161.957 84.489 161.322 84.4378 160.699 84.2545C160.568 84.2148 160.466 84.1384 160.395 84.0254C160.427 83.8246 160.516 83.6589 160.661 83.5291C161.358 83.9063 162.056 83.9185 162.756 83.5672C163.21 82.9739 163.084 82.5417 162.375 82.2691C161.996 82.2118 161.615 82.1736 161.233 82.1545C161.233 81.9766 161.233 81.7979 161.233 81.62C161.844 81.6933 162.365 81.5146 162.794 81.0854C162.851 80.4165 162.533 80.111 161.842 80.1691C161.464 80.1553 161.122 80.2569 160.814 80.4745C160.654 80.289 160.616 80.0851 160.699 79.8636C161 79.704 161.305 79.5772 161.614 79.4818Z" fill="white"/>
<path fill-rule="evenodd" clip-rule="evenodd" d="M168.47 79.4816C169.893 79.309 170.82 79.8947 171.25 81.238C171.471 82.2345 171.255 83.1127 170.603 83.8725C169.663 84.5468 168.673 84.6232 167.632 84.1016C166.6 83.1043 166.385 81.9459 166.984 80.6271C167.34 80.0536 167.835 79.6718 168.47 79.4816Z" fill="white"/>
<path fill-rule="evenodd" clip-rule="evenodd" d="M174.564 79.5581C175.276 79.5451 175.986 79.5581 176.697 79.5963C177.649 79.7093 178.042 80.2309 177.878 81.1617C177.703 81.4893 177.437 81.7054 177.078 81.8108C178.101 82.1193 178.394 82.7684 177.954 83.7581C177.438 84.185 176.842 84.4018 176.164 84.4072C175.553 84.4576 174.943 84.4446 174.336 84.369C174.336 82.7906 174.336 81.2129 174.336 79.6345C174.434 79.6528 174.51 79.6268 174.564 79.5581Z" fill="white"/>
<path fill-rule="evenodd" clip-rule="evenodd" d="M12.0743 79.6348C13.3694 79.6348 14.6644 79.6348 15.9595 79.6348C15.9595 81.2132 15.9595 82.7909 15.9595 84.3693C15.6801 84.3693 15.4008 84.3693 15.1215 84.3693C15.1215 83.02 15.1215 81.6714 15.1215 80.322C14.3989 80.2464 13.6625 80.2205 12.9123 80.2457C12.9123 81.6202 12.9123 82.9948 12.9123 84.3693C12.633 84.3693 12.3537 84.3693 12.0743 84.3693C12.0743 82.7909 12.0743 81.2132 12.0743 79.6348Z" fill="white"/>
<path fill-rule="evenodd" clip-rule="evenodd" d="M12.0743 79.6344C13.3815 79.558 14.7019 79.5328 16.0356 79.558C16.0609 81.1746 16.0354 82.7783 15.9595 84.3689C15.9595 82.7905 15.9595 81.2128 15.9595 79.6344C14.6644 79.6344 13.3694 79.6344 12.0743 79.6344Z" fill="#757575"/>
<path fill-rule="evenodd" clip-rule="evenodd" d="M36.3755 79.6348C36.3755 79.8387 36.3755 80.0418 36.3755 80.2457C35.8786 80.2212 35.3962 80.2464 34.9281 80.322C34.9281 81.6714 34.9281 83.02 34.9281 84.3693C34.6487 84.3693 34.3694 84.3693 34.0901 84.3693C34.0901 83.02 34.0901 81.6714 34.0901 80.322C33.622 80.2464 33.1395 80.2212 32.6427 80.2457C32.6427 80.0418 32.6427 79.8387 32.6427 79.6348C33.8869 79.6348 35.1312 79.6348 36.3755 79.6348Z" fill="white"/>
<path fill-rule="evenodd" clip-rule="evenodd" d="M53.6681 81.6202C53.6141 81.6889 53.5379 81.7149 53.4396 81.6965C53.4396 81.0093 53.4396 80.322 53.4396 79.6347C53.1602 79.6347 52.8809 79.6347 52.6016 79.6347C52.6016 81.2131 52.6016 82.7908 52.6016 84.3693C52.5256 82.7786 52.5002 81.175 52.5254 79.5583C52.8555 79.5583 53.1856 79.5583 53.5157 79.5583C53.4671 80.2762 53.5179 80.9634 53.6681 81.6202Z" fill="#C8C8C8"/>
<path fill-rule="evenodd" clip-rule="evenodd" d="M53.6681 81.6201C54.2522 80.958 54.8362 80.2967 55.4202 79.6346C55.7655 79.6102 56.0956 79.6362 56.4106 79.711C55.7795 80.3693 55.1446 81.0313 54.5061 81.6965C54.9834 81.8538 55.3771 82.1333 55.6869 82.5365C55.9751 83.1099 56.2417 83.6949 56.4868 84.2928C56.182 84.3944 55.8773 84.3944 55.5726 84.2928C55.3641 83.8316 55.1483 83.3734 54.9251 82.9183C54.5516 82.4242 54.0564 82.2203 53.4396 82.3074C53.4396 82.9946 53.4396 83.6819 53.4396 84.3692C53.1602 84.3692 52.881 84.3692 52.6016 84.3692C52.6016 82.7907 52.6016 81.2131 52.6016 79.6346C52.881 79.6346 53.1602 79.6346 53.4396 79.6346C53.4396 80.3219 53.4396 81.0092 53.4396 81.6965C53.5379 81.7148 53.6141 81.6888 53.6681 81.6201Z" fill="white"/>
<path fill-rule="evenodd" clip-rule="evenodd" d="M73.246 79.6348C73.246 79.8387 73.246 80.0418 73.246 80.2457C72.7492 80.2212 72.2667 80.2464 71.7986 80.322C71.7986 81.6714 71.7986 83.02 71.7986 84.3693C71.5193 84.3693 71.24 84.3693 70.9607 84.3693C70.9607 82.9948 70.9607 81.6202 70.9607 80.2457C70.4528 80.2457 69.945 80.2457 69.4371 80.2457C69.4371 80.0418 69.4371 79.8387 69.4371 79.6348C70.7067 79.6348 71.9763 79.6348 73.246 79.6348Z" fill="white"/>
<path fill-rule="evenodd" clip-rule="evenodd" d="M85.3586 79.6346C85.6785 79.6102 85.9832 79.6362 86.2727 79.711C85.7669 80.4479 85.2588 81.1863 84.7491 81.9255C85.2634 82.7281 85.7966 83.517 86.3489 84.2928C86.0191 84.3944 85.6884 84.3944 85.3586 84.2928C84.9647 83.7071 84.5717 83.1222 84.1778 82.5365C83.784 83.1344 83.3909 83.7331 82.997 84.331C82.6893 84.3944 82.3846 84.3814 82.0829 84.2928C82.626 83.5215 83.1593 82.7457 83.6826 81.9637C83.1943 81.1879 82.6862 80.4242 82.1591 79.6728C82.4889 79.6217 82.8195 79.6217 83.1494 79.6728C83.5173 80.2455 83.886 80.8183 84.254 81.391C84.6227 80.8038 84.9914 80.2181 85.3586 79.6346Z" fill="white"/>
<path fill-rule="evenodd" clip-rule="evenodd" d="M92.2908 79.6348C92.5703 79.6348 92.8491 79.6348 93.1287 79.6348C93.1287 81.2132 93.1287 82.7909 93.1287 84.3693C92.8491 84.3693 92.5703 84.3693 92.2908 84.3693C92.2908 83.6568 92.2908 82.9436 92.2908 82.2311C91.529 82.2311 90.7672 82.2311 90.0054 82.2311C90.0054 82.9436 90.0054 83.6568 90.0054 84.3693C89.7258 84.3693 89.447 84.3693 89.1674 84.3693C89.1674 82.7909 89.1674 81.2132 89.1674 79.6348C89.447 79.6348 89.7258 79.6348 90.0054 79.6348C90.0054 80.2709 90.0054 80.9077 90.0054 81.5439C90.7672 81.5439 91.529 81.5439 92.2908 81.5439C92.2908 80.9077 92.2908 80.2709 92.2908 79.6348Z" fill="white"/>
<path fill-rule="evenodd" clip-rule="evenodd" d="M97.2424 79.6343C96.9887 79.6343 96.7343 79.6343 96.4806 79.6343C96.4806 81.2127 96.4806 82.7904 96.4806 84.3688C96.4044 82.7782 96.3793 81.1745 96.4044 79.5579C96.6992 79.5342 96.9788 79.5594 97.2424 79.6343Z" fill="#C6C6C6"/>
<path fill-rule="evenodd" clip-rule="evenodd" d="M97.2424 79.6346C97.2295 80.9076 97.2424 82.1806 97.2805 83.4528C97.9608 82.1859 98.6723 80.9389 99.4135 79.711C99.7746 79.6369 100.143 79.6117 100.518 79.6346C100.518 81.2131 100.518 82.7907 100.518 84.3692C100.239 84.3692 99.9597 84.3692 99.6802 84.3692C99.6756 83.0687 99.6885 81.7705 99.7183 80.4746C99.0121 81.7675 98.2762 83.0397 97.5091 84.2928C97.1739 84.3669 96.8311 84.3921 96.4807 84.3692C96.4807 82.7907 96.4807 81.2131 96.4807 79.6346C96.7343 79.6346 96.9888 79.6346 97.2424 79.6346Z" fill="white"/>
<path fill-rule="evenodd" clip-rule="evenodd" d="M103.718 79.6348C103.997 79.6348 104.276 79.6348 104.556 79.6348C104.524 80.3281 104.562 81.0154 104.67 81.6966C104.849 82.0601 105.141 82.2128 105.546 82.1548C105.904 82.1723 106.222 82.0708 106.498 81.8493C106.536 81.1116 106.549 80.3732 106.536 79.6348C106.816 79.6348 107.095 79.6348 107.374 79.6348C107.374 81.2132 107.374 82.7909 107.374 84.3693C107.095 84.3693 106.816 84.3693 106.536 84.3693C106.549 83.7324 106.536 83.0963 106.498 82.4602C105.768 82.9146 105.02 82.9528 104.251 82.5748C103.959 82.3846 103.795 82.1173 103.756 81.7729C103.718 81.0605 103.705 80.348 103.718 79.6348Z" fill="white"/>
<path fill-rule="evenodd" clip-rule="evenodd" d="M126.8 79.6346C127.145 79.6102 127.476 79.6362 127.79 79.711C127.143 80.3723 126.508 81.0474 125.886 81.7346C126.287 81.8255 126.63 82.0164 126.914 82.3074C127.286 82.9641 127.629 83.6384 127.943 84.331C127.61 84.3944 127.28 84.3814 126.952 84.2928C126.764 83.6987 126.485 83.1519 126.114 82.651C125.736 82.3478 125.304 82.2333 124.819 82.3074C124.819 82.9946 124.819 83.6819 124.819 84.3692C124.54 84.3692 124.261 84.3692 123.981 84.3692C123.981 82.7907 123.981 81.2131 123.981 79.6346C124.261 79.6346 124.54 79.6346 124.819 79.6346C124.806 80.2967 124.819 80.9588 124.857 81.6201C124.889 81.6552 124.927 81.6804 124.972 81.6965C125.583 81.0077 126.192 80.3204 126.8 79.6346Z" fill="white"/>
<path fill-rule="evenodd" clip-rule="evenodd" d="M130.609 79.6341C130.888 79.6341 131.167 79.6341 131.447 79.6341C131.434 80.8559 131.447 82.0777 131.485 83.2995C132.145 82.0777 132.843 80.8819 133.58 79.7105C133.932 79.6349 134.288 79.6089 134.646 79.6341C134.646 81.2125 134.646 82.7902 134.646 84.3686C134.367 84.3686 134.088 84.3686 133.808 84.3686C133.807 83.0689 133.819 81.7707 133.846 80.4741C133.142 81.7593 132.418 83.0323 131.675 84.2923C131.323 84.3679 130.968 84.3938 130.609 84.3686C130.609 82.7902 130.609 81.2125 130.609 79.6341Z" fill="white"/>
<path fill-rule="evenodd" clip-rule="evenodd" d="M138.455 79.6346C138.836 80.1951 139.217 80.7549 139.598 81.3146C139.971 80.7961 140.327 80.2616 140.664 79.711C140.992 79.6224 141.322 79.6094 141.655 79.6728C141.099 80.3945 140.591 81.1451 140.131 81.9255C140.647 82.7358 141.18 83.5376 141.731 84.331C141.401 84.3822 141.071 84.3822 140.741 84.331C140.347 83.7209 139.941 83.1222 139.522 82.5365C139.15 83.1413 138.769 83.7392 138.379 84.331C138.049 84.3822 137.719 84.3822 137.389 84.331C137.957 83.5361 138.515 82.7342 139.065 81.9255C138.555 81.1863 138.047 80.4479 137.541 79.711C137.831 79.6362 138.135 79.6102 138.455 79.6346Z" fill="white"/>
<path fill-rule="evenodd" clip-rule="evenodd" d="M151.406 80.322C150.745 80.322 150.085 80.322 149.425 80.322C149.425 81.6714 149.425 83.02 149.425 84.3693C149.145 84.3693 148.867 84.3693 148.587 84.3693C148.587 82.7909 148.587 81.2132 148.587 79.6348C149.526 79.6348 150.466 79.6348 151.406 79.6348C151.406 79.8639 151.406 80.0929 151.406 80.322Z" fill="white"/>
<path fill-rule="evenodd" clip-rule="evenodd" d="M20.9111 80.1691C21.8674 80.0461 22.4641 80.4532 22.7013 81.3909C22.9009 82.292 22.6596 83.0434 21.9776 83.6436C20.915 84.0064 20.2421 83.6368 19.9588 82.5364C19.7137 81.5001 20.0311 80.7105 20.9111 80.1691Z" fill="#333333"/>
<path fill-rule="evenodd" clip-rule="evenodd" d="M46.6596 80.1688C47.1217 80.1504 47.5787 80.1886 48.0309 80.2833C48.6082 80.6254 48.6335 81.0072 48.107 81.4288C47.9077 81.4914 47.7045 81.5296 47.4976 81.5433C47.1929 81.5433 46.8882 81.5433 46.5835 81.5433C46.5615 81.0783 46.5869 80.6201 46.6596 80.1688Z" fill="#333333"/>
<path fill-rule="evenodd" clip-rule="evenodd" d="M78.8072 81.1619C78.8072 81.2634 78.8072 81.3658 78.8072 81.4673C77.9943 81.4673 77.1823 81.4673 76.3694 81.4673C76.4883 80.7121 76.9195 80.2539 77.6645 80.0928C78.3265 80.1562 78.7074 80.512 78.8072 81.1619Z" fill="#333333"/>
<path fill-rule="evenodd" clip-rule="evenodd" d="M113.773 81.4675C112.96 81.4675 112.148 81.4675 111.336 81.4675C111.336 81.3911 111.336 81.3147 111.336 81.2384C111.57 80.3701 112.129 80.0265 113.012 80.2075C113.527 80.4641 113.781 80.8841 113.773 81.4675Z" fill="#333333"/>
<path fill-rule="evenodd" clip-rule="evenodd" d="M168.546 80.1695C169.508 80.0534 170.105 80.4604 170.336 81.3913C170.519 82.2236 170.329 82.9491 169.765 83.5676C168.573 84.0709 167.85 83.6768 167.594 82.384C167.417 81.4165 167.734 80.6788 168.546 80.1695Z" fill="#333333"/>
<path fill-rule="evenodd" clip-rule="evenodd" d="M175.174 80.1688C175.746 80.1299 176.304 80.1933 176.849 80.3597C177.187 80.7752 177.136 81.1318 176.697 81.4288C176.203 81.5915 175.695 81.6549 175.174 81.6197C175.174 81.1364 175.174 80.6522 175.174 80.1688Z" fill="#333333"/>
<path fill-rule="evenodd" clip-rule="evenodd" d="M36.3754 79.6348C36.4499 79.8478 36.4752 80.0769 36.4516 80.322C35.9437 80.322 35.4359 80.322 34.928 80.322C35.3962 80.2464 35.8786 80.2212 36.3754 80.2457C36.3754 80.0418 36.3754 79.8387 36.3754 79.6348Z" fill="#717171"/>
<path fill-rule="evenodd" clip-rule="evenodd" d="M46.6596 80.1689C46.5868 80.6203 46.5614 81.0784 46.5834 81.5435C46.8881 81.5435 47.1929 81.5435 47.4976 81.5435C47.1826 81.6183 46.8525 81.6443 46.5072 81.6199C46.4598 81.1044 46.5106 80.6203 46.6596 80.1689Z" fill="#A1A1A1"/>
<path fill-rule="evenodd" clip-rule="evenodd" d="M73.2461 79.6348C73.3205 79.8478 73.3459 80.0769 73.3223 80.322C72.8144 80.322 72.3066 80.322 71.7987 80.322C72.2668 80.2464 72.7493 80.2212 73.2461 80.2457C73.2461 80.0418 73.2461 79.8387 73.2461 79.6348Z" fill="#717171"/>
<path fill-rule="evenodd" clip-rule="evenodd" d="M15.1215 80.3218C14.4106 80.3218 13.6995 80.3218 12.9885 80.3218C13.0137 81.6841 12.9883 83.0335 12.9124 84.3691C12.9124 82.9945 12.9124 81.62 12.9124 80.2454C13.6626 80.2202 14.3989 80.2462 15.1215 80.3218Z" fill="#8A8A8A"/>
<path fill-rule="evenodd" clip-rule="evenodd" d="M69.4371 80.2451C69.945 80.2451 70.4528 80.2451 70.9607 80.2451C70.9607 81.6197 70.9607 82.9942 70.9607 84.3688C70.8847 83.0332 70.8593 81.6838 70.8845 80.3215C70.3876 80.3459 69.9052 80.3207 69.4371 80.2451Z" fill="#8D8D8D"/>
<path fill-rule="evenodd" clip-rule="evenodd" d="M92.2908 79.6347C92.2908 80.2708 92.2908 80.9077 92.2908 81.5438C91.5291 81.5438 90.7673 81.5438 90.0055 81.5438C90.0055 80.9077 90.0055 80.2708 90.0055 79.6347C89.7259 79.6347 89.4471 79.6347 89.1675 79.6347C89.1675 81.2131 89.1675 82.7908 89.1675 84.3693C89.0913 82.7786 89.0662 81.175 89.0913 79.5583C89.4212 79.5583 89.7518 79.5583 90.0817 79.5583C90.0817 80.1945 90.0817 80.8313 90.0817 81.4674C90.7924 81.4674 91.5039 81.4674 92.2147 81.4674C92.1895 80.8428 92.2154 80.2319 92.2908 79.6347Z" fill="white"/>
<path fill-rule="evenodd" clip-rule="evenodd" d="M111.336 81.2383C111.336 81.3146 111.336 81.391 111.336 81.4674C112.148 81.4674 112.96 81.4674 113.773 81.4674C112.949 81.543 112.111 81.5689 111.259 81.5437C111.239 81.4216 111.265 81.32 111.336 81.2383Z" fill="#C7C7C7"/>
<path fill-rule="evenodd" clip-rule="evenodd" d="M40.87 81.9258C41.0985 81.9258 41.327 81.9258 41.5556 81.9258C41.6966 82.6085 41.5189 83.1812 41.0223 83.644C40.5432 83.9296 40.0989 83.8914 39.6892 83.5294C39.4492 82.9796 39.5635 82.5336 40.032 82.1931C40.3109 82.0716 40.5902 81.9823 40.87 81.9258Z" fill="#333333"/>
<path fill-rule="evenodd" clip-rule="evenodd" d="M61.1336 81.9258C61.3622 81.9258 61.5907 81.9258 61.8192 81.9258C61.85 82.3679 61.8119 82.8009 61.705 83.224C61.3314 83.7562 60.8362 83.9212 60.2195 83.7203C59.7116 83.2369 59.7116 82.7528 60.2195 82.2694C60.509 82.0846 60.8137 81.9701 61.1336 81.9258Z" fill="#333333"/>
<path fill-rule="evenodd" clip-rule="evenodd" d="M155.824 81.9258C156.104 81.9258 156.382 81.9258 156.662 81.9258C156.796 82.6054 156.619 83.1781 156.129 83.644C155.65 83.9296 155.205 83.8914 154.796 83.5294C154.556 82.9796 154.67 82.5336 155.138 82.1931C155.372 82.0938 155.601 82.0052 155.824 81.9258Z" fill="#333333"/>
<path fill-rule="evenodd" clip-rule="evenodd" d="M47.7261 82.2306C47.3452 82.2306 46.9643 82.2306 46.5834 82.2306C46.5834 82.74 46.5834 83.2486 46.5834 83.7579C46.508 83.2379 46.4825 82.7033 46.5073 82.1543C46.9282 82.1298 47.3346 82.155 47.7261 82.2306Z" fill="#A1A1A1"/>
<path fill-rule="evenodd" clip-rule="evenodd" d="M47.7262 82.2305C48.4295 82.2603 48.7215 82.6161 48.6022 83.2996C48.3733 83.5737 48.0813 83.7387 47.7262 83.7959C47.3313 83.8585 46.9504 83.8456 46.5835 83.7577C46.5835 83.2484 46.5835 82.7398 46.5835 82.2305C46.9644 82.2305 47.3453 82.2305 47.7262 82.2305Z" fill="#333333"/>
<path fill-rule="evenodd" clip-rule="evenodd" d="M175.174 82.1547C175.744 82.1211 176.302 82.1845 176.849 82.3456C177.134 82.4525 177.261 82.6564 177.23 82.9565C177.261 83.2773 177.134 83.5064 176.849 83.6438C176.304 83.8103 175.746 83.8737 175.174 83.8347C175.174 83.275 175.174 82.7145 175.174 82.1547Z" fill="#333333"/>
<path d="M73.1008 31.2064C74.203 40.6984 78.509 44.5469 86.4373 48C82.9428 42.8889 83.3673 38.5079 83.6837 37.0476C84.0001 35.5873 85.9065 29.746 92.3646 27.5556C99.7738 31.2064 100.725 37.0476 100.725 37.0476C100.725 37.0476 102.631 41.4286 97.5511 48C106.256 44.2572 109.512 39.9683 110.888 31.2064C112.263 22.4444 100.725 8.57143 92.2583 2C82.8365 10.0317 71.829 20.254 73.1008 31.2064Z" fill="url(#paint0_linear_34_9000)"/>
</g>
<defs>
<linearGradient id="paint0_linear_34_9000" x1="91.994" y1="2" x2="91.994" y2="48" gradientUnits="userSpaceOnUse">
<stop stop-color="#F5EA16"/>
<stop offset="1" stop-color="#EDAA0B"/>
</linearGradient>
<clipPath id="clip0_34_9000">
<rect width="189" height="85" fill="white"/>
</clipPath>
</defs>
</svg>
