<svg width="271" height="121" viewBox="0 0 271 121" fill="none" xmlns="http://www.w3.org/2000/svg">
<g clip-path="url(#clip0_131_18596)">
<path fill-rule="evenodd" clip-rule="evenodd" d="M37.3031 81.4029C30.5672 81.4029 23.8314 81.4029 17.0955 81.4029C17.0955 89.2297 17.0955 97.0566 17.0955 104.883C16.9864 97.0392 16.9499 89.1754 16.9863 81.2942C23.777 81.2583 30.5493 81.2942 37.3031 81.4029Z" fill="#D1504D"/>
<path fill-rule="evenodd" clip-rule="evenodd" d="M37.3013 81.4023C37.3013 82.9601 37.3013 84.5189 37.3013 86.0767C32.4588 86.0767 27.6162 86.0767 22.7737 86.0767C22.7737 92.3458 22.7737 98.6137 22.7737 104.883C20.8804 104.883 18.987 104.883 17.0938 104.883C17.0938 97.056 17.0938 89.2292 17.0938 81.4023C23.8296 81.4023 30.5654 81.4023 37.3013 81.4023Z" fill="#BC0301"/>
<path fill-rule="evenodd" clip-rule="evenodd" d="M197.977 104.883C198.013 101.295 197.977 97.7074 197.868 94.1212C197.802 94.1342 197.766 94.1712 197.759 94.2299C196.619 94.9289 195.381 95.3811 194.045 95.5887C190.95 95.804 187.855 95.804 184.761 95.5887C180.858 94.8202 178.837 92.446 178.698 88.4685C178.644 86.1139 178.625 83.7583 178.644 81.4026C180.537 81.4026 182.431 81.4026 184.324 81.4026C184.288 83.4506 184.324 85.4802 184.433 87.4901C184.421 89.561 185.44 90.7383 187.491 91.0231C189.64 91.0959 191.787 91.0959 193.936 91.0231C195.55 91.0079 196.843 90.3741 197.814 89.1207C197.85 86.5477 197.887 83.9757 197.923 81.4026C199.79 81.2765 201.665 81.2591 203.548 81.3483C203.657 89.186 203.693 97.0302 203.657 104.883C201.764 104.883 199.87 104.883 197.977 104.883Z" fill="#BC0301"/>
<path fill-rule="evenodd" clip-rule="evenodd" d="M178.645 81.4029C180.555 81.2942 182.485 81.2583 184.434 81.2942C184.434 83.3596 184.434 85.425 184.434 87.4904C184.324 85.4805 184.288 83.4509 184.324 81.4029C182.432 81.4029 180.537 81.4029 178.645 81.4029Z" fill="#E7A1A1"/>
<path fill-rule="evenodd" clip-rule="evenodd" d="M156.48 87.9248C156.233 87.8259 155.996 87.79 155.77 87.8161C153.884 87.8878 152.009 87.9607 150.144 88.0335C149.736 87.2573 149.299 86.4964 148.833 85.7507C148.395 86.4779 147.959 87.203 147.523 87.9248C145.322 87.9324 143.173 87.9324 141.078 87.9248C142.241 85.7539 143.407 83.5798 144.573 81.4024C147.376 81.2752 150.18 81.2579 152.984 81.3481C154.192 83.5178 155.358 85.7094 156.48 87.9248Z" fill="#EA9309"/>
<path fill-rule="evenodd" clip-rule="evenodd" d="M129.496 88.4688C129.496 88.2873 129.496 88.1068 129.496 87.9253C127.639 87.9253 125.782 87.9253 123.925 87.9253C123.821 86.7893 123.202 86.1186 122.068 85.9142C118.172 85.8414 114.277 85.8414 110.38 85.9142C109.308 86.2045 108.798 86.911 108.851 88.034C106.921 88.034 104.992 88.034 103.062 88.034C102.927 85.8403 103.692 84.0466 105.356 82.653C106.739 81.8649 108.232 81.4301 109.834 81.3486C114.021 81.2757 118.209 81.2757 122.396 81.3486C123.579 81.4725 124.744 81.6899 125.891 82.0008C127.686 82.6628 128.833 83.9129 129.332 85.7512C129.585 86.6643 129.64 87.5698 129.496 88.4688Z" fill="#EA940A"/>
<path fill-rule="evenodd" clip-rule="evenodd" d="M150.14 88.0333C151 89.8172 151.91 91.5565 152.871 93.2512C153.017 93.6132 153.163 93.9763 153.308 94.3383C150.268 94.447 147.21 94.4828 144.133 94.447C144.343 94.0643 144.525 93.6665 144.679 93.2512C145.709 91.5282 146.655 89.753 147.519 87.9246C147.955 87.2028 148.392 86.4777 148.83 85.7505C149.295 86.4962 149.732 87.2572 150.14 88.0333Z" fill="#FEFEFD"/>
<path fill-rule="evenodd" clip-rule="evenodd" d="M123.927 87.9248C125.784 87.9248 127.641 87.9248 129.498 87.9248C129.498 88.1063 129.498 88.2868 129.498 88.4683C129.504 90.6164 128.521 92.1209 126.549 92.9796C126.697 93.0807 126.842 93.172 126.986 93.2514C121.379 93.2514 115.771 93.2514 110.164 93.2514C110.164 92.4905 110.164 91.7295 110.164 90.9686C114.132 90.987 118.102 90.9686 122.07 90.9142C123.474 90.424 124.093 89.4271 123.927 87.9248Z" fill="#E98C05"/>
<path fill-rule="evenodd" clip-rule="evenodd" d="M141.078 87.9248C143.173 87.9324 145.322 87.9324 147.523 87.9248C146.659 89.7532 145.713 91.5284 144.683 93.2514C142.517 93.2568 140.368 93.2568 138.238 93.2514C139.213 91.4936 140.16 89.7174 141.078 87.9248Z" fill="#E98D05"/>
<path fill-rule="evenodd" clip-rule="evenodd" d="M156.476 87.9246C157.45 89.6823 158.397 91.4586 159.316 93.2511C157.142 93.2511 154.994 93.2511 152.871 93.2511C151.91 91.5564 151 89.8171 150.141 88.0333C152.005 87.9604 153.881 87.8876 155.766 87.8158C155.992 87.7898 156.229 87.8256 156.476 87.9246Z" fill="#E98D05"/>
<path fill-rule="evenodd" clip-rule="evenodd" d="M63.3014 93.6859C63.3014 97.4177 63.3014 101.151 63.3014 104.883C61.4081 104.883 59.5147 104.883 57.6214 104.883C57.6395 104.302 57.6213 103.722 57.5668 103.143C57.1011 103.824 56.5004 104.35 55.7645 104.72C53.8758 104.842 51.9824 104.897 50.0845 104.883C48.1508 104.896 46.221 104.841 44.2953 104.72C42.4621 104.309 41.3152 103.203 40.8546 101.404C40.7619 100.023 40.7983 98.6461 40.9638 97.2732C41.2549 96.0959 41.9649 95.2806 43.0938 94.8273C44.0075 94.4729 44.9542 94.2555 45.9338 94.1751C49.0651 94.1022 52.1963 94.1022 55.3276 94.1751C56.2925 94.2838 57.039 94.736 57.5668 95.5339C57.6665 94.5468 57.6301 93.5685 57.4575 92.5988C57.1211 92.1499 56.666 91.8781 56.0922 91.7835C53.2921 91.6096 50.4884 91.5737 47.6814 91.6748C46.6965 91.6215 46.2596 92.0749 46.3707 93.0336C44.5866 93.0336 42.8025 93.0336 41.0184 93.0336C40.9738 90.7128 42.0661 89.2094 44.2953 88.5223C44.9001 88.3343 45.5191 88.2256 46.1522 88.1962C49.9024 88.1234 53.6527 88.1234 57.4029 88.1962C59.5919 88.243 61.3215 89.1311 62.5914 90.8595C63.0985 91.7346 63.3352 92.676 63.3014 93.6859Z" fill="#BC0301"/>
<path fill-rule="evenodd" clip-rule="evenodd" d="M75.2005 97.8167C75.2005 96.7655 75.2005 95.7154 75.2005 94.6642C77.1493 94.7001 79.0791 94.6642 80.9897 94.5555C82.2088 94.2381 82.5911 93.4772 82.1366 92.2727C81.8498 91.9759 81.5039 91.777 81.0989 91.6748C78.6595 91.602 76.22 91.602 73.7805 91.6748C73.2003 91.7911 72.7088 92.0629 72.3059 92.4901C72.2516 92.7782 72.2334 93.0673 72.2513 93.3598C70.54 93.3598 68.8288 93.3598 67.1175 93.3598C66.8678 90.2171 68.3243 88.4963 71.4867 88.1962C75.2369 88.1234 78.9872 88.1234 82.7374 88.1962C86.6859 88.6397 88.1605 90.7954 87.1612 94.6642C86.7789 95.4795 86.1781 96.0774 85.3589 96.4579C86.708 96.859 87.5273 97.746 87.8166 99.1212C88.2525 102.747 86.6322 104.649 82.9559 104.828C79.0236 104.901 75.0913 104.901 71.159 104.828C68.0541 104.437 66.5249 102.68 66.5713 99.556C68.2826 99.556 69.9938 99.556 71.7052 99.556C71.6244 100.539 72.0614 101.137 73.0159 101.35C75.7103 101.422 78.4046 101.422 81.0989 101.35C82.7473 100.95 83.2024 99.9897 82.4643 98.4689C82.1503 98.1472 81.768 97.9471 81.3174 97.871C79.2787 97.8167 77.2398 97.7982 75.2005 97.8167Z" fill="#BC0301"/>
<path fill-rule="evenodd" clip-rule="evenodd" d="M212.837 92.9255C211.054 92.9255 209.269 92.9255 207.485 92.9255C207.485 92.7081 207.485 92.4907 207.485 92.2733C207.926 89.9317 209.346 88.6088 211.745 88.3055C215.747 88.1305 219.753 88.0935 223.76 88.1968C225.814 88.2251 227.507 89.0034 228.839 90.534C229.252 91.2112 229.544 91.9352 229.713 92.7081C229.768 96.7661 229.787 100.825 229.768 104.883C227.875 104.883 225.981 104.883 224.088 104.883C224.107 104.303 224.088 103.722 224.033 103.144C223.505 103.997 222.758 104.559 221.794 104.829C218.335 104.902 214.877 104.902 211.417 104.829C209.755 104.665 208.499 103.885 207.649 102.492C207.522 102.098 207.413 101.699 207.321 101.296C207.226 99.9142 207.262 98.5369 207.43 97.165C207.803 95.9617 208.585 95.1464 209.779 94.7191C210.632 94.4452 211.506 94.2637 212.4 94.1756C215.532 94.1028 218.663 94.1028 221.794 94.1756C222.76 94.2843 223.506 94.7365 224.033 95.5344C224.107 94.6648 224.107 93.7951 224.033 92.9255C223.752 92.2135 223.223 91.833 222.45 91.7841C219.686 91.6091 216.919 91.5732 214.148 91.6754C213.217 91.6058 212.78 92.0222 212.837 92.9255Z" fill="#BC0301"/>
<path fill-rule="evenodd" clip-rule="evenodd" d="M255.108 93.251C255.108 93.4685 255.108 93.6859 255.108 93.9033C253.324 93.9033 251.539 93.9033 249.755 93.9033C249.773 92.8141 249.227 92.2162 248.117 92.1096C245.563 92.0064 243.015 92.0433 240.471 92.2183C239.505 92.564 238.904 93.2347 238.668 94.2294C238.595 95.7513 238.595 97.2732 238.668 98.795C238.916 99.8397 239.553 100.546 240.58 100.915C243.202 100.988 245.823 100.988 248.445 100.915C249.01 100.825 249.393 100.517 249.591 99.9908C249.637 99.5897 249.692 99.1907 249.755 98.795C251.539 98.795 253.324 98.795 255.108 98.795C255.418 102.707 253.598 104.718 249.646 104.828C245.896 104.901 242.145 104.901 238.395 104.828C235.428 104.375 233.625 102.69 232.988 99.7734C232.915 97.5993 232.915 95.4252 232.988 93.251C233.649 90.2388 235.524 88.5539 238.614 88.1962C242.182 88.1234 245.75 88.1234 249.318 88.1962C250.62 88.2886 251.859 88.6147 253.032 89.1746C254.487 90.1323 255.179 91.4911 255.108 93.251Z" fill="#BC0301"/>
<path fill-rule="evenodd" clip-rule="evenodd" d="M207.484 92.2734C207.484 92.4908 207.484 92.7083 207.484 92.9257C209.268 92.9257 211.053 92.9257 212.836 92.9257C211.035 93.0344 209.214 93.0703 207.375 93.0344C207.342 92.7561 207.378 92.5028 207.484 92.2734Z" fill="#CE4542"/>
<path fill-rule="evenodd" clip-rule="evenodd" d="M159.312 93.252C160.296 95.1391 161.279 97.023 162.261 98.9047C160.261 98.971 158.24 99.0427 156.199 99.1221C156.089 99.0492 155.98 98.9775 155.871 98.9047C155.827 98.9297 155.809 98.9655 155.816 99.0134C151.075 98.9775 146.342 99.0145 141.616 99.1221C139.752 99.0492 137.876 98.9764 135.991 98.9047C135.918 98.9775 135.846 99.0492 135.773 99.1221C135.587 99.0231 135.387 98.9873 135.172 99.0134C136.219 97.1099 137.239 95.1891 138.23 93.252C140.36 93.2574 142.509 93.2574 144.675 93.252C144.521 93.6672 144.338 94.0651 144.129 94.4477C145.577 94.5206 147.106 94.5575 148.716 94.5564C150.282 94.5206 151.848 94.4836 153.413 94.4477C153.4 94.3814 153.363 94.3455 153.304 94.339C153.159 93.977 153.012 93.6139 152.867 93.252C154.99 93.252 157.138 93.252 159.312 93.252Z" fill="#E98603"/>
<path fill-rule="evenodd" clip-rule="evenodd" d="M110.164 93.252C115.771 93.252 121.379 93.252 126.986 93.252C128.653 93.8868 129.654 95.0826 129.989 96.8392C130.079 97.5839 130.06 98.3079 129.935 99.0134C129.825 99.0036 129.735 99.0405 129.662 99.1221C129.626 99.0492 129.588 98.9775 129.552 98.9047C127.883 99.0449 126.245 99.0449 124.637 98.9047C124.476 98.9884 124.313 99.0601 124.146 99.1221C124.892 96.7816 124.054 95.4587 121.633 95.1543C117.81 95.1 113.987 95.0815 110.164 95.1C110.164 94.4836 110.164 93.8683 110.164 93.252Z" fill="#E98703"/>
<path fill-rule="evenodd" clip-rule="evenodd" d="M255.102 93.252C255.208 93.4813 255.244 93.7346 255.212 94.0129C253.372 94.0488 251.551 94.0129 249.75 93.9042C251.534 93.9042 253.319 93.9042 255.102 93.9042C255.102 93.6868 255.102 93.4694 255.102 93.252Z" fill="#CD4341"/>
<path fill-rule="evenodd" clip-rule="evenodd" d="M197.758 94.2298C197.764 94.1711 197.8 94.1341 197.867 94.1211C197.976 97.7073 198.012 101.295 197.976 104.883C197.903 101.332 197.831 97.7812 197.758 94.2298Z" fill="#DB7877"/>
<path fill-rule="evenodd" clip-rule="evenodd" d="M153.308 94.3389C153.367 94.3454 153.404 94.3813 153.417 94.4476C151.852 94.4834 150.286 94.5204 148.72 94.5563C147.11 94.5574 145.581 94.5204 144.133 94.4476C147.21 94.4834 150.268 94.4476 153.308 94.3389Z" fill="#F8E0BE"/>
<path fill-rule="evenodd" clip-rule="evenodd" d="M80.9937 94.5557C79.0831 94.6644 77.1533 94.7002 75.2045 94.6644C75.2045 95.7156 75.2045 96.7657 75.2045 97.8168C75.096 96.7493 75.0596 95.6623 75.0953 94.5557C77.0614 94.5557 79.0276 94.5557 80.9937 94.5557Z" fill="#E39292"/>
<path fill-rule="evenodd" clip-rule="evenodd" d="M47.794 97.7084C50.7124 97.6584 53.6251 97.7127 56.5324 97.8715C57.0496 97.9878 57.3955 98.2954 57.57 98.7955C57.9631 100.243 57.435 101.095 55.9862 101.35C53.1788 101.452 50.3752 101.416 47.5755 101.241C46.7333 100.998 46.3329 100.436 46.374 99.5564C46.3534 98.54 46.8267 97.9247 47.794 97.7084Z" fill="#FEFDFD"/>
<path fill-rule="evenodd" clip-rule="evenodd" d="M214.146 97.7081C216.986 97.6896 219.826 97.7081 222.666 97.7625C223.925 98.1082 224.379 98.9235 224.032 100.208C223.918 100.453 223.79 100.688 223.649 100.915C223.17 101.161 222.661 101.306 222.12 101.35C219.385 101.453 216.654 101.417 213.928 101.241C212.972 100.746 212.627 99.9681 212.89 98.9039C213.081 98.2603 213.501 97.8614 214.146 97.7081Z" fill="#FEFDFD"/>
<path fill-rule="evenodd" clip-rule="evenodd" d="M124.139 99.1221C124.306 99.0601 124.47 98.9884 124.631 98.9047C126.239 99.0449 127.877 99.0449 129.546 98.9047C129.582 98.9775 129.619 99.0493 129.655 99.1221C129.728 99.0406 129.819 99.0036 129.928 99.0134C129.591 102.701 127.553 104.639 123.811 104.829C118.678 104.902 113.544 104.902 108.41 104.829C104.406 104.45 102.477 102.257 102.621 98.2524C104.551 98.2524 106.48 98.2524 108.41 98.2524C108.625 99.3547 109.281 100.061 110.376 100.372C114.163 100.445 117.949 100.445 121.736 100.372C122.746 100.322 123.548 99.9059 124.139 99.1221Z" fill="#E88002"/>
<path fill-rule="evenodd" clip-rule="evenodd" d="M141.612 99.1217C140.657 101.06 139.674 102.981 138.663 104.883C136.46 104.919 134.275 104.883 132.109 104.774C133.128 102.854 134.149 100.934 135.168 99.013C135.383 98.9869 135.583 99.0228 135.769 99.1217C135.842 99.0489 135.914 98.9771 135.987 98.9043C137.872 98.976 139.748 99.0489 141.612 99.1217Z" fill="#E88002"/>
<path fill-rule="evenodd" clip-rule="evenodd" d="M162.259 98.9043C163.326 100.864 164.381 102.838 165.426 104.829C163.206 104.902 160.984 104.902 158.763 104.829C157.707 102.926 156.724 100.988 155.814 99.013C155.807 98.9652 155.825 98.9293 155.869 98.9043C155.978 98.9771 156.087 99.0489 156.196 99.1217C158.238 99.0424 160.259 98.9706 162.259 98.9043Z" fill="#E88002"/>
<path fill-rule="evenodd" clip-rule="evenodd" d="M63.3011 93.6855C63.4101 97.4359 63.4466 101.204 63.4103 104.991C61.4615 105.027 59.5317 104.991 57.6211 104.882C59.5144 104.882 61.4078 104.882 63.3011 104.882C63.3011 101.15 63.3011 97.4174 63.3011 93.6855Z" fill="#E7A0A0"/>
<path fill-rule="evenodd" clip-rule="evenodd" d="M132.113 104.774C134.279 104.883 136.464 104.919 138.667 104.883C136.464 105.027 134.243 105.027 132.004 104.883C132.017 104.816 132.054 104.78 132.113 104.774Z" fill="#F9DEBE"/>
<path fill-rule="evenodd" clip-rule="evenodd" d="M29.9845 113.145C32.8188 113.158 34.1113 114.571 33.8622 117.384C33.622 118.819 32.8028 119.743 31.4045 120.156C28.3972 120.388 27.0318 118.993 27.3084 115.971C27.5913 114.439 28.4834 113.498 29.9845 113.145Z" fill="#363636"/>
<path fill-rule="evenodd" clip-rule="evenodd" d="M40.6875 113.145C41.4789 113.083 42.2435 113.192 42.9813 113.471C43.0748 113.758 43.0567 114.048 42.9267 114.341C42.8815 114.391 42.8269 114.426 42.7629 114.449C41.2046 113.818 40.0213 114.217 39.2129 115.645C38.7943 116.894 39.0674 117.963 40.0321 118.852C40.9626 119.331 41.9092 119.349 42.8721 118.906C43.0472 119.248 43.0836 119.591 42.9813 119.939C42.0504 120.195 41.1037 120.268 40.1413 120.156C38.5581 119.544 37.7571 118.384 37.7383 116.678C37.9123 114.82 38.8954 113.643 40.6875 113.145Z" fill="#383838"/>
<path fill-rule="evenodd" clip-rule="evenodd" d="M52.1607 113.362C50.3767 113.362 48.5925 113.362 46.8084 113.362C46.8084 113.652 46.8084 113.941 46.8084 114.232C47.5208 114.197 48.2126 114.233 48.8838 114.34C48.1556 114.34 47.4275 114.34 46.6992 114.34C46.6992 113.978 46.6992 113.615 46.6992 113.253C48.5389 113.217 50.3593 113.253 52.1607 113.362Z" fill="#8B8B8B"/>
<path fill-rule="evenodd" clip-rule="evenodd" d="M57.514 113.145C58.584 113.011 59.5125 113.3 60.2994 114.015C60.4086 114.232 60.5179 114.449 60.6271 114.667C60.7545 116.475 60.8456 118.287 60.9002 120.102C60.4996 120.102 60.0992 120.102 59.6986 120.102C59.7165 119.81 59.6983 119.521 59.644 119.233C58.8812 120.126 57.9163 120.434 56.7494 120.157C55.4479 119.423 55.1384 118.39 55.821 117.058C56.833 116.077 58.0528 115.642 59.4802 115.754C59.557 114.598 59.0108 114.055 57.8417 114.123C57.2883 114.114 56.7786 114.258 56.3125 114.558C56.0773 114.294 56.0046 114.004 56.094 113.689C56.5555 113.44 57.0288 113.258 57.514 113.145Z" fill="#363636"/>
<path fill-rule="evenodd" clip-rule="evenodd" d="M65.9175 113.253C66.8285 113.235 67.7387 113.253 68.6483 113.307C69.2345 113.372 69.7807 113.553 70.2867 113.851C70.8844 114.638 70.8481 115.399 70.1775 116.134C69.9353 116.273 69.6804 116.382 69.4129 116.46C70.9336 116.823 71.3887 117.711 70.7783 119.123C70.531 119.442 70.2214 119.678 69.8498 119.83C68.4484 120.199 67.0284 120.291 65.5898 120.102C65.5898 117.855 65.5898 115.609 65.5898 113.362C65.7309 113.388 65.8401 113.351 65.9175 113.253Z" fill="#353535"/>
<path fill-rule="evenodd" clip-rule="evenodd" d="M79.4648 113.362C79.958 113.219 80.4678 113.219 80.9941 113.362C80.9805 113.428 80.9441 113.464 80.8848 113.47C80.4333 113.364 79.9599 113.327 79.4648 113.362Z" fill="#9A9A9A"/>
<path fill-rule="evenodd" clip-rule="evenodd" d="M86.5685 113.145C87.7144 112.968 88.6793 113.294 89.4631 114.123C89.536 114.268 89.6087 114.414 89.6816 114.558C89.8107 116.402 89.9017 118.25 89.9547 120.102C89.5835 120.137 89.2193 120.101 88.8624 119.993C88.7871 119.783 88.7325 119.565 88.6985 119.341C87.8949 120.139 86.93 120.411 85.8039 120.156C84.7253 119.585 84.343 118.697 84.657 117.493C85.0336 116.734 85.6344 116.245 86.4593 116.026C87.1743 115.829 87.9026 115.738 88.6439 115.754C88.7102 115.135 88.4917 114.646 87.9885 114.286C87.0745 114.009 86.2006 114.099 85.367 114.558C85.2368 114.315 85.1276 114.061 85.0393 113.797C85.5147 113.471 86.0243 113.254 86.5685 113.145Z" fill="#373737"/>
<path fill-rule="evenodd" clip-rule="evenodd" d="M110.704 113.144C113.276 113.097 114.478 114.364 114.309 116.949C112.706 116.949 111.105 116.949 109.502 116.949C109.522 118.527 110.324 119.288 111.905 119.232C112.505 119.276 113.07 119.168 113.599 118.906C113.768 119.211 113.858 119.537 113.872 119.884C112.8 120.185 111.708 120.275 110.595 120.156C108.999 119.572 108.235 118.431 108.301 116.732C108.26 114.962 109.061 113.766 110.704 113.144Z" fill="#363636"/>
<path fill-rule="evenodd" clip-rule="evenodd" d="M122.391 113.362C122.847 113.219 123.321 113.219 123.811 113.362C123.798 113.428 123.76 113.464 123.701 113.47C123.286 113.364 122.849 113.327 122.391 113.362Z" fill="#9B9B9B"/>
<path fill-rule="evenodd" clip-rule="evenodd" d="M160.84 113.145C162.651 112.939 163.798 113.7 164.281 115.427C164.335 115.933 164.354 116.441 164.335 116.949C162.733 116.949 161.132 116.949 159.529 116.949C159.621 118.454 160.422 119.215 161.932 119.232C162.542 119.261 163.124 119.153 163.68 118.906C163.858 119.207 163.931 119.533 163.898 119.884C162.714 120.246 161.513 120.301 160.294 120.047C158.926 119.376 158.271 118.27 158.328 116.732C158.369 114.956 159.206 113.76 160.84 113.145Z" fill="#363636"/>
<path fill-rule="evenodd" clip-rule="evenodd" d="M171.217 113.145C172.004 113.104 172.769 113.213 173.511 113.471C173.485 113.829 173.375 114.155 173.183 114.45C170.316 113.806 169.133 114.929 169.633 117.82C170.498 119.282 171.718 119.644 173.292 118.907C173.328 119.015 173.365 119.124 173.402 119.233C173.482 119.462 173.482 119.68 173.402 119.885C172.482 120.201 171.535 120.292 170.562 120.157C168.723 119.415 167.94 118.057 168.213 116.08C168.554 114.418 169.556 113.44 171.217 113.145Z" fill="#373737"/>
<path fill-rule="evenodd" clip-rule="evenodd" d="M181.82 113.362C182.314 113.219 182.823 113.219 183.35 113.362C183.336 113.428 183.299 113.464 183.24 113.47C182.789 113.364 182.315 113.327 181.82 113.362Z" fill="#979797"/>
<path fill-rule="evenodd" clip-rule="evenodd" d="M198.525 113.362C198.067 113.327 197.63 113.364 197.215 113.47C197.156 113.464 197.119 113.428 197.105 113.362C197.595 113.219 198.069 113.219 198.525 113.362Z" fill="#989898"/>
<path fill-rule="evenodd" clip-rule="evenodd" d="M217.098 114.341C217.098 114.015 217.098 113.689 217.098 113.363C215.751 113.363 214.403 113.363 213.056 113.363C213.056 115.61 213.056 117.855 213.056 120.102C212.947 117.838 212.911 115.555 212.947 113.254C214.367 113.254 215.787 113.254 217.207 113.254C217.241 113.639 217.205 114.002 217.098 114.341Z" fill="#818181"/>
<path fill-rule="evenodd" clip-rule="evenodd" d="M222.336 113.145C223.424 112.969 224.389 113.222 225.231 113.906C225.404 114.142 225.55 114.395 225.668 114.667C225.789 116.463 225.881 118.256 225.941 120.048C225.542 120.102 225.141 120.121 224.739 120.102C224.773 119.839 224.736 119.585 224.63 119.341C223.84 120.117 222.893 120.389 221.79 120.157C220.609 119.573 220.227 118.649 220.643 117.385C221.13 116.589 221.84 116.1 222.773 115.917C223.351 115.81 223.934 115.756 224.521 115.754C224.602 114.603 224.055 114.059 222.882 114.123C222.325 114.115 221.815 114.26 221.353 114.558C221.118 114.294 221.045 114.004 221.135 113.689C221.537 113.491 221.938 113.309 222.336 113.145Z" fill="#363636"/>
<path fill-rule="evenodd" clip-rule="evenodd" d="M231.728 113.145C232.863 113.008 233.829 113.334 234.623 114.123C235.043 115.298 234.661 116.076 233.476 116.46C234.97 116.881 235.426 117.805 234.841 119.232C234.397 119.753 233.832 120.061 233.148 120.156C232.221 120.272 231.31 120.2 230.417 119.939C230.23 119.882 230.083 119.774 229.98 119.613C230.026 119.327 230.154 119.091 230.363 118.906C231.361 119.443 232.363 119.46 233.367 118.96C234.018 118.116 233.836 117.5 232.82 117.112C232.276 117.031 231.73 116.977 231.182 116.949C231.182 116.696 231.182 116.442 231.182 116.188C232.059 116.293 232.805 116.038 233.421 115.427C233.502 114.475 233.047 114.04 232.056 114.123C231.514 114.103 231.023 114.248 230.581 114.558C230.352 114.294 230.297 114.003 230.417 113.688C230.849 113.461 231.286 113.281 231.728 113.145Z" fill="#373737"/>
<path fill-rule="evenodd" clip-rule="evenodd" d="M241.561 113.144C243.602 112.899 244.931 113.733 245.548 115.645C245.865 117.063 245.555 118.313 244.62 119.395C243.273 120.355 241.853 120.464 240.36 119.721C238.881 118.301 238.572 116.652 239.431 114.775C239.941 113.959 240.651 113.415 241.561 113.144Z" fill="#373737"/>
<path fill-rule="evenodd" clip-rule="evenodd" d="M250.3 113.253C251.321 113.235 252.34 113.253 253.359 113.307C254.724 113.468 255.288 114.211 255.052 115.536C254.802 116.002 254.419 116.31 253.905 116.46C255.372 116.899 255.791 117.823 255.161 119.232C254.422 119.84 253.566 120.148 252.594 120.156C251.718 120.228 250.844 120.209 249.973 120.102C249.973 117.855 249.973 115.609 249.973 113.362C250.114 113.388 250.223 113.351 250.3 113.253Z" fill="#363636"/>
<path fill-rule="evenodd" clip-rule="evenodd" d="M17.3164 113.362C19.1733 113.362 21.0302 113.362 22.8871 113.362C22.8871 115.609 22.8871 117.855 22.8871 120.102C22.4866 120.102 22.0862 120.102 21.6856 120.102C21.6856 118.181 21.6856 116.261 21.6856 114.341C20.6495 114.233 19.5936 114.196 18.5179 114.232C18.5179 116.189 18.5179 118.145 18.5179 120.102C18.1174 120.102 17.717 120.102 17.3164 120.102C17.3164 117.855 17.3164 115.609 17.3164 113.362Z" fill="#323232"/>
<path fill-rule="evenodd" clip-rule="evenodd" d="M17.3164 113.362C19.1907 113.253 21.084 113.217 22.9964 113.253C23.0325 115.554 22.996 117.837 22.8871 120.102C22.8871 117.855 22.8871 115.609 22.8871 113.362C21.0302 113.362 19.1733 113.362 17.3164 113.362Z" fill="#757575"/>
<path fill-rule="evenodd" clip-rule="evenodd" d="M52.1531 113.362C52.1531 113.653 52.1531 113.942 52.1531 114.232C51.4407 114.197 50.7489 114.233 50.0777 114.341C50.0777 116.261 50.0777 118.181 50.0777 120.102C49.6771 120.102 49.2767 120.102 48.8762 120.102C48.8762 118.181 48.8762 116.261 48.8762 114.341C48.2049 114.233 47.5132 114.197 46.8008 114.232C46.8008 113.942 46.8008 113.653 46.8008 113.362C48.5848 113.362 50.369 113.362 52.1531 113.362Z" fill="#333333"/>
<path fill-rule="evenodd" clip-rule="evenodd" d="M76.9488 116.189C76.8714 116.287 76.7622 116.324 76.6211 116.298C76.6211 115.319 76.6211 114.341 76.6211 113.363C76.2206 113.363 75.8202 113.363 75.4196 113.363C75.4196 115.61 75.4196 117.855 75.4196 120.102C75.3107 117.838 75.2742 115.555 75.3104 113.254C75.7837 113.254 76.2571 113.254 76.7304 113.254C76.6607 114.276 76.7335 115.254 76.9488 116.189Z" fill="#C8C8C8"/>
<path fill-rule="evenodd" clip-rule="evenodd" d="M76.955 116.189C77.7925 115.246 78.6298 114.305 79.4673 113.362C79.9623 113.328 80.4357 113.364 80.8873 113.471C79.9824 114.408 79.0721 115.351 78.1565 116.297C78.841 116.521 79.4054 116.919 79.8496 117.493C80.2628 118.309 80.6451 119.142 80.9965 119.993C80.5596 120.138 80.1227 120.138 79.6858 119.993C79.3868 119.337 79.0773 118.685 78.7573 118.037C78.2217 117.333 77.5117 117.043 76.6273 117.167C76.6273 118.145 76.6273 119.124 76.6273 120.102C76.2268 120.102 75.8263 120.102 75.4258 120.102C75.4258 117.855 75.4258 115.609 75.4258 113.362C75.8263 113.362 76.2268 113.362 76.6273 113.362C76.6273 114.341 76.6273 115.319 76.6273 116.297C76.7683 116.323 76.8776 116.286 76.955 116.189Z" fill="#353535"/>
<path fill-rule="evenodd" clip-rule="evenodd" d="M105.02 113.362C105.02 113.653 105.02 113.942 105.02 114.232C104.308 114.197 103.616 114.233 102.945 114.341C102.945 116.261 102.945 118.181 102.945 120.102C102.544 120.102 102.144 120.102 101.743 120.102C101.743 118.145 101.743 116.189 101.743 114.232C101.015 114.232 100.287 114.232 99.5586 114.232C99.5586 113.942 99.5586 113.653 99.5586 113.362C101.379 113.362 103.2 113.362 105.02 113.362Z" fill="#333333"/>
<path fill-rule="evenodd" clip-rule="evenodd" d="M122.4 113.362C122.859 113.328 123.296 113.364 123.711 113.471C122.985 114.52 122.257 115.571 121.526 116.623C122.263 117.766 123.028 118.889 123.82 119.993C123.347 120.138 122.873 120.138 122.4 119.993C121.835 119.16 121.272 118.327 120.707 117.493C120.142 118.344 119.579 119.197 119.014 120.048C118.573 120.138 118.136 120.119 117.703 119.993C118.482 118.895 119.247 117.791 119.997 116.678C119.297 115.573 118.568 114.486 117.812 113.417C118.285 113.344 118.759 113.344 119.232 113.417C119.76 114.232 120.289 115.047 120.816 115.863C121.345 115.027 121.874 114.193 122.4 113.362Z" fill="#363636"/>
<path fill-rule="evenodd" clip-rule="evenodd" d="M132.338 113.362C132.739 113.362 133.138 113.362 133.539 113.362C133.539 115.609 133.539 117.855 133.539 120.102C133.138 120.102 132.739 120.102 132.338 120.102C132.338 119.088 132.338 118.073 132.338 117.058C131.246 117.058 130.153 117.058 129.061 117.058C129.061 118.073 129.061 119.088 129.061 120.102C128.66 120.102 128.26 120.102 127.859 120.102C127.859 117.855 127.859 115.609 127.859 113.362C128.26 113.362 128.66 113.362 129.061 113.362C129.061 114.268 129.061 115.174 129.061 116.08C130.153 116.08 131.246 116.08 132.338 116.08C132.338 115.174 132.338 114.268 132.338 113.362Z" fill="#333333"/>
<path fill-rule="evenodd" clip-rule="evenodd" d="M139.434 113.362C139.07 113.362 138.705 113.362 138.341 113.362C138.341 115.609 138.341 117.855 138.341 120.102C138.232 117.838 138.196 115.555 138.232 113.253C138.655 113.22 139.056 113.256 139.434 113.362Z" fill="#C6C6C6"/>
<path fill-rule="evenodd" clip-rule="evenodd" d="M139.432 113.362C139.414 115.174 139.432 116.986 139.487 118.798C140.462 116.994 141.482 115.219 142.545 113.471C143.063 113.365 143.591 113.33 144.129 113.362C144.129 115.609 144.129 117.855 144.129 120.102C143.728 120.102 143.328 120.102 142.928 120.102C142.921 118.251 142.94 116.403 142.982 114.558C141.97 116.398 140.914 118.209 139.814 119.993C139.334 120.099 138.842 120.135 138.34 120.102C138.34 117.855 138.34 115.609 138.34 113.362C138.704 113.362 139.068 113.362 139.432 113.362Z" fill="#343434"/>
<path fill-rule="evenodd" clip-rule="evenodd" d="M148.718 113.362C149.119 113.362 149.519 113.362 149.919 113.362C149.875 114.349 149.929 115.328 150.083 116.297C150.34 116.815 150.758 117.032 151.339 116.95C151.853 116.975 152.308 116.83 152.705 116.515C152.759 115.465 152.778 114.413 152.759 113.362C153.16 113.362 153.56 113.362 153.961 113.362C153.961 115.609 153.961 117.855 153.961 120.102C153.56 120.102 153.16 120.102 152.759 120.102C152.778 119.195 152.759 118.29 152.705 117.384C151.658 118.031 150.585 118.086 149.483 117.547C149.064 117.277 148.828 116.896 148.773 116.406C148.718 115.392 148.699 114.378 148.718 113.362Z" fill="#343434"/>
<path fill-rule="evenodd" clip-rule="evenodd" d="M181.815 113.362C182.31 113.328 182.784 113.364 183.235 113.471C182.308 114.412 181.397 115.373 180.504 116.352C181.08 116.481 181.571 116.753 181.979 117.167C182.512 118.102 183.003 119.062 183.453 120.048C182.976 120.138 182.503 120.119 182.033 119.993C181.764 119.148 181.363 118.369 180.832 117.656C180.289 117.225 179.671 117.062 178.975 117.167C178.975 118.145 178.975 119.124 178.975 120.102C178.574 120.102 178.174 120.102 177.773 120.102C177.773 117.855 177.773 115.609 177.773 113.362C178.174 113.362 178.574 113.362 178.975 113.362C178.956 114.305 178.975 115.247 179.03 116.189C179.074 116.239 179.129 116.275 179.193 116.297C180.069 115.317 180.943 114.338 181.815 113.362Z" fill="#353535"/>
<path fill-rule="evenodd" clip-rule="evenodd" d="M187.277 113.362C187.678 113.362 188.078 113.362 188.479 113.362C188.46 115.101 188.479 116.841 188.533 118.58C189.479 116.841 190.481 115.138 191.537 113.471C192.042 113.363 192.552 113.326 193.067 113.362C193.067 115.609 193.067 117.855 193.067 120.102C192.666 120.102 192.266 120.102 191.865 120.102C191.863 118.252 191.88 116.404 191.92 114.558C190.909 116.387 189.872 118.199 188.807 119.993C188.302 120.101 187.792 120.138 187.277 120.102C187.277 117.855 187.277 115.609 187.277 113.362Z" fill="#353535"/>
<path fill-rule="evenodd" clip-rule="evenodd" d="M198.529 113.362C199.075 114.16 199.622 114.957 200.168 115.754C200.703 115.016 201.213 114.255 201.697 113.471C202.167 113.345 202.64 113.326 203.117 113.417C202.321 114.444 201.592 115.512 200.932 116.623C201.672 117.777 202.436 118.918 203.226 120.048C202.753 120.121 202.279 120.121 201.806 120.048C201.241 119.179 200.659 118.327 200.058 117.493C199.525 118.354 198.979 119.205 198.42 120.048C197.947 120.121 197.473 120.121 197 120.048C197.815 118.916 198.616 117.775 199.403 116.623C198.672 115.571 197.944 114.52 197.218 113.471C197.634 113.364 198.07 113.328 198.529 113.362Z" fill="#363636"/>
<path fill-rule="evenodd" clip-rule="evenodd" d="M217.096 114.341C216.149 114.341 215.203 114.341 214.256 114.341C214.256 116.261 214.256 118.181 214.256 120.102C213.855 120.102 213.456 120.102 213.055 120.102C213.055 117.855 213.055 115.609 213.055 113.362C214.401 113.362 215.749 113.362 217.096 113.362C217.096 113.688 217.096 114.015 217.096 114.341Z" fill="#353535"/>
<path fill-rule="evenodd" clip-rule="evenodd" d="M29.9842 114.123C31.3554 113.948 32.211 114.528 32.5511 115.863C32.8373 117.145 32.4913 118.215 31.5134 119.069C29.9897 119.586 29.0249 119.06 28.6188 117.493C28.2673 116.018 28.7223 114.894 29.9842 114.123Z" fill="#FCFCFC"/>
<path fill-rule="evenodd" clip-rule="evenodd" d="M66.9054 114.123C67.5679 114.096 68.2232 114.151 68.8715 114.286C69.6993 114.773 69.7356 115.316 68.9807 115.916C68.6949 116.005 68.4036 116.06 68.1069 116.079C67.67 116.079 67.2331 116.079 66.7961 116.079C66.7646 115.417 66.8011 114.765 66.9054 114.123Z" fill="#FCFCFC"/>
<path fill-rule="evenodd" clip-rule="evenodd" d="M113.003 115.537C113.003 115.681 113.003 115.827 113.003 115.971C111.838 115.971 110.673 115.971 109.508 115.971C109.678 114.896 110.296 114.244 111.365 114.015C112.314 114.105 112.86 114.611 113.003 115.537Z" fill="#FBFBFB"/>
<path fill-rule="evenodd" clip-rule="evenodd" d="M163.136 115.972C161.971 115.972 160.806 115.972 159.641 115.972C159.641 115.863 159.641 115.754 159.641 115.646C159.977 114.41 160.778 113.92 162.044 114.178C162.783 114.543 163.147 115.141 163.136 115.972Z" fill="#FBFBFB"/>
<path fill-rule="evenodd" clip-rule="evenodd" d="M241.676 114.123C243.055 113.958 243.91 114.537 244.243 115.862C244.505 117.047 244.232 118.08 243.423 118.961C241.715 119.677 240.677 119.116 240.31 117.276C240.057 115.898 240.511 114.848 241.676 114.123Z" fill="#FCFCFC"/>
<path fill-rule="evenodd" clip-rule="evenodd" d="M251.172 114.122C251.992 114.067 252.793 114.157 253.575 114.394C254.059 114.985 253.986 115.493 253.356 115.916C252.648 116.147 251.919 116.238 251.172 116.188C251.172 115.5 251.172 114.81 251.172 114.122Z" fill="#FAFAFA"/>
<path fill-rule="evenodd" clip-rule="evenodd" d="M52.1574 113.362C52.2641 113.666 52.3005 113.992 52.2666 114.341C51.5384 114.341 50.8103 114.341 50.082 114.341C50.7533 114.233 51.445 114.197 52.1574 114.232C52.1574 113.942 52.1574 113.653 52.1574 113.362Z" fill="#717171"/>
<path fill-rule="evenodd" clip-rule="evenodd" d="M66.9072 114.123C66.8029 114.765 66.7664 115.418 66.7979 116.08C67.2349 116.08 67.6718 116.08 68.1087 116.08C67.6571 116.186 67.1837 116.223 66.6887 116.188C66.6207 115.455 66.6935 114.765 66.9072 114.123Z" fill="#A1A1A1"/>
<path fill-rule="evenodd" clip-rule="evenodd" d="M105.025 113.362C105.131 113.666 105.168 113.992 105.134 114.341C104.406 114.341 103.677 114.341 102.949 114.341C103.62 114.233 104.312 114.197 105.025 114.232C105.025 113.942 105.025 113.653 105.025 113.362Z" fill="#717171"/>
<path fill-rule="evenodd" clip-rule="evenodd" d="M21.6794 114.341C20.6599 114.341 19.6404 114.341 18.6209 114.341C18.657 116.28 18.6206 118.201 18.5117 120.102C18.5117 118.145 18.5117 116.189 18.5117 114.232C19.5874 114.196 20.6432 114.233 21.6794 114.341Z" fill="#8A8A8A"/>
<path fill-rule="evenodd" clip-rule="evenodd" d="M99.5586 114.231C100.287 114.231 101.015 114.231 101.743 114.231C101.743 116.188 101.743 118.145 101.743 120.102C101.634 118.2 101.598 116.279 101.634 114.34C100.922 114.375 100.23 114.339 99.5586 114.231Z" fill="#8D8D8D"/>
<path fill-rule="evenodd" clip-rule="evenodd" d="M113.003 115.537C113.107 115.691 113.143 115.873 113.112 116.08C111.891 116.116 110.69 116.079 109.508 115.971C110.673 115.971 111.838 115.971 113.003 115.971C113.003 115.827 113.003 115.681 113.003 115.537Z" fill="#C4C4C4"/>
<path fill-rule="evenodd" clip-rule="evenodd" d="M132.328 113.363C132.328 114.268 132.328 115.175 132.328 116.08C131.235 116.08 130.143 116.08 129.051 116.08C129.051 115.175 129.051 114.268 129.051 113.363C128.65 113.363 128.25 113.363 127.849 113.363C127.849 115.61 127.849 117.855 127.849 120.102C127.74 117.838 127.704 115.555 127.74 113.254C128.213 113.254 128.687 113.254 129.16 113.254C129.16 114.159 129.16 115.066 129.16 115.972C130.179 115.972 131.199 115.972 132.218 115.972C132.182 115.082 132.22 114.213 132.328 113.363Z" fill="#C1C1C1"/>
<path fill-rule="evenodd" clip-rule="evenodd" d="M159.639 115.645C159.639 115.754 159.639 115.862 159.639 115.971C160.804 115.971 161.968 115.971 163.134 115.971C161.952 116.079 160.751 116.116 159.529 116.08C159.5 115.906 159.537 115.761 159.639 115.645Z" fill="#C7C7C7"/>
<path fill-rule="evenodd" clip-rule="evenodd" d="M58.6023 116.624C58.9299 116.624 59.2576 116.624 59.5853 116.624C59.7876 117.595 59.5328 118.411 58.8207 119.069C58.1338 119.476 57.4966 119.422 56.9092 118.906C56.5651 118.124 56.729 117.489 57.4007 117.004C57.8006 116.831 58.2012 116.704 58.6023 116.624Z" fill="#F8F8F8"/>
<path fill-rule="evenodd" clip-rule="evenodd" d="M87.6616 116.624C87.9893 116.624 88.317 116.624 88.6447 116.624C88.6888 117.253 88.6342 117.869 88.4809 118.472C87.9452 119.229 87.2352 119.464 86.3509 119.178C85.6226 118.49 85.6226 117.801 86.3509 117.113C86.766 116.85 87.203 116.687 87.6616 116.624Z" fill="#F9F9F9"/>
<path fill-rule="evenodd" clip-rule="evenodd" d="M223.431 116.624C223.832 116.624 224.231 116.624 224.632 116.624C224.824 117.591 224.57 118.406 223.868 119.069C223.181 119.476 222.544 119.422 221.956 118.906C221.612 118.124 221.776 117.489 222.448 117.004C222.783 116.863 223.111 116.737 223.431 116.624Z" fill="#F8F8F8"/>
<path fill-rule="evenodd" clip-rule="evenodd" d="M68.4249 117.058C67.8787 117.058 67.3326 117.058 66.7864 117.058C66.7864 117.783 66.7864 118.507 66.7864 119.232C66.6782 118.492 66.6417 117.731 66.6772 116.949C67.2808 116.915 67.8634 116.95 68.4249 117.058Z" fill="#A1A1A1"/>
<path fill-rule="evenodd" clip-rule="evenodd" d="M68.4314 117.058C69.4398 117.1 69.8585 117.607 69.6876 118.579C69.3593 118.97 68.9407 119.205 68.4314 119.286C67.8652 119.375 67.319 119.357 66.793 119.232C66.793 118.507 66.793 117.783 66.793 117.058C67.3391 117.058 67.8853 117.058 68.4314 117.058Z" fill="#FBFBFB"/>
<path d="M103.705 44C105.343 58.3 111.746 64.0979 123.534 69.3C118.338 61.6 118.969 55 119.44 52.8C119.91 50.6 122.745 41.8 132.347 38.5C143.363 44 144.777 52.8 144.777 52.8C144.777 52.8 147.612 59.4 140.058 69.3C153 63.6615 157.842 57.2 159.887 44C161.933 30.8 144.777 9.9 132.189 0C118.18 12.1 101.814 27.5 103.705 44Z" fill="url(#paint0_linear_131_18596)"/>
<path fill-rule="evenodd" clip-rule="evenodd" d="M251.172 116.95C251.99 116.902 252.791 116.992 253.575 117.222C253.983 117.374 254.165 117.664 254.121 118.091C254.165 118.548 253.983 118.874 253.575 119.07C252.793 119.307 251.992 119.397 251.172 119.341C251.172 118.545 251.172 117.747 251.172 116.95Z" fill="#F9F9F9"/>
</g>
<defs>
<linearGradient id="paint0_linear_131_18596" x1="131.796" y1="0" x2="131.796" y2="69.3" gradientUnits="userSpaceOnUse">
<stop stop-color="#F5EA16"/>
<stop offset="1" stop-color="#EDAA0B"/>
</linearGradient>
<clipPath id="clip0_131_18596">
<rect width="271" height="121" fill="white"/>
</clipPath>
</defs>
</svg>
