<svg width="123" height="55" viewBox="0 0 123 55" fill="none" xmlns="http://www.w3.org/2000/svg">
<g clip-path="url(#clip0_34_9595)">
<path fill-rule="evenodd" clip-rule="evenodd" d="M-0.0498047 0C40.9502 0 81.9502 0 122.95 0C122.95 18.3333 122.95 36.6667 122.95 55C81.9502 55 40.9502 55 -0.0498047 55C-0.0498047 36.6667 -0.0498047 18.3333 -0.0498047 0Z" fill="white"/>
<path fill-rule="evenodd" clip-rule="evenodd" d="M16.9305 37.0013C13.8732 37.0013 10.816 37.0013 7.75876 37.0013C7.75876 40.559 7.75876 44.1166 7.75876 47.6743C7.70924 44.1087 7.69268 40.5343 7.70919 36.9519C10.7913 36.9356 13.8651 36.9519 16.9305 37.0013Z" fill="#D1504D"/>
<path fill-rule="evenodd" clip-rule="evenodd" d="M16.9305 37.001C16.9305 37.709 16.9305 38.4176 16.9305 39.1257C14.7326 39.1257 12.5347 39.1257 10.3368 39.1257C10.3368 41.9753 10.3368 44.8243 10.3368 47.6739C9.47747 47.6739 8.6181 47.6739 7.75879 47.6739C7.75879 44.1163 7.75879 40.5586 7.75879 37.001C10.816 37.001 13.8732 37.001 16.9305 37.001Z" fill="#BC0301"/>
<path fill-rule="evenodd" clip-rule="evenodd" d="M89.8579 47.6742C89.8743 46.0431 89.8579 44.4125 89.8083 42.7824C89.7781 42.7883 89.7617 42.8051 89.7588 42.8318C89.2412 43.1495 88.6795 43.3551 88.0731 43.4495C86.6681 43.5473 85.2636 43.5473 83.8591 43.4495C82.0877 43.1001 81.1706 42.021 81.1076 40.213C81.0828 39.1427 81.0744 38.072 81.0828 37.0012C81.942 37.0012 82.8016 37.0012 83.6608 37.0012C83.6445 37.9322 83.6608 38.8547 83.7104 39.7683C83.7049 40.7096 84.1675 41.2447 85.0985 41.3742C86.0737 41.4073 87.0484 41.4073 88.0236 41.3742C88.7563 41.3673 89.3428 41.0792 89.7835 40.5095C89.7999 39.3399 89.8168 38.1708 89.8331 37.0012C90.6804 36.9439 91.5316 36.936 92.3863 36.9765C92.4359 40.5391 92.4523 44.1047 92.4359 47.6742C91.5767 47.6742 90.7171 47.6742 89.8579 47.6742Z" fill="#BC0301"/>
<path fill-rule="evenodd" clip-rule="evenodd" d="M81.0828 37.0013C81.9499 36.9519 82.8259 36.9356 83.7104 36.9519C83.7104 37.8907 83.7104 38.8296 83.7104 39.7684C83.6608 38.8548 83.6445 37.9322 83.6608 37.0013C82.8017 37.0013 81.942 37.0013 81.0828 37.0013Z" fill="#E7A1A1"/>
<path fill-rule="evenodd" clip-rule="evenodd" d="M71.0188 39.9658C70.9067 39.9208 70.7991 39.9045 70.6965 39.9164C69.8408 39.949 68.9896 39.9821 68.1433 40.0152C67.9579 39.6624 67.7596 39.3165 67.5484 38.9776C67.3496 39.3081 67.1513 39.6377 66.9535 39.9658C65.9545 39.9693 64.9793 39.9693 64.0284 39.9658C64.5564 38.9791 65.0854 37.9908 65.6149 37.0011C66.887 36.9433 68.1597 36.9354 69.4323 36.9764C69.9806 37.9627 70.5096 38.9588 71.0188 39.9658Z" fill="#EA9309"/>
<path fill-rule="evenodd" clip-rule="evenodd" d="M58.7733 40.213C58.7733 40.1304 58.7733 40.0484 58.7733 39.9659C57.9305 39.9659 57.0877 39.9659 56.2449 39.9659C56.1978 39.4495 55.9167 39.1447 55.4021 39.0518C53.6337 39.0187 51.8658 39.0187 50.0974 39.0518C49.6105 39.1837 49.3792 39.5049 49.4033 40.0153C48.5274 40.0153 47.6516 40.0153 46.7757 40.0153C46.7146 39.0182 47.0617 38.2029 47.8168 37.5694C48.4445 37.2112 49.122 37.0135 49.8495 36.9765C51.7498 36.9434 53.6505 36.9434 55.5508 36.9765C56.0877 37.0328 56.6167 37.1316 57.1373 37.273C57.9518 37.5739 58.4724 38.1421 58.6989 38.9777C58.814 39.3927 58.8387 39.8043 58.7733 40.213Z" fill="#EA940A"/>
<path fill-rule="evenodd" clip-rule="evenodd" d="M68.1433 40.0152C68.5335 40.826 68.9464 41.6166 69.3827 42.387C69.4486 42.5515 69.5151 42.7165 69.581 42.8811C68.2013 42.9305 66.8131 42.9468 65.4166 42.9305C65.5118 42.7566 65.5945 42.5757 65.6644 42.387C66.132 41.6038 66.5613 40.7969 66.9534 39.9658C67.1513 39.6377 67.3496 39.3081 67.5484 38.9775C67.7596 39.3165 67.9579 39.6624 68.1433 40.0152Z" fill="#FEFEFD"/>
<path fill-rule="evenodd" clip-rule="evenodd" d="M56.2448 39.9658C57.0876 39.9658 57.9305 39.9658 58.7733 39.9658C58.7733 40.0483 58.7733 40.1304 58.7733 40.2129C58.7762 41.1893 58.33 41.8731 57.4347 42.2635C57.5021 42.3094 57.568 42.3509 57.633 42.387C55.0882 42.387 52.5429 42.387 49.9982 42.387C49.9982 42.0411 49.9982 41.6952 49.9982 41.3493C51.7993 41.3577 53.6009 41.3493 55.402 41.3246C56.0391 41.1018 56.3202 40.6487 56.2448 39.9658Z" fill="#E98C05"/>
<path fill-rule="evenodd" clip-rule="evenodd" d="M64.0284 39.9658C64.9793 39.9693 65.9545 39.9693 66.9535 39.9658C66.5613 40.7969 66.132 41.6038 65.6645 42.387C64.6814 42.3895 63.7062 42.3895 62.7394 42.387C63.1817 41.588 63.6115 40.7806 64.0284 39.9658Z" fill="#E98D05"/>
<path fill-rule="evenodd" clip-rule="evenodd" d="M71.019 39.9657C71.4612 40.7647 71.8911 41.5721 72.308 42.3869C71.3214 42.3869 70.3463 42.3869 69.383 42.3869C68.9467 41.6166 68.5337 40.826 68.1436 40.0152C68.9898 39.9821 69.8411 39.9489 70.6968 39.9163C70.7994 39.9045 70.907 39.9208 71.019 39.9657Z" fill="#E98D05"/>
<path fill-rule="evenodd" clip-rule="evenodd" d="M28.7298 42.5846C28.7298 44.2809 28.7298 45.9777 28.7298 47.674C27.8705 47.674 27.0111 47.674 26.1518 47.674C26.16 47.4101 26.1517 47.1463 26.127 46.8834C25.9156 47.1927 25.643 47.4319 25.309 47.5999C24.4517 47.6557 23.5924 47.6804 22.731 47.674C21.8533 47.6799 20.9774 47.6552 20.1034 47.5999C19.2714 47.4131 18.7508 46.9106 18.5417 46.0928C18.4997 45.4653 18.5162 44.8392 18.5913 44.2152C18.7234 43.68 19.0457 43.3094 19.5581 43.1034C19.9728 42.9423 20.4025 42.8435 20.8471 42.8069C22.2683 42.7738 23.6894 42.7738 25.1107 42.8069C25.5486 42.8563 25.8874 43.0619 26.127 43.4246C26.1723 42.9759 26.1557 42.5312 26.0774 42.0905C25.9247 41.8864 25.7181 41.7629 25.4577 41.7199C24.1868 41.6408 22.9143 41.6245 21.6403 41.6705C21.1933 41.6462 20.995 41.8523 21.0454 42.2881C20.2356 42.2881 19.4258 42.2881 18.6161 42.2881C18.5959 41.2332 19.0916 40.5498 20.1034 40.2375C20.3779 40.152 20.6589 40.1026 20.9462 40.0893C22.6483 40.0562 24.3505 40.0562 26.0526 40.0893C27.0461 40.1105 27.8311 40.5142 28.4075 41.2999C28.6377 41.6976 28.7451 42.1255 28.7298 42.5846Z" fill="#BC0301"/>
<path fill-rule="evenodd" clip-rule="evenodd" d="M34.1336 44.4622C34.1336 43.9844 34.1336 43.5071 34.1336 43.0293C35.0181 43.0456 35.894 43.0293 36.7612 42.9799C37.3145 42.8356 37.4881 42.4897 37.2818 41.9422C37.1516 41.8073 36.9946 41.7169 36.8108 41.6705C35.7036 41.6374 34.5963 41.6374 33.4891 41.6705C33.2258 41.7233 33.0027 41.8469 32.8199 42.041C32.7952 42.172 32.7869 42.3034 32.7951 42.4363C32.0184 42.4363 31.2417 42.4363 30.465 42.4363C30.3516 41.0078 31.0127 40.2257 32.448 40.0893C34.1502 40.0562 35.8523 40.0562 37.5544 40.0893C39.3465 40.2909 40.0158 41.2707 39.5623 43.0293C39.3888 43.3999 39.1161 43.6716 38.7443 43.8446C39.3566 44.0269 39.7284 44.4301 39.8598 45.0552C40.0576 46.703 39.3222 47.5678 37.6536 47.6493C35.8688 47.6824 34.0841 47.6824 32.2993 47.6493C30.8901 47.4714 30.196 46.6729 30.2171 45.2528C30.9938 45.2528 31.7705 45.2528 32.5472 45.2528C32.5106 45.6995 32.7089 45.9713 33.1421 46.0681C34.365 46.1012 35.5879 46.1012 36.8108 46.0681C37.559 45.8863 37.7655 45.45 37.4305 44.7587C37.288 44.6124 37.1144 44.5215 36.9099 44.4869C35.9846 44.4622 35.0592 44.4538 34.1336 44.4622Z" fill="#BC0301"/>
<path fill-rule="evenodd" clip-rule="evenodd" d="M96.6004 42.2389C95.7908 42.2389 94.9807 42.2389 94.1711 42.2389C94.1711 42.14 94.1711 42.0412 94.1711 41.9424C94.3714 40.8781 95.0159 40.2767 96.1046 40.1389C97.9211 40.0593 99.7391 40.0425 101.558 40.0895C102.49 40.1023 103.259 40.4561 103.863 41.1518C104.051 41.4596 104.183 41.7887 104.26 42.14C104.285 43.9846 104.293 45.8296 104.285 47.6742C103.426 47.6742 102.566 47.6742 101.707 47.6742C101.715 47.4103 101.707 47.1464 101.682 46.8836C101.442 47.2715 101.103 47.5269 100.666 47.6495C99.0956 47.6826 97.526 47.6826 95.9559 47.6495C95.2013 47.5748 94.6312 47.2206 94.2455 46.5871C94.188 46.4082 94.1384 46.2269 94.0967 46.0436C94.0536 45.4155 94.07 44.7895 94.1463 44.1659C94.3154 43.6189 94.6703 43.2483 95.2122 43.0542C95.5994 42.9296 95.996 42.8471 96.4021 42.8071C97.8234 42.774 99.2443 42.774 100.666 42.8071C101.104 42.8565 101.443 43.0621 101.682 43.4247C101.715 43.0295 101.715 42.6342 101.682 42.2389C101.554 41.9152 101.314 41.7423 100.963 41.72C99.7088 41.6405 98.453 41.6242 97.1953 41.6706C96.7729 41.639 96.5746 41.8283 96.6004 42.2389Z" fill="#BC0301"/>
<path fill-rule="evenodd" clip-rule="evenodd" d="M115.787 42.3869C115.787 42.4858 115.787 42.5846 115.787 42.6834C114.977 42.6834 114.167 42.6834 113.357 42.6834C113.365 42.1883 113.117 41.9165 112.614 41.8681C111.455 41.8212 110.298 41.838 109.143 41.9175C108.705 42.0746 108.432 42.3795 108.325 42.8316C108.292 43.5234 108.292 44.2152 108.325 44.9069C108.438 45.3818 108.727 45.703 109.193 45.8705C110.383 45.9036 111.573 45.9036 112.762 45.8705C113.019 45.8294 113.193 45.6896 113.283 45.4505C113.304 45.2681 113.329 45.0868 113.357 44.9069C114.167 44.9069 114.977 44.9069 115.787 44.9069C115.927 46.6853 115.101 47.5994 113.308 47.6493C111.606 47.6824 109.903 47.6824 108.201 47.6493C106.854 47.4432 106.036 46.6774 105.747 45.3516C105.714 44.3634 105.714 43.3752 105.747 42.3869C106.047 41.0177 106.898 40.2518 108.3 40.0893C109.92 40.0562 111.539 40.0562 113.159 40.0893C113.75 40.1313 114.312 40.2795 114.845 40.534C115.505 40.9693 115.819 41.587 115.787 42.3869Z" fill="#BC0301"/>
<path fill-rule="evenodd" clip-rule="evenodd" d="M94.1711 41.9424C94.1711 42.0412 94.1711 42.14 94.1711 42.2389C94.9807 42.2389 95.7908 42.2389 96.6004 42.2389C95.7828 42.2883 94.9564 42.3046 94.1215 42.2883C94.1066 42.1618 94.123 42.0466 94.1711 41.9424Z" fill="#CE4542"/>
<path fill-rule="evenodd" clip-rule="evenodd" d="M72.3077 42.3872C72.7544 43.245 73.2006 44.1013 73.6463 44.9566C72.7385 44.9868 71.8214 45.0194 70.8948 45.0554C70.8452 45.0223 70.7956 44.9897 70.7461 44.9566C70.7262 44.968 70.7178 44.9843 70.7213 45.006C68.5691 44.9897 66.421 45.0065 64.2763 45.0554C63.43 45.0223 62.5788 44.9892 61.7231 44.9566C61.6899 44.9897 61.6571 45.0223 61.6239 45.0554C61.5396 45.0105 61.4489 44.9942 61.3513 45.006C61.8267 44.1408 62.2893 43.2677 62.7394 42.3872C63.7062 42.3897 64.6813 42.3897 65.6644 42.3872C65.5945 42.576 65.5117 42.7568 65.4166 42.9307C66.0739 42.9638 66.768 42.9806 67.4988 42.9801C68.2092 42.9638 68.9201 42.947 69.6306 42.9307C69.6246 42.9006 69.6078 42.8843 69.581 42.8813C69.5151 42.7168 69.4486 42.5517 69.3827 42.3872C70.346 42.3872 71.3211 42.3872 72.3077 42.3872Z" fill="#E98603"/>
<path fill-rule="evenodd" clip-rule="evenodd" d="M49.9982 42.3872C52.5429 42.3872 55.0882 42.3872 57.633 42.3872C58.39 42.6758 58.8442 43.2193 58.9964 44.0178C59.037 44.3563 59.0286 44.6853 58.9716 45.006C58.922 45.0016 58.8808 45.0184 58.8476 45.0554C58.8313 45.0223 58.8144 44.9897 58.798 44.9566C58.0405 45.0204 57.2969 45.0204 56.5671 44.9566C56.4942 44.9947 56.4198 45.0273 56.344 45.0554C56.6826 43.9916 56.3024 43.3903 55.2037 43.2519C53.4685 43.2272 51.7334 43.2188 49.9982 43.2272C49.9982 42.947 49.9982 42.6674 49.9982 42.3872Z" fill="#E98703"/>
<path fill-rule="evenodd" clip-rule="evenodd" d="M115.787 42.3872C115.835 42.4915 115.851 42.6066 115.836 42.7331C115.001 42.7494 114.175 42.7331 113.357 42.6837C114.167 42.6837 114.977 42.6837 115.787 42.6837C115.787 42.5849 115.787 42.486 115.787 42.3872Z" fill="#CD4341"/>
<path fill-rule="evenodd" clip-rule="evenodd" d="M89.7588 42.8316C89.7618 42.805 89.7781 42.7882 89.8084 42.7822C89.8579 44.4123 89.8743 46.0429 89.8579 47.674C89.8247 46.0597 89.792 44.4459 89.7588 42.8316Z" fill="#DB7877"/>
<path fill-rule="evenodd" clip-rule="evenodd" d="M69.581 42.8813C69.6078 42.8843 69.6246 42.9006 69.6306 42.9308C68.9202 42.9471 68.2092 42.9639 67.4988 42.9802C66.768 42.9807 66.074 42.9639 65.4166 42.9308C66.8131 42.9471 68.2013 42.9308 69.581 42.8813Z" fill="#F8E0BE"/>
<path fill-rule="evenodd" clip-rule="evenodd" d="M36.7612 42.98C35.894 43.0294 35.0181 43.0457 34.1336 43.0294C34.1336 43.5072 34.1336 43.9845 34.1336 44.4623C34.0843 43.9771 34.0678 43.483 34.084 42.98C34.9764 42.98 35.8688 42.98 36.7612 42.98Z" fill="#E39292"/>
<path fill-rule="evenodd" clip-rule="evenodd" d="M21.6899 44.413C23.0145 44.3902 24.3365 44.4149 25.656 44.4871C25.8908 44.5399 26.0478 44.6798 26.127 44.9071C26.3054 45.5652 26.0657 45.9521 25.4081 46.0682C24.1339 46.1147 22.8614 46.0984 21.5907 46.0188C21.2085 45.9082 21.0267 45.6527 21.0454 45.253C21.036 44.791 21.2509 44.5113 21.6899 44.413Z" fill="#FEFDFD"/>
<path fill-rule="evenodd" clip-rule="evenodd" d="M97.1953 44.4128C98.4843 44.4044 99.7733 44.4128 101.062 44.4375C101.633 44.5947 101.84 44.9652 101.682 45.5493C101.63 45.6605 101.572 45.7672 101.509 45.8705C101.291 45.9821 101.06 46.0484 100.814 46.0681C99.573 46.1151 98.3336 46.0988 97.0962 46.0187C96.6624 45.7939 96.5057 45.4401 96.6252 44.9564C96.7119 44.6638 96.9023 44.4825 97.1953 44.4128Z" fill="#FEFDFD"/>
<path fill-rule="evenodd" clip-rule="evenodd" d="M56.3443 45.0555C56.4201 45.0273 56.4945 44.9947 56.5674 44.9566C57.2971 45.0204 58.0408 45.0204 58.7983 44.9566C58.8147 44.9897 58.8315 45.0223 58.8479 45.0555C58.8811 45.0184 58.9222 45.0016 58.9718 45.006C58.8186 46.6821 57.8935 47.5631 56.1955 47.6496C53.8654 47.6827 51.5353 47.6827 49.2052 47.6496C47.388 47.4771 46.5122 46.4805 46.5776 44.6602C47.4535 44.6602 48.3293 44.6602 49.2052 44.6602C49.3028 45.1612 49.6003 45.4824 50.0976 45.6237C51.8164 45.6568 53.5347 45.6568 55.2536 45.6237C55.7122 45.601 56.076 45.4117 56.3443 45.0555Z" fill="#E88002"/>
<path fill-rule="evenodd" clip-rule="evenodd" d="M64.2761 45.0554C63.8423 45.9364 63.3961 46.8095 62.9375 47.6742C61.9375 47.6905 60.946 47.6742 59.9629 47.6248C60.4254 46.7517 60.8885 45.8791 61.351 45.006C61.4487 44.9941 61.5394 45.0104 61.6237 45.0554C61.6569 45.0223 61.6897 44.9896 61.7229 44.9565C62.5786 44.9892 63.4298 45.0223 64.2761 45.0554Z" fill="#E88002"/>
<path fill-rule="evenodd" clip-rule="evenodd" d="M73.6463 44.9565C74.1307 45.8474 74.6096 46.7448 75.084 47.6495C74.0761 47.6826 73.0677 47.6826 72.0599 47.6495C71.5804 46.7848 71.1343 45.9038 70.7213 45.006C70.7178 44.9842 70.7262 44.9679 70.7461 44.9565C70.7956 44.9896 70.8452 45.0223 70.8948 45.0554C71.8214 45.0193 72.7386 44.9867 73.6463 44.9565Z" fill="#E88002"/>
<path fill-rule="evenodd" clip-rule="evenodd" d="M28.7297 42.5845C28.7792 44.2892 28.7958 46.0018 28.7793 47.7233C27.8948 47.7396 27.0189 47.7233 26.1517 47.6739C27.011 47.6739 27.8704 47.6739 28.7297 47.6739C28.7297 45.9776 28.7297 44.2808 28.7297 42.5845Z" fill="#E7A0A0"/>
<path fill-rule="evenodd" clip-rule="evenodd" d="M59.9632 47.6245C60.9463 47.6739 61.9378 47.6902 62.9378 47.6739C61.9378 47.7396 60.9299 47.7396 59.9136 47.6739C59.9195 47.6438 59.9364 47.6275 59.9632 47.6245Z" fill="#F9DEBE"/>
<path fill-rule="evenodd" clip-rule="evenodd" d="M13.6088 51.4292C14.8953 51.4351 15.4819 52.0775 15.3688 53.3563C15.2598 54.0085 14.888 54.4285 14.2533 54.6163C12.8884 54.7215 12.2687 54.0876 12.3942 52.7139C12.5226 52.0177 12.9275 51.5898 13.6088 51.4292Z" fill="#363636"/>
<path fill-rule="evenodd" clip-rule="evenodd" d="M18.4674 51.4295C18.8265 51.4014 19.1736 51.4508 19.5085 51.5778C19.5509 51.7082 19.5427 51.8402 19.4837 51.9731C19.4632 51.9958 19.4384 52.0121 19.4093 52.0225C18.7021 51.7354 18.165 51.9167 17.7981 52.566C17.6081 53.1338 17.732 53.6195 18.1699 54.0237C18.5922 54.2416 19.0219 54.2495 19.4589 54.0484C19.5384 54.2035 19.5549 54.3597 19.5085 54.5178C19.0859 54.6344 18.6562 54.6675 18.2195 54.6166C17.5009 54.3384 17.1373 53.8112 17.1288 53.0354C17.2078 52.191 17.654 51.6558 18.4674 51.4295Z" fill="#383838"/>
<path fill-rule="evenodd" clip-rule="evenodd" d="M23.6732 51.5282C22.8634 51.5282 22.0537 51.5282 21.2439 51.5282C21.2439 51.6601 21.2439 51.7915 21.2439 51.9235C21.5673 51.9077 21.8812 51.924 22.1859 51.9729C21.8553 51.9729 21.5249 51.9729 21.1943 51.9729C21.1943 51.8083 21.1943 51.6433 21.1943 51.4788C22.0293 51.4625 22.8556 51.4788 23.6732 51.5282Z" fill="#8B8B8B"/>
<path fill-rule="evenodd" clip-rule="evenodd" d="M26.1022 51.4294C26.5878 51.3687 27.0092 51.5001 27.3664 51.8247C27.416 51.9236 27.4656 52.0224 27.5151 52.1212C27.5729 52.9429 27.6143 53.7666 27.6391 54.5918C27.4573 54.5918 27.2755 54.5918 27.0937 54.5918C27.1019 54.4589 27.0936 54.3274 27.0689 54.1965C26.7227 54.6027 26.2848 54.7425 25.7552 54.6165C25.1644 54.283 25.0239 53.8136 25.3338 53.2083C25.7931 52.7621 26.3467 52.5644 26.9946 52.6153C27.0294 52.0901 26.7815 51.843 26.2509 51.8742C25.9997 51.8697 25.7684 51.9354 25.5568 52.0718C25.4501 51.9517 25.4171 51.8198 25.4577 51.6765C25.6672 51.5634 25.882 51.4808 26.1022 51.4294Z" fill="#363636"/>
<path fill-rule="evenodd" clip-rule="evenodd" d="M29.9196 51.4787C30.3331 51.4703 30.7462 51.4787 31.159 51.5034C31.4251 51.5326 31.673 51.6151 31.9027 51.7505C32.174 52.1082 32.1575 52.4541 31.8531 52.7882C31.7432 52.8514 31.6275 52.9008 31.5061 52.9364C32.1963 53.1014 32.4028 53.5051 32.1258 54.147C32.0135 54.2918 31.873 54.399 31.7044 54.4682C31.0683 54.6362 30.4238 54.6777 29.7709 54.5917C29.7709 53.5703 29.7709 52.5495 29.7709 51.5282C29.8349 51.54 29.8845 51.5232 29.9196 51.4787Z" fill="#353535"/>
<path fill-rule="evenodd" clip-rule="evenodd" d="M36.0674 51.528C36.2912 51.4633 36.5226 51.4633 36.7615 51.528C36.7553 51.5582 36.7388 51.5745 36.7119 51.5775C36.5069 51.529 36.2921 51.5122 36.0674 51.528Z" fill="#9A9A9A"/>
<path fill-rule="evenodd" clip-rule="evenodd" d="M39.2898 51.4295C39.8099 51.3489 40.2478 51.4972 40.6036 51.8742C40.6367 51.9399 40.6697 52.0061 40.7028 52.0718C40.7614 52.9098 40.8027 53.7498 40.8267 54.5918C40.6582 54.6076 40.493 54.5913 40.3309 54.5424C40.2968 54.4466 40.272 54.3477 40.2566 54.2459C39.8918 54.6086 39.4539 54.7322 38.9428 54.6165C38.4532 54.3566 38.2797 53.9529 38.4222 53.4059C38.5932 53.061 38.8658 52.8387 39.2403 52.7389C39.5648 52.6494 39.8953 52.6079 40.2318 52.6154C40.2619 52.3342 40.1627 52.1118 39.9343 51.9483C39.5195 51.8223 39.1229 51.8633 38.7445 52.0718C38.6854 51.9611 38.6358 51.846 38.5958 51.7259C38.8115 51.5777 39.0428 51.4789 39.2898 51.4295Z" fill="#373737"/>
<path fill-rule="evenodd" clip-rule="evenodd" d="M50.2458 51.4293C51.4133 51.4076 51.9587 51.9837 51.8818 53.1587C51.1546 53.1587 50.4278 53.1587 49.7005 53.1587C49.7094 53.8762 50.0733 54.2221 50.7912 54.1964C51.0633 54.2166 51.3196 54.1672 51.5596 54.0481C51.6364 54.187 51.6776 54.3352 51.6835 54.4928C51.1972 54.6297 50.7014 54.6707 50.1962 54.6164C49.4721 54.351 49.125 53.8322 49.1551 53.0599C49.1366 52.2555 49.5001 51.7119 50.2458 51.4293Z" fill="#363636"/>
<path fill-rule="evenodd" clip-rule="evenodd" d="M55.5508 51.528C55.758 51.4633 55.9732 51.4633 56.1953 51.528C56.1893 51.5582 56.1725 51.5745 56.1457 51.5775C55.9573 51.529 55.759 51.5122 55.5508 51.528Z" fill="#9B9B9B"/>
<path fill-rule="evenodd" clip-rule="evenodd" d="M73.0018 51.4294C73.8238 51.3361 74.3443 51.6819 74.5635 52.4671C74.5883 52.6969 74.5967 52.9276 74.5883 53.1589C73.861 53.1589 73.1342 53.1589 72.4069 53.1589C72.4485 53.8427 72.8119 54.1886 73.4976 54.1965C73.7742 54.2098 74.0384 54.1604 74.2908 54.0483C74.3716 54.1851 74.4048 54.3334 74.3899 54.493C73.8525 54.6575 73.3072 54.6822 72.7539 54.5671C72.1332 54.2617 71.8357 53.7592 71.8615 53.06C71.8804 52.2526 72.2601 51.7091 73.0018 51.4294Z" fill="#363636"/>
<path fill-rule="evenodd" clip-rule="evenodd" d="M77.7116 51.4297C78.0691 51.4109 78.4161 51.4603 78.7527 51.5779C78.7408 51.7405 78.6913 51.8887 78.604 52.0226C77.3026 51.7301 76.7657 52.2405 76.9928 53.5544C77.3854 54.219 77.9392 54.3835 78.6536 54.0485C78.6699 54.0979 78.6868 54.1473 78.7031 54.1967C78.7398 54.301 78.7398 54.3998 78.7031 54.4932C78.2857 54.637 77.8559 54.678 77.4142 54.6167C76.5798 54.2797 76.2243 53.6621 76.3483 52.7638C76.5029 52.0083 76.9576 51.5636 77.7116 51.4297Z" fill="#373737"/>
<path fill-rule="evenodd" clip-rule="evenodd" d="M82.5206 51.528C82.7447 51.4633 82.9757 51.4633 83.2146 51.528C83.2087 51.5582 83.1918 51.5745 83.1651 51.5775C82.9603 51.529 82.7452 51.5122 82.5206 51.528Z" fill="#979797"/>
<path fill-rule="evenodd" clip-rule="evenodd" d="M90.1058 51.528C89.8976 51.5122 89.6993 51.529 89.5109 51.5775C89.4841 51.5745 89.4673 51.5582 89.4613 51.528C89.6834 51.4633 89.8986 51.4633 90.1058 51.528Z" fill="#989898"/>
<path fill-rule="evenodd" clip-rule="evenodd" d="M98.5336 51.9731C98.5336 51.8249 98.5336 51.6767 98.5336 51.5284C97.9223 51.5284 97.3105 51.5284 96.6993 51.5284C96.6993 52.5498 96.6993 53.5706 96.6993 54.5919C96.6497 53.5627 96.6333 52.5251 96.6497 51.479C97.2942 51.479 97.9387 51.479 98.5832 51.479C98.5985 51.6539 98.5822 51.819 98.5336 51.9731Z" fill="#818181"/>
<path fill-rule="evenodd" clip-rule="evenodd" d="M100.914 51.4294C101.407 51.3494 101.845 51.4645 102.227 51.7753C102.306 51.8825 102.372 51.9976 102.426 52.1212C102.481 52.9374 102.522 53.7527 102.55 54.567C102.369 54.5918 102.187 54.6002 102.004 54.5918C102.02 54.4722 102.003 54.3566 101.955 54.2459C101.596 54.5987 101.166 54.7222 100.666 54.6165C100.13 54.3511 99.9562 53.9311 100.145 53.3565C100.366 52.9948 100.688 52.7724 101.112 52.6894C101.374 52.641 101.639 52.6163 101.905 52.6153C101.942 52.092 101.694 51.845 101.161 51.8741C100.909 51.8702 100.677 51.9364 100.467 52.0718C100.361 51.9517 100.328 51.8198 100.368 51.6765C100.551 51.5865 100.733 51.504 100.914 51.4294Z" fill="#363636"/>
<path fill-rule="evenodd" clip-rule="evenodd" d="M105.177 51.4293C105.692 51.3671 106.131 51.5153 106.491 51.874C106.682 52.4082 106.508 52.762 105.97 52.9364C106.649 53.1276 106.855 53.5476 106.59 54.1964C106.388 54.4331 106.132 54.5729 105.822 54.6164C105.401 54.6693 104.987 54.6362 104.582 54.5176C104.497 54.4919 104.431 54.4425 104.384 54.3693C104.405 54.2394 104.463 54.1322 104.557 54.0482C105.011 54.2923 105.465 54.3002 105.921 54.0729C106.216 53.6889 106.134 53.4093 105.673 53.2329C105.426 53.1958 105.178 53.1711 104.929 53.1588C104.929 53.0436 104.929 52.928 104.929 52.8129C105.327 52.8603 105.666 52.7447 105.946 52.467C105.982 52.0341 105.776 51.8365 105.326 51.874C105.08 51.8652 104.857 51.9309 104.657 52.0717C104.552 51.9516 104.528 51.8197 104.582 51.6764C104.778 51.5731 104.976 51.4911 105.177 51.4293Z" fill="#373737"/>
<path fill-rule="evenodd" clip-rule="evenodd" d="M109.639 51.4292C110.565 51.3175 111.168 51.6965 111.449 52.5657C111.592 53.2105 111.452 53.7787 111.027 54.2704C110.416 54.7067 109.771 54.7561 109.094 54.4186C108.422 53.7733 108.282 53.0237 108.672 52.1704C108.904 51.7993 109.226 51.5523 109.639 51.4292Z" fill="#373737"/>
<path fill-rule="evenodd" clip-rule="evenodd" d="M113.605 51.4787C114.068 51.4703 114.531 51.4787 114.993 51.5034C115.613 51.5766 115.869 51.9141 115.762 52.5164C115.648 52.7284 115.475 52.8682 115.241 52.9364C115.907 53.136 116.097 53.556 115.811 54.1964C115.476 54.4726 115.088 54.6129 114.646 54.6164C114.249 54.649 113.852 54.6406 113.456 54.5917C113.456 53.5703 113.456 52.5495 113.456 51.5282C113.52 51.54 113.57 51.5232 113.605 51.4787Z" fill="#363636"/>
<path fill-rule="evenodd" clip-rule="evenodd" d="M7.85791 51.5283C8.70072 51.5283 9.54352 51.5283 10.3863 51.5283C10.3863 52.5497 10.3863 53.5705 10.3863 54.5918C10.2045 54.5918 10.0228 54.5918 9.84098 54.5918C9.84098 53.7187 9.84098 52.8461 9.84098 51.973C9.3707 51.9241 8.89149 51.9073 8.40325 51.9236C8.40325 52.813 8.40325 53.7024 8.40325 54.5918C8.22146 54.5918 8.03971 54.5918 7.85791 54.5918C7.85791 53.5705 7.85791 52.5497 7.85791 51.5283Z" fill="#323232"/>
<path fill-rule="evenodd" clip-rule="evenodd" d="M7.85791 51.5282C8.7086 51.4788 9.56791 51.4625 10.4359 51.4788C10.4523 52.5248 10.4358 53.5625 10.3863 54.5917C10.3863 53.5704 10.3863 52.5495 10.3863 51.5282C9.54352 51.5282 8.70072 51.5282 7.85791 51.5282Z" fill="#757575"/>
<path fill-rule="evenodd" clip-rule="evenodd" d="M23.6729 51.5283C23.6729 51.6602 23.6729 51.7917 23.6729 51.9236C23.3496 51.9078 23.0356 51.9241 22.731 51.973C22.731 52.8461 22.731 53.7187 22.731 54.5918C22.5492 54.5918 22.3674 54.5918 22.1856 54.5918C22.1856 53.7187 22.1856 52.8461 22.1856 51.973C21.881 51.9241 21.567 51.9078 21.2437 51.9236C21.2437 51.7917 21.2437 51.6602 21.2437 51.5283C22.0534 51.5283 22.8632 51.5283 23.6729 51.5283Z" fill="#333333"/>
<path fill-rule="evenodd" clip-rule="evenodd" d="M34.9268 52.8131C34.8917 52.8576 34.8421 52.8744 34.7781 52.8625C34.7781 52.4178 34.7781 51.9731 34.7781 51.5284C34.5963 51.5284 34.4146 51.5284 34.2328 51.5284C34.2328 52.5498 34.2328 53.5706 34.2328 54.5919C34.1833 53.5627 34.1668 52.5251 34.1832 51.479C34.398 51.479 34.6129 51.479 34.8277 51.479C34.7961 51.9435 34.8291 52.3882 34.9268 52.8131Z" fill="#C8C8C8"/>
<path fill-rule="evenodd" clip-rule="evenodd" d="M34.9269 52.8129C35.307 52.3845 35.687 51.9566 36.0671 51.5282C36.2918 51.5124 36.5067 51.5292 36.7116 51.5776C36.3009 52.0036 35.8878 52.432 35.4722 52.8623C35.7829 52.9641 36.039 53.145 36.2406 53.4059C36.4282 53.777 36.6017 54.1554 36.7612 54.5423C36.5629 54.6081 36.3646 54.6081 36.1663 54.5423C36.0306 54.2439 35.8901 53.9474 35.7449 53.6529C35.5018 53.3332 35.1796 53.2013 34.7781 53.2576C34.7781 53.7023 34.7781 54.147 34.7781 54.5918C34.5963 54.5918 34.4146 54.5918 34.2328 54.5918C34.2328 53.5704 34.2328 52.5496 34.2328 51.5282C34.4146 51.5282 34.5963 51.5282 34.7781 51.5282C34.7781 51.9729 34.7781 52.4176 34.7781 52.8623C34.8421 52.8742 34.8917 52.8574 34.9269 52.8129Z" fill="#353535"/>
<path fill-rule="evenodd" clip-rule="evenodd" d="M47.6683 51.5283C47.6683 51.6602 47.6683 51.7917 47.6683 51.9236C47.345 51.9078 47.031 51.9241 46.7263 51.973C46.7263 52.8461 46.7263 53.7187 46.7263 54.5918C46.5445 54.5918 46.3628 54.5918 46.181 54.5918C46.181 53.7024 46.181 52.813 46.181 51.9236C45.8505 51.9236 45.52 51.9236 45.1895 51.9236C45.1895 51.7917 45.1895 51.6602 45.1895 51.5283C46.0157 51.5283 46.842 51.5283 47.6683 51.5283Z" fill="#333333"/>
<path fill-rule="evenodd" clip-rule="evenodd" d="M55.5508 51.5282C55.759 51.5124 55.9573 51.5292 56.1457 51.5776C55.8165 52.0545 55.4859 52.5323 55.1542 53.0106C55.4888 53.5299 55.8359 54.0403 56.1953 54.5423C55.9806 54.6081 55.7655 54.6081 55.5508 54.5423C55.2945 54.1634 55.0387 53.7849 54.7824 53.4059C54.5261 53.7928 54.2702 54.1802 54.0139 54.567C53.8136 54.6081 53.6153 54.5997 53.419 54.5423C53.7725 54.0433 54.1195 53.5413 54.4601 53.0353C54.1423 52.5333 53.8117 52.0391 53.4686 51.5529C53.6833 51.5198 53.8984 51.5198 54.1131 51.5529C54.3525 51.9235 54.5925 52.2941 54.8319 52.6647C55.0719 52.2847 55.3118 51.9057 55.5508 51.5282Z" fill="#363636"/>
<path fill-rule="evenodd" clip-rule="evenodd" d="M60.0623 51.5283C60.2442 51.5283 60.4256 51.5283 60.6076 51.5283C60.6076 52.5497 60.6076 53.5705 60.6076 54.5918C60.4256 54.5918 60.2442 54.5918 60.0623 54.5918C60.0623 54.1308 60.0623 53.6693 60.0623 53.2083C59.5665 53.2083 59.0707 53.2083 58.5749 53.2083C58.5749 53.6693 58.5749 54.1308 58.5749 54.5918C58.393 54.5918 58.2115 54.5918 58.0296 54.5918C58.0296 53.5705 58.0296 52.5497 58.0296 51.5283C58.2115 51.5283 58.393 51.5283 58.5749 51.5283C58.5749 51.9399 58.5749 52.352 58.5749 52.7636C59.0707 52.7636 59.5665 52.7636 60.0623 52.7636C60.0623 52.352 60.0623 51.9399 60.0623 51.5283Z" fill="#333333"/>
<path fill-rule="evenodd" clip-rule="evenodd" d="M63.2847 51.5281C63.1197 51.5281 62.9541 51.5281 62.789 51.5281C62.789 52.5495 62.789 53.5703 62.789 54.5916C62.7394 53.5624 62.723 52.5247 62.7394 51.4787C62.9313 51.4634 63.1132 51.4797 63.2847 51.5281Z" fill="#C6C6C6"/>
<path fill-rule="evenodd" clip-rule="evenodd" d="M63.2848 51.5282C63.2763 52.3519 63.2848 53.1756 63.3096 53.9988C63.7523 53.1791 64.2153 52.3722 64.6977 51.5776C64.9327 51.5297 65.1722 51.5134 65.4166 51.5282C65.4166 52.5496 65.4166 53.5704 65.4166 54.5918C65.2346 54.5918 65.0532 54.5918 64.8712 54.5918C64.8683 53.7503 64.8767 52.9103 64.896 52.0718C64.4364 52.9083 63.9575 53.7315 63.4583 54.5424C63.2402 54.5903 63.0171 54.6066 62.789 54.5918C62.789 53.5704 62.789 52.5496 62.789 51.5282C62.9541 51.5282 63.1197 51.5282 63.2848 51.5282Z" fill="#343434"/>
<path fill-rule="evenodd" clip-rule="evenodd" d="M67.4988 51.5283C67.6807 51.5283 67.8622 51.5283 68.0441 51.5283C68.0238 51.977 68.0486 52.4217 68.1185 52.8624C68.235 53.0976 68.4249 53.1965 68.6886 53.1589C68.9216 53.1703 69.1284 53.1046 69.3083 52.9613C69.3331 52.4839 69.3415 52.0061 69.3331 51.5283C69.5151 51.5283 69.6965 51.5283 69.8785 51.5283C69.8785 52.5497 69.8785 53.5705 69.8785 54.5918C69.6965 54.5918 69.5151 54.5918 69.3331 54.5918C69.3415 54.1798 69.3331 53.7682 69.3083 53.3566C68.8334 53.6506 68.346 53.6753 67.8458 53.4307C67.6559 53.3076 67.5488 53.1347 67.5236 52.9118C67.4988 52.4508 67.4903 51.9898 67.4988 51.5283Z" fill="#343434"/>
<path fill-rule="evenodd" clip-rule="evenodd" d="M82.5206 51.5282C82.7451 51.5124 82.9603 51.5292 83.1651 51.5776C82.7442 52.0055 82.3307 52.4423 81.9256 52.887C82.1869 52.9458 82.41 53.0694 82.5949 53.2576C82.8369 53.6826 83.06 54.1189 83.2642 54.567C83.0476 54.6081 82.8329 54.5997 82.6197 54.5423C82.4973 54.1579 82.3153 53.8041 82.0744 53.48C81.828 53.2838 81.5474 53.2097 81.2316 53.2576C81.2316 53.7023 81.2316 54.147 81.2316 54.5918C81.0496 54.5918 80.8682 54.5918 80.6862 54.5918C80.6862 53.5704 80.6862 52.5496 80.6862 51.5282C80.8682 51.5282 81.0496 51.5282 81.2316 51.5282C81.2231 51.9566 81.2316 52.385 81.2564 52.8129C81.2767 52.8357 81.3015 52.852 81.3307 52.8623C81.7283 52.4166 82.1249 51.9719 82.5206 51.5282Z" fill="#353535"/>
<path fill-rule="evenodd" clip-rule="evenodd" d="M84.9994 51.528C85.1813 51.528 85.3628 51.528 85.5447 51.528C85.5363 52.3186 85.5447 53.1092 85.5695 53.8998C85.9989 53.1092 86.4535 52.3354 86.9329 51.5774C87.1619 51.5285 87.3935 51.5117 87.627 51.528C87.627 52.5494 87.627 53.5702 87.627 54.5915C87.445 54.5915 87.2636 54.5915 87.0816 54.5915C87.0806 53.7506 87.0886 52.9106 87.1064 52.0715C86.6478 52.9031 86.1768 53.7268 85.6935 54.5421C85.4644 54.591 85.2329 54.6078 84.9994 54.5915C84.9994 53.5702 84.9994 52.5494 84.9994 51.528Z" fill="#353535"/>
<path fill-rule="evenodd" clip-rule="evenodd" d="M90.1058 51.5282C90.3537 51.8909 90.6016 52.2531 90.8495 52.6153C91.0924 52.2798 91.3239 51.9339 91.5435 51.5776C91.7567 51.5203 91.9714 51.5119 92.188 51.5529C91.8266 52.0199 91.496 52.5056 91.1965 53.0106C91.5321 53.5348 91.8792 54.0537 92.2376 54.567C92.023 54.6002 91.8078 54.6002 91.5931 54.567C91.3368 54.1722 91.0726 53.7849 90.7999 53.4059C90.558 53.7972 90.3101 54.1841 90.0562 54.567C89.8416 54.6002 89.6264 54.6002 89.4117 54.567C89.7816 54.0527 90.145 53.5338 90.5024 53.0106C90.1708 52.5323 89.8401 52.0545 89.5109 51.5776C89.6993 51.5292 89.8976 51.5124 90.1058 51.5282Z" fill="#363636"/>
<path fill-rule="evenodd" clip-rule="evenodd" d="M98.5339 51.973C98.104 51.973 97.6747 51.973 97.2449 51.973C97.2449 52.8461 97.2449 53.7187 97.2449 54.5918C97.0629 54.5918 96.8815 54.5918 96.6995 54.5918C96.6995 53.5705 96.6995 52.5497 96.6995 51.5283C97.3108 51.5283 97.9226 51.5283 98.5339 51.5283C98.5339 51.6766 98.5339 51.8248 98.5339 51.973Z" fill="#353535"/>
<path fill-rule="evenodd" clip-rule="evenodd" d="M13.6088 51.8742C14.2312 51.7946 14.6195 52.058 14.7739 52.6648C14.9038 53.2478 14.7467 53.7341 14.3029 54.1224C13.6113 54.3571 13.1734 54.118 12.9891 53.406C12.8296 52.7354 13.0361 52.2245 13.6088 51.8742Z" fill="#FCFCFC"/>
<path fill-rule="evenodd" clip-rule="evenodd" d="M30.3658 51.874C30.6665 51.8621 30.9639 51.8868 31.2582 51.9481C31.6339 52.1695 31.6504 52.4165 31.3077 52.6893C31.178 52.7298 31.0458 52.7545 30.9111 52.7634C30.7128 52.7634 30.5145 52.7634 30.3162 52.7634C30.3019 52.4625 30.3184 52.166 30.3658 51.874Z" fill="#FCFCFC"/>
<path fill-rule="evenodd" clip-rule="evenodd" d="M51.2872 52.5165C51.2872 52.5822 51.2872 52.6484 51.2872 52.7141C50.7582 52.7141 50.2297 52.7141 49.7007 52.7141C49.7781 52.2254 50.0587 51.929 50.5435 51.8247C50.9744 51.8657 51.2223 52.096 51.2872 52.5165Z" fill="#FBFBFB"/>
<path fill-rule="evenodd" clip-rule="evenodd" d="M74.0429 52.7142C73.514 52.7142 72.9855 52.7142 72.4565 52.7142C72.4565 52.6648 72.4565 52.6154 72.4565 52.566C72.6092 52.0042 72.9726 51.7818 73.5472 51.899C73.8828 52.065 74.0479 52.3367 74.0429 52.7142Z" fill="#FBFBFB"/>
<path fill-rule="evenodd" clip-rule="evenodd" d="M109.689 51.8743C110.315 51.7992 110.703 52.0626 110.854 52.6649C110.973 53.2035 110.849 53.6729 110.482 54.0731C109.706 54.3988 109.235 54.1438 109.069 53.3073C108.954 52.6812 109.16 52.2039 109.689 51.8743Z" fill="#FCFCFC"/>
<path fill-rule="evenodd" clip-rule="evenodd" d="M114.002 51.8739C114.374 51.8487 114.738 51.8897 115.093 51.9974C115.312 52.2662 115.279 52.497 114.993 52.6892C114.672 52.7944 114.341 52.8354 114.002 52.8127C114.002 52.4999 114.002 52.1867 114.002 51.8739Z" fill="#FAFAFA"/>
<path fill-rule="evenodd" clip-rule="evenodd" d="M23.6729 51.5283C23.7214 51.6662 23.7379 51.8144 23.7225 51.973C23.392 51.973 23.0615 51.973 22.731 51.973C23.0356 51.9241 23.3496 51.9078 23.6729 51.9236C23.6729 51.7917 23.6729 51.6602 23.6729 51.5283Z" fill="#717171"/>
<path fill-rule="evenodd" clip-rule="evenodd" d="M30.3658 51.874C30.3184 52.166 30.3019 52.4625 30.3162 52.7634C30.5145 52.7634 30.7128 52.7634 30.9111 52.7634C30.7062 52.8119 30.4913 52.8287 30.2666 52.8128C30.2357 52.4793 30.2688 52.166 30.3658 51.874Z" fill="#A1A1A1"/>
<path fill-rule="evenodd" clip-rule="evenodd" d="M47.6681 51.5283C47.7165 51.6662 47.733 51.8144 47.7177 51.973C47.3871 51.973 47.0567 51.973 46.7261 51.973C47.0308 51.9241 47.3448 51.9078 47.6681 51.9236C47.6681 51.7917 47.6681 51.6602 47.6681 51.5283Z" fill="#717171"/>
<path fill-rule="evenodd" clip-rule="evenodd" d="M9.84099 51.9729C9.37829 51.9729 8.91554 51.9729 8.45284 51.9729C8.4692 52.8544 8.45269 53.7275 8.40326 54.5918C8.40326 53.7023 8.40326 52.8129 8.40326 51.9235C8.89149 51.9072 9.3707 51.924 9.84099 51.9729Z" fill="#8A8A8A"/>
<path fill-rule="evenodd" clip-rule="evenodd" d="M45.1895 51.9233C45.52 51.9233 45.8505 51.9233 46.181 51.9233C46.181 52.8128 46.181 53.7022 46.181 54.5916C46.1316 53.7274 46.1151 52.8543 46.1314 51.9728C45.8081 51.9886 45.4941 51.9723 45.1895 51.9233Z" fill="#8D8D8D"/>
<path fill-rule="evenodd" clip-rule="evenodd" d="M51.2872 52.5166C51.3343 52.5868 51.3507 52.6693 51.3368 52.7637C50.7825 52.78 50.2372 52.7632 49.7007 52.7142C50.2297 52.7142 50.7582 52.7142 51.2872 52.7142C51.2872 52.6485 51.2872 52.5823 51.2872 52.5166Z" fill="#C4C4C4"/>
<path fill-rule="evenodd" clip-rule="evenodd" d="M60.0623 51.5284C60.0623 51.94 60.0623 52.3521 60.0623 52.7637C59.5665 52.7637 59.0708 52.7637 58.575 52.7637C58.575 52.3521 58.575 51.94 58.575 51.5284C58.393 51.5284 58.2116 51.5284 58.0296 51.5284C58.0296 52.5498 58.0296 53.5706 58.0296 54.5919C57.9801 53.5627 57.9637 52.5251 57.9801 51.479C58.1947 51.479 58.4099 51.479 58.6246 51.479C58.6246 51.8906 58.6246 52.3027 58.6246 52.7143C59.0871 52.7143 59.5502 52.7143 60.0127 52.7143C59.9964 52.3101 60.0132 51.9148 60.0623 51.5284Z" fill="#C1C1C1"/>
<path fill-rule="evenodd" clip-rule="evenodd" d="M72.4565 52.5659C72.4565 52.6153 72.4565 52.6647 72.4565 52.7142C72.9855 52.7142 73.514 52.7142 74.043 52.7142C73.5065 52.7631 72.9612 52.7799 72.4069 52.7636C72.3935 52.6845 72.4104 52.6188 72.4565 52.5659Z" fill="#C7C7C7"/>
<path fill-rule="evenodd" clip-rule="evenodd" d="M26.5979 53.0107C26.7466 53.0107 26.8954 53.0107 27.0441 53.0107C27.1359 53.4525 27.0202 53.8231 26.6971 54.1225C26.3853 54.3073 26.0961 54.2826 25.8295 54.0484C25.6733 53.6926 25.7477 53.4041 26.0526 53.1837C26.2341 53.1051 26.4159 53.0473 26.5979 53.0107Z" fill="#F8F8F8"/>
<path fill-rule="evenodd" clip-rule="evenodd" d="M39.7854 53.0107C39.9341 53.0107 40.0828 53.0107 40.2316 53.0107C40.2516 53.2968 40.2268 53.577 40.1572 53.8507C39.9141 54.1951 39.5918 54.3019 39.1905 54.1719C38.8599 53.8591 38.8599 53.5459 39.1905 53.2331C39.3789 53.1135 39.5772 53.0394 39.7854 53.0107Z" fill="#F9F9F9"/>
<path fill-rule="evenodd" clip-rule="evenodd" d="M101.409 53.0107C101.591 53.0107 101.773 53.0107 101.955 53.0107C102.042 53.4505 101.926 53.8211 101.608 54.1225C101.296 54.3073 101.007 54.2826 100.74 54.0484C100.584 53.6926 100.658 53.4041 100.963 53.1837C101.115 53.1194 101.264 53.0621 101.409 53.0107Z" fill="#F8F8F8"/>
<path fill-rule="evenodd" clip-rule="evenodd" d="M31.0599 53.2081C30.812 53.2081 30.5641 53.2081 30.3162 53.2081C30.3162 53.5377 30.3162 53.8667 30.3162 54.1963C30.2671 53.8598 30.2505 53.5139 30.2666 53.1587C30.5406 53.1429 30.805 53.1592 31.0599 53.2081Z" fill="#A1A1A1"/>
<path fill-rule="evenodd" clip-rule="evenodd" d="M31.0599 53.208C31.5176 53.2273 31.7076 53.4575 31.63 53.8998C31.481 54.0772 31.291 54.1839 31.0599 54.2209C30.8029 54.2615 30.555 54.2531 30.3162 54.1962C30.3162 53.8667 30.3162 53.5376 30.3162 53.208C30.5641 53.208 30.812 53.208 31.0599 53.208Z" fill="#FBFBFB"/>
<path d="M47.068 20C47.8118 26.5 50.7177 29.1354 56.068 31.5C53.7098 28 53.9963 25 54.2098 24C54.4233 23 55.7098 19 60.068 17.5C65.068 20 65.7098 24 65.7098 24C65.7098 24 66.9963 27 63.568 31.5C69.4421 28.937 71.6398 26 72.568 20C73.4963 14 65.7098 4.5 59.9963 0C53.6381 5.5 46.2098 12.5 47.068 20Z" fill="url(#paint0_linear_34_9595)"/>
<path fill-rule="evenodd" clip-rule="evenodd" d="M114.002 53.159C114.373 53.1372 114.737 53.1782 115.093 53.2825C115.278 53.3517 115.36 53.4836 115.34 53.6778C115.36 53.8853 115.278 54.0336 115.093 54.1225C114.738 54.2302 114.374 54.2712 114.002 54.246C114.002 53.8838 114.002 53.5212 114.002 53.159Z" fill="#F9F9F9"/>
</g>
<defs>
<linearGradient id="paint0_linear_34_9595" x1="59.8179" y1="0" x2="59.8179" y2="31.5" gradientUnits="userSpaceOnUse">
<stop stop-color="#F5EA16"/>
<stop offset="1" stop-color="#EDAA0B"/>
</linearGradient>
<clipPath id="clip0_34_9595">
<rect width="123" height="55" fill="white"/>
</clipPath>
</defs>
</svg>
